<?xml version="1.0" encoding="UTF-8"?>
<svg xmlns="http://www.w3.org/2000/svg" xmlns:xlink="http://www.w3.org/1999/xlink" version="1.2" >
<font id="TT Bluescreens Thin">
<font-face  font-family="TT Bluescreens" units-per-em="1000" ascent="770" descent="-175" font-style="normal" font-weight="100" font-stretch="normal" cap-height="700" x-height="540" underline-position="-75" underline-thickness="50" />
<missing-glyph  d="" />
<glyph glyph-name=".null" d="" />
<glyph glyph-name="&amp;#x0;" d="" />
<glyph glyph-name="&amp;#xd;" unicode="&#xd;" d="" />
<glyph glyph-name="space" unicode="&#x20;" horiz-adv-x="140" d="" />
<glyph glyph-name="exclam" unicode="&#x21;" horiz-adv-x="138" d="M69 -3 C87 -3 98 8 98 26 C98 45 87 55 69 55 C51 55 40 44 40 26 C40 8 51 -3 69 -3 L69 -3 Z M61 146 L77 146 L84 540 L84 700 L54 700 L54 540 L61 146 Z " />
<glyph glyph-name="quotedbl" unicode="&#x22;" horiz-adv-x="181" d="M49 555 L64 555 L73 700 L40 700 L49 555 Z M117 555 L132 555 L141 700 L108 700 L117 555 Z " />
<glyph glyph-name="numbersign" unicode="&#x23;" horiz-adv-x="284" d="M25 0 L50 0 L86 203 L144 203 L108 0 L133 0 L169 203 L222 203 L226 226 L173 226 L219 489 L270 489 L274 512 L223 512 L256 700 L231 700 L198 512 L140 512 L173 700 L148 700 L115 512 L62 512 L58 489 L111 489 L65 226 L14 226 L10 203 L61 203 L25 0 Z M90 226 L136 489 L194 489 L148 226 L90 226 Z " />
<glyph glyph-name="dollar" unicode="&#x24;" horiz-adv-x="212" d="M94 -75 L119 -75 L119 -4 C156 4 177 42 177 105 C177 213 174 226 119 354 C66 475 64 485 64 595 C64 656 77 682 108 682 C139 682 152 658 152 604 L152 510 L177 510 L177 604 C177 663 159 697 124 704 L124 775 L99 775 L99 704 C60 699 39 662 39 595 C39 482 42 473 98 340 C146 228 152 213 152 105 C152 46 137 18 105 18 C74 18 60 43 60 97 L60 210 L35 210 L35 97 C35 35 55 1 94 -4 L94 -75 Z " />
<glyph glyph-name="percent" unicode="&#x25;" horiz-adv-x="430" d="M45 416 C45 356 68 325 110 325 C152 325 175 356 175 416 L175 612 C175 674 152 705 110 705 C68 705 45 674 45 612 L45 416 Z M151 416 C151 369 139 347 110 347 C81 347 69 369 69 416 L69 612 C69 661 81 683 110 683 C139 683 151 660 151 612 L151 416 Z M120 0 L143 0 L310 700 L287 700 L120 0 Z M255 86 C255 26 278 -5 320 -5 C362 -5 385 26 385 86 L385 282 C385 344 362 375 320 375 C278 375 255 344 255 282 L255 86 Z M361 86 C361 39 349 17 320 17 C291 17 279 39 279 86 L279 282 C279 331 291 353 320 353 C349 353 361 330 361 282 L361 86 Z " />
<glyph glyph-name="ampersand" unicode="&#x26;" horiz-adv-x="269" d="M40 106 C40 32 65 -5 114 -5 C143 -5 163 8 175 34 C186 8 205 -4 234 -4 C248 -4 261 -1 269 2 L269 25 C260 22 247 20 237 20 C204 20 190 42 190 94 L190 377 L259 377 L259 399 L190 399 L190 507 L175 507 L164 400 L151 400 C95 400 73 431 73 508 L73 598 C73 656 87 682 119 682 C151 682 165 656 165 598 L165 593 L190 593 L190 598 C190 669 166 705 119 705 C72 705 48 669 48 598 L48 508 C48 446 63 408 96 390 C57 373 40 333 40 265 L40 106 Z M165 106 C165 71 161 18 114 18 C80 18 65 45 65 106 L65 265 C65 346 89 377 150 377 L165 377 L165 106 Z " />
<glyph glyph-name="quotesingle" unicode="&#x27;" horiz-adv-x="113" d="M49 555 L64 555 L73 700 L40 700 L49 555 Z " />
<glyph glyph-name="parenleft" unicode="&#x28;" horiz-adv-x="173" d="M163 -106 C116 -27 85 148 85 307 C85 466 116 641 163 720 L139 720 C97 647 60 489 60 307 C60 125 97 -33 139 -106 L163 -106 Z " />
<glyph glyph-name="parenright" unicode="&#x29;" horiz-adv-x="173" d="M34 -106 C76 -33 113 125 113 307 C113 489 76 647 34 720 L10 720 C57 641 88 466 88 307 C88 148 57 -27 10 -106 L34 -106 Z " />
<glyph glyph-name="asterisk" unicode="&#x2a;" horiz-adv-x="242" d="M47 514 L68 499 L121 576 L173 499 L194 514 L137 588 L227 614 L219 638 L131 606 L134 700 L108 700 L111 606 L23 638 L15 614 L105 588 L47 514 Z " />
<glyph glyph-name="plus" unicode="&#x2b;" horiz-adv-x="280" d="M21 315 L129 315 L129 207 L152 207 L152 315 L260 315 L260 338 L152 338 L152 447 L129 447 L129 338 L21 338 L21 315 Z " />
<glyph glyph-name="comma" unicode="&#x2c;" horiz-adv-x="138" d="M55 -108 C94 -8 94 -7 94 51 L61 51 C61 -7 61 -8 40 -108 L55 -108 Z " />
<glyph glyph-name="hyphen" unicode="&#x2d;" horiz-adv-x="200" d="M25 274 L175 274 L175 302 L25 302 L25 274 Z " />
<glyph glyph-name="period" unicode="&#x2e;" horiz-adv-x="138" d="M69 -3 C87 -3 98 8 98 26 C98 45 87 55 69 55 C51 55 40 44 40 26 C40 8 51 -3 69 -3 L69 -3 Z " />
<glyph glyph-name="slash" unicode="&#x2f;" horiz-adv-x="165" d="M0 -80 L25 -80 L165 730 L140 730 L0 -80 Z " />
<glyph glyph-name="zero" unicode="0" horiz-adv-x="254" d="M179 103 C179 43 163 18 127 18 C91 18 75 44 75 103 L75 596 C75 655 91 682 127 682 C163 682 179 655 179 596 L179 103 Z M50 103 C50 32 76 -5 127 -5 C177 -5 204 33 204 103 L204 596 C204 668 178 705 127 705 C77 705 50 667 50 596 L50 103 Z " />
<glyph glyph-name="one" unicode="1" horiz-adv-x="143" d="M63 0 L88 0 L88 700 L71 700 L10 664 L10 639 L63 668 L63 0 Z " />
<glyph glyph-name="two" unicode="2" horiz-adv-x="222" d="M40 0 L192 0 L192 168 L168 168 L168 24 L65 24 L65 105 C65 209 70 223 124 340 C187 475 188 483 188 595 C188 668 163 705 115 705 C66 705 40 666 40 595 L40 500 L65 500 L65 595 C65 655 80 682 114 682 C148 682 163 655 163 595 C163 484 161 474 104 356 C43 229 40 216 40 105 L40 0 Z " />
<glyph glyph-name="three" unicode="3" horiz-adv-x="215" d="M30 106 C30 32 55 -5 104 -5 C152 -5 178 33 178 106 L178 298 C178 369 147 406 86 406 L180 676 L180 700 L36 700 L36 676 L155 676 L61 406 L61 382 L86 382 C132 382 153 355 153 298 L153 106 C153 46 138 18 104 18 C70 18 55 44 55 106 L55 229 L30 229 L30 106 Z " />
<glyph glyph-name="four" unicode="4" horiz-adv-x="214" d="M134 0 L159 0 L159 169 L199 169 L199 193 L159 193 L159 700 L127 700 L10 193 L10 169 L134 169 L134 0 Z M35 193 L135 640 L138 640 L134 193 L35 193 Z " />
<glyph glyph-name="five" unicode="5" horiz-adv-x="223" d="M35 106 C35 33 60 -5 109 -5 C157 -5 183 34 183 106 L183 371 C183 431 164 461 127 461 C103 461 84 448 70 423 L70 676 L183 676 L183 700 L45 700 L45 386 L73 386 C89 424 103 438 122 438 C146 438 158 416 158 371 L158 106 C158 45 143 18 109 18 C75 18 60 44 60 106 L60 229 L35 229 L35 106 Z " />
<glyph glyph-name="six" unicode="6" horiz-adv-x="243" d="M50 98 C50 30 76 -5 125 -5 C173 -5 198 31 198 98 L198 365 C198 428 176 461 135 461 C108 461 89 447 75 424 L75 605 C75 661 90 685 124 685 C158 685 173 660 173 605 L173 532 L198 532 L198 605 C198 671 173 705 124 705 C75 705 50 671 50 605 L50 98 Z M173 98 C173 43 158 18 125 18 C90 18 75 43 75 98 L75 385 C87 420 106 438 133 438 C161 438 173 417 173 365 L173 98 Z " />
<glyph glyph-name="seven" unicode="7" horiz-adv-x="182" d="M30 0 L55 0 L157 676 L157 700 L15 700 L15 676 L132 676 L30 0 Z " />
<glyph glyph-name="eight" unicode="8" horiz-adv-x="246" d="M45 98 C45 30 71 -5 123 -5 C174 -5 201 30 201 98 L201 262 C201 319 188 348 158 360 C181 369 195 405 195 456 L195 609 C195 673 171 705 123 705 C75 705 51 672 51 609 L51 456 C51 404 64 369 87 360 C58 348 45 318 45 262 L45 98 Z M176 98 C176 44 159 18 123 18 C87 18 70 43 70 98 L70 262 C70 320 85 349 123 349 C160 349 176 322 176 262 L176 98 Z M170 456 C170 398 156 372 123 372 C90 372 76 398 76 456 L76 609 C76 661 90 682 123 682 C156 682 170 660 170 609 L170 456 Z " />
<glyph glyph-name="nine" unicode="9" horiz-adv-x="243" d="M45 95 C45 29 70 -5 119 -5 C168 -5 193 29 193 95 L193 602 C193 670 167 705 118 705 C70 705 45 669 45 602 L45 335 C45 272 67 239 108 239 C135 239 154 253 168 276 L168 95 C168 39 153 15 119 15 C85 15 70 40 70 95 L70 168 L45 168 L45 95 Z M168 315 C156 280 137 262 110 262 C82 262 70 283 70 335 L70 602 C70 657 85 682 118 682 C153 682 168 657 168 602 L168 315 Z " />
<glyph glyph-name="colon" unicode="&#x3a;" horiz-adv-x="138" d="M69 -3 C87 -3 98 8 98 26 C98 45 87 55 69 55 C51 55 40 44 40 26 C40 8 51 -3 69 -3 L69 -3 Z M69 485 C87 485 98 496 98 514 C98 533 87 543 69 543 C51 543 40 532 40 514 C40 496 51 485 69 485 L69 485 Z " />
<glyph glyph-name="semicolon" unicode="&#x3b;" horiz-adv-x="138" d="M69 485 C87 485 98 496 98 514 C98 533 87 543 69 543 C51 543 40 532 40 514 C40 496 51 485 69 485 L69 485 Z M52 -108 C91 -8 91 -7 91 51 L58 51 C58 -7 58 -8 37 -108 L52 -108 Z " />
<glyph glyph-name="less" unicode="&#x3c;" horiz-adv-x="280" d="M25 309 L255 211 L255 239 L60 321 L255 405 L255 432 L25 333 L25 309 Z " />
<glyph glyph-name="equal" unicode="&#x3d;" horiz-adv-x="280" d="M20 269 L260 269 L260 292 L20 292 L20 269 Z M20 349 L260 349 L260 372 L20 372 L20 349 Z " />
<glyph glyph-name="greater" unicode="&#x3e;" horiz-adv-x="280" d="M25 211 L255 309 L255 333 L25 432 L25 405 L220 321 L25 239 L25 211 Z " />
<glyph glyph-name="question" unicode="&#x3f;" horiz-adv-x="210" d="M103 -3 C121 -3 132 8 132 26 C132 45 121 55 103 55 C85 55 74 44 74 26 C74 8 85 -3 103 -3 L103 -3 Z M88 146 L113 146 L113 150 C113 277 114 287 146 397 C179 510 180 517 180 595 C180 667 156 705 110 705 C64 705 40 667 40 595 L40 510 L65 510 L65 595 C65 656 79 682 110 682 C141 682 155 656 155 595 C155 518 153 510 124 409 C90 292 88 280 88 150 L88 146 Z " />
<glyph glyph-name="at" unicode="&#x40;" horiz-adv-x="432" d="M203 -75 C114 -75 74 -25 74 84 L74 438 C74 548 114 598 203 598 L234 598 C323 598 363 548 363 437 L363 115 C363 64 352 43 325 43 C298 43 287 67 287 120 L287 503 L273 503 L265 465 C253 493 235 505 210 505 C170 505 149 476 149 422 L149 102 C149 50 168 25 203 25 C233 25 254 43 267 77 C275 40 294 21 325 21 C366 21 387 53 387 115 L387 437 C387 558 335 620 234 620 L203 620 C102 620 50 558 50 437 L50 84 C50 -37 102 -97 203 -97 L287 -97 L287 -75 L203 -75 Z M263 117 C253 70 235 47 208 47 C184 47 173 63 173 102 L173 422 C173 465 185 483 209 483 C237 483 253 462 263 413 L263 117 Z " />
<glyph glyph-name="A" unicode="A" horiz-adv-x="247" d="M30 0 L54 0 L75 183 L173 183 L192 0 L217 0 L143 700 L114 700 L30 0 Z M78 206 L113 511 C117 545 123 606 126 642 L129 642 C131 606 136 550 140 510 L171 206 L78 206 Z " />
<glyph glyph-name="B" unicode="B" horiz-adv-x="243" d="M55 0 L103 0 C168 0 203 43 203 121 L203 249 C203 304 185 341 151 357 C184 374 201 410 201 464 L201 579 C201 657 166 700 101 700 L55 700 L55 0 Z M80 23 L80 345 L103 345 C155 345 178 314 178 250 L178 121 C178 53 155 23 103 23 L80 23 Z M80 368 L80 677 L101 677 C153 677 176 647 176 579 L176 463 C176 399 153 368 101 368 L80 368 Z " />
<glyph glyph-name="C" unicode="C" horiz-adv-x="235" d="M50 105 C50 33 75 -5 125 -5 C174 -5 200 34 200 105 L200 210 L175 210 L175 105 C175 44 160 18 125 18 C90 18 75 45 75 105 L75 594 C75 654 90 682 125 682 C160 682 175 654 175 594 L175 510 L200 510 L200 594 C200 666 174 705 125 705 C76 705 50 667 50 594 L50 105 Z " />
<glyph glyph-name="D" unicode="D" horiz-adv-x="262" d="M55 0 L120 0 C180 0 212 38 212 110 L212 589 C212 662 180 700 120 700 L55 700 L55 0 Z M80 23 L80 677 L120 677 C166 677 187 649 187 589 L187 110 C187 49 166 23 120 23 L80 23 Z " />
<glyph glyph-name="E" unicode="E" horiz-adv-x="206" d="M55 0 L186 0 L186 23 L80 23 L80 342 L175 342 L175 365 L80 365 L80 677 L184 677 L184 700 L55 700 L55 0 Z " />
<glyph glyph-name="F" unicode="F" horiz-adv-x="200" d="M55 0 L80 0 L80 349 L174 349 L174 372 L80 372 L80 677 L185 677 L185 700 L55 700 L55 0 Z " />
<glyph glyph-name="G" unicode="G" horiz-adv-x="249" d="M50 100 C50 30 76 -5 123 -5 C150 -5 170 7 181 31 L189 -5 L204 -5 L204 374 L129 374 L129 350 L179 350 L179 100 C179 44 163 18 127 18 C91 18 75 45 75 100 L75 599 C75 656 91 682 127 682 C163 682 179 656 179 599 L179 510 L204 510 L204 599 C204 668 177 705 127 705 C77 705 50 667 50 599 L50 100 Z " />
<glyph glyph-name="H" unicode="H" horiz-adv-x="270" d="M55 0 L80 0 L80 343 L190 343 L190 0 L215 0 L215 700 L190 700 L190 366 L80 366 L80 700 L55 700 L55 0 Z " />
<glyph glyph-name="I" unicode="I" horiz-adv-x="135" d="M55 0 L80 0 L80 700 L55 700 L55 0 Z " />
<glyph glyph-name="J" unicode="J" horiz-adv-x="135" d="M-35 -157 C-30 -159 -18 -160 -8 -160 C51 -160 80 -122 80 -49 L80 700 L55 700 L55 -49 C55 -110 37 -135 -6 -135 C-14 -135 -22 -134 -35 -132 L-35 -157 Z " />
<glyph glyph-name="K" unicode="K" horiz-adv-x="251" d="M55 0 L80 0 L80 339 L124 339 L211 0 L236 0 L146 352 L229 700 L205 700 L124 362 L80 362 L80 700 L55 700 L55 0 Z " />
<glyph glyph-name="L" unicode="L" horiz-adv-x="188" d="M55 0 L183 0 L183 23 L80 23 L80 700 L55 700 L55 0 Z " />
<glyph glyph-name="M" unicode="M" horiz-adv-x="340" d="M45 0 L69 0 L80 490 C81 536 82 607 82 646 L84 646 L156 139 L182 139 L256 646 L258 646 C258 607 259 542 260 490 L271 0 L295 0 L278 700 L243 700 L186 313 C180 274 174 226 170 190 L169 190 C165 226 159 274 153 313 L98 700 L62 700 L45 0 Z " />
<glyph glyph-name="N" unicode="N" horiz-adv-x="290" d="M55 0 L78 0 L78 488 C78 539 75 630 74 652 L77 652 L201 0 L235 0 L235 700 L212 700 L212 212 C212 161 214 77 216 47 L213 47 L89 700 L55 700 L55 0 Z " />
<glyph glyph-name="O" unicode="O" horiz-adv-x="260" d="M185 105 C185 44 168 18 130 18 C92 18 75 45 75 105 L75 594 C75 654 92 682 130 682 C168 682 185 654 185 594 L185 105 Z M50 105 C50 33 77 -5 130 -5 C182 -5 210 34 210 105 L210 594 C210 666 182 705 130 705 C78 705 50 667 50 594 L50 105 Z " />
<glyph glyph-name="P" unicode="P" horiz-adv-x="241" d="M55 0 L80 0 L80 297 L101 297 C166 297 201 340 201 418 L201 579 C201 657 166 700 101 700 L55 700 L55 0 Z M80 320 L80 677 L101 677 C153 677 176 647 176 579 L176 418 C176 350 153 320 101 320 L80 320 Z " />
<glyph glyph-name="Q" unicode="Q" horiz-adv-x="260" d="M117 -66 C117 -128 140 -160 183 -160 C194 -160 207 -158 210 -157 L210 -133 C205 -134 198 -135 190 -135 C156 -135 142 -115 142 -66 L142 -4 C186 1 210 40 210 105 L210 594 C210 666 182 705 130 705 C78 705 50 667 50 594 L50 105 C50 39 73 2 117 -4 L117 -66 Z M185 105 C185 44 168 18 130 18 C92 18 75 45 75 105 L75 594 C75 654 92 682 130 682 C168 682 185 654 185 594 L185 105 Z " />
<glyph glyph-name="R" unicode="R" horiz-adv-x="245" d="M55 0 L80 0 L80 311 C98 311 120 311 134 315 L185 0 L210 0 L157 326 C186 345 201 381 201 432 L201 579 C201 657 166 700 101 700 L55 700 L55 0 Z M80 334 L80 677 L101 677 C153 677 176 647 176 579 L176 432 C176 364 153 334 101 334 L80 334 Z " />
<glyph glyph-name="S" unicode="S" horiz-adv-x="212" d="M35 97 C35 30 59 -5 104 -5 C151 -5 177 34 177 105 C177 213 174 226 119 354 C66 475 64 485 64 595 C64 656 77 682 108 682 C139 682 152 658 152 604 L152 510 L177 510 L177 604 C177 671 154 705 109 705 C63 705 39 667 39 595 C39 482 42 473 98 340 C146 228 152 213 152 105 C152 46 137 18 105 18 C74 18 60 43 60 97 L60 210 L35 210 L35 97 Z " />
<glyph glyph-name="T" unicode="T" horiz-adv-x="187" d="M81 0 L106 0 L106 677 L172 677 L172 700 L15 700 L15 677 L81 677 L81 0 Z " />
<glyph glyph-name="U" unicode="U" horiz-adv-x="256" d="M50 104 C50 32 77 -5 128 -5 C179 -5 206 33 206 104 L206 700 L181 700 L181 104 C181 44 165 18 128 18 C91 18 75 44 75 104 L75 700 L50 700 L50 104 Z " />
<glyph glyph-name="V" unicode="V" horiz-adv-x="239" d="M97 0 L128 0 L214 700 L190 700 L129 189 C124 145 118 84 115 49 L112 49 C109 89 104 146 100 190 L50 700 L25 700 L97 0 Z " />
<glyph glyph-name="W" unicode="W" horiz-adv-x="410" d="M96 0 L127 0 L193 540 C197 575 201 622 203 649 L206 649 C207 623 210 575 214 540 L267 0 L298 0 L385 700 L361 700 L299 189 C294 147 288 89 285 53 L283 53 L221 700 L190 700 L113 53 L111 53 C106 125 103 160 100 190 L50 700 L25 700 L96 0 Z " />
<glyph glyph-name="X" unicode="X" horiz-adv-x="236" d="M20 0 L44 0 L114 321 L117 321 L191 0 L216 0 L131 355 L210 700 L186 700 L119 394 L116 394 L49 700 L24 700 L101 358 L20 0 Z " />
<glyph glyph-name="Y" unicode="Y" horiz-adv-x="230" d="M101 0 L126 0 L126 288 L215 701 L191 701 L116 346 L113 346 L41 700 L15 700 L101 288 L101 0 Z " />
<glyph glyph-name="Z" unicode="Z" horiz-adv-x="194" d="M25 0 L169 0 L169 23 L51 23 L169 677 L169 700 L30 700 L30 677 L145 677 L25 23 L25 0 Z " />
<glyph glyph-name="bracketleft" unicode="&#x5b;" horiz-adv-x="159" d="M60 -106 L149 -106 L149 -83 L85 -83 L85 697 L149 697 L149 720 L60 720 L60 -106 Z " />
<glyph glyph-name="backslash" unicode="&#x5c;" horiz-adv-x="165" d="M140 -80 L165 -80 L25 730 L0 730 L140 -80 Z " />
<glyph glyph-name="bracketright" unicode="&#x5d;" horiz-adv-x="159" d="M10 -106 L99 -106 L99 720 L10 720 L10 697 L74 697 L74 -83 L10 -83 L10 -106 Z " />
<glyph glyph-name="asciicircum" unicode="&#x5e;" horiz-adv-x="280" d="M30 460 L58 460 L140 665 L224 460 L251 460 L152 700 L128 700 L30 460 Z " />
<glyph glyph-name="underscore" unicode="&#x5f;" horiz-adv-x="200" d="M-20 -122 L220 -122 L220 -99 L-20 -99 L-20 -122 Z " />
<glyph glyph-name="grave" unicode="&#x60;" horiz-adv-x="105" d="M78 572 L95 572 L55 674 L10 674 L78 572 Z " />
<glyph glyph-name="a" unicode="a" horiz-adv-x="231" d="M45 81 C45 24 63 -5 98 -5 C125 -5 147 13 157 40 L166 -3 L181 -3 L181 458 C181 516 159 545 116 545 C74 545 51 515 51 458 L51 385 L75 385 L75 458 C75 504 87 523 116 523 C145 523 157 503 157 458 L157 325 L133 325 C74 325 45 288 45 217 L45 81 Z M157 81 C147 38 130 17 106 17 C81 17 69 38 69 81 L69 217 C69 276 88 303 133 303 L157 303 L157 81 Z " />
<glyph glyph-name="b" unicode="b" horiz-adv-x="243" d="M50 -3 L64 -3 L72 33 C83 8 102 -5 129 -5 C170 -5 198 28 198 88 L198 463 C198 516 176 545 135 545 C107 545 86 531 74 505 L74 700 L50 700 L50 -3 Z M174 88 C174 40 156 17 127 17 C97 17 82 40 74 81 L74 459 C84 502 102 523 131 523 C160 523 174 504 174 463 L174 88 Z " />
<glyph glyph-name="c" unicode="c" horiz-adv-x="217" d="M45 93 C45 29 70 -5 116 -5 C162 -5 187 30 187 93 L187 164 L163 164 L163 93 C163 41 148 17 116 17 C84 17 69 42 69 93 L69 447 C69 499 84 523 116 523 C148 523 163 498 163 447 L163 385 L187 385 L187 447 C187 509 162 545 116 545 C70 545 45 510 45 447 L45 93 Z " />
<glyph glyph-name="d" unicode="d" horiz-adv-x="243" d="M45 77 C45 24 67 -5 108 -5 C137 -5 158 10 170 37 L179 -3 L193 -3 L193 700 L169 700 L169 512 C157 534 139 545 114 545 C73 545 45 512 45 452 L45 77 Z M169 81 C159 38 141 17 112 17 C83 17 69 36 69 77 L69 452 C69 500 87 523 116 523 C146 523 161 500 169 459 L169 81 Z " />
<glyph glyph-name="e" unicode="e" horiz-adv-x="231" d="M45 93 C45 27 69 -5 116 -5 C165 -5 191 29 191 93 L191 164 L167 164 L167 93 C167 40 152 17 118 17 C85 17 69 41 69 93 L69 264 L191 264 L191 447 C191 512 166 545 118 545 C71 545 45 511 45 447 L45 93 Z M69 286 L69 447 C69 500 84 523 118 523 C151 523 167 499 167 447 L167 286 L69 286 Z " />
<glyph glyph-name="f" unicode="f" horiz-adv-x="149" d="M55 0 L79 0 L79 518 L148 518 L148 540 L79 540 L79 604 C79 656 93 678 127 678 C138 678 148 676 159 672 L159 695 C148 699 139 700 130 700 C80 700 55 666 55 604 L55 540 L15 533 L15 518 L55 518 L55 0 Z " />
<glyph glyph-name="g" unicode="g" horiz-adv-x="243" d="M48 -62 C48 -127 73 -160 121 -160 C168 -160 193 -126 193 -62 L193 543 L179 543 L170 503 C159 528 138 545 108 545 C67 545 45 516 45 463 L45 116 C45 63 67 34 106 34 C134 34 156 49 169 74 L169 -62 C169 -114 154 -138 121 -138 C87 -138 72 -114 72 -62 L72 -20 L48 -20 L48 -62 Z M169 120 C159 77 141 56 112 56 C83 56 69 75 69 116 L69 463 C69 504 83 523 111 523 C140 523 159 502 169 459 L169 120 Z " />
<glyph glyph-name="h" unicode="h" horiz-adv-x="248" d="M50 0 L74 0 L74 459 C84 502 102 523 131 523 C160 523 174 504 174 463 L174 0 L198 0 L198 463 C198 517 177 545 135 545 C107 545 87 532 74 505 L74 700 L50 700 L50 0 Z " />
<glyph glyph-name="i" unicode="i" horiz-adv-x="134" d="M55 0 L79 0 L79 540 L55 540 L55 0 Z M40 630 C40 612 51 603 67 603 C84 603 94 614 94 630 C94 647 84 657 67 657 C51 657 40 648 40 630 L40 630 Z " />
<glyph glyph-name="j" unicode="j" horiz-adv-x="134" d="M-25 -155 C-17 -158 -8 -160 4 -160 C54 -160 79 -126 79 -64 L79 540 L55 540 L55 -64 C55 -115 40 -136 5 -136 C-7 -136 -15 -134 -25 -131 L-25 -155 Z M40 630 C40 612 51 603 67 603 C84 603 94 614 94 630 C94 647 84 657 67 657 C51 657 40 648 40 630 L40 630 Z " />
<glyph glyph-name="k" unicode="k" horiz-adv-x="223" d="M50 0 L74 0 L74 264 L109 264 L184 0 L208 0 L130 275 L206 540 L182 540 L109 286 L74 286 L74 700 L50 700 L50 0 Z " />
<glyph glyph-name="l" unicode="l" horiz-adv-x="124" d="M50 0 L74 0 L74 700 L50 700 L50 0 Z " />
<glyph glyph-name="m" unicode="m" horiz-adv-x="372" d="M50 0 L74 0 L74 459 C84 502 102 523 131 523 C160 523 174 504 174 463 L174 0 L198 0 L198 459 C208 502 226 523 255 523 C284 523 298 504 298 463 L298 0 L322 0 L322 463 C322 517 301 545 259 545 C228 545 207 529 195 496 C187 529 167 545 135 545 C106 545 86 531 73 502 L65 543 L50 543 L50 0 Z " />
<glyph glyph-name="n" unicode="n" horiz-adv-x="248" d="M50 0 L74 0 L74 459 C84 502 102 523 131 523 C160 523 174 504 174 463 L174 0 L198 0 L198 463 C198 517 177 545 135 545 C106 545 86 531 73 502 L65 543 L50 543 L50 0 Z " />
<glyph glyph-name="o" unicode="o" horiz-adv-x="240" d="M45 94 C45 28 71 -5 120 -5 C169 -5 195 28 195 94 L195 446 C195 510 169 545 120 545 C71 545 45 511 45 446 L45 94 Z M171 94 C171 40 155 17 120 17 C85 17 69 41 69 94 L69 446 C69 498 85 523 120 523 C155 523 171 499 171 446 L171 94 Z " />
<glyph glyph-name="p" unicode="p" horiz-adv-x="243" d="M50 -160 L74 -160 L74 28 C86 6 104 -5 129 -5 C170 -5 198 28 198 88 L198 463 C198 516 176 545 135 545 C106 545 85 530 73 503 L64 543 L50 543 L50 -160 Z M174 88 C174 40 156 17 127 17 C97 17 82 40 74 81 L74 459 C84 502 102 523 131 523 C160 523 174 504 174 463 L174 88 Z " />
<glyph glyph-name="q" unicode="q" horiz-adv-x="243" d="M169 -160 L193 -160 L193 543 L179 543 L171 507 C160 532 141 545 114 545 C73 545 45 512 45 452 L45 77 C45 24 67 -5 108 -5 C136 -5 157 9 169 35 L169 -160 Z M169 81 C159 38 141 17 112 17 C83 17 69 36 69 77 L69 452 C69 500 87 523 116 523 C146 523 161 500 169 459 L169 81 Z " />
<glyph glyph-name="r" unicode="r" horiz-adv-x="156" d="M50 0 L74 0 L74 459 C84 502 102 523 131 523 C137 523 144 522 149 521 L151 544 C144 545 140 545 139 545 C108 545 86 531 73 502 L65 543 L50 543 L50 0 Z " />
<glyph glyph-name="s" unicode="s" horiz-adv-x="205" d="M35 93 C35 29 58 -5 101 -5 C146 -5 170 29 170 93 C170 184 168 190 110 286 C64 363 62 368 62 447 C62 499 75 523 104 523 C133 523 146 499 146 447 L146 370 L170 370 L170 447 C170 512 148 545 105 545 C61 545 38 510 38 447 C38 362 40 356 94 266 C143 184 146 179 146 93 C146 40 133 17 103 17 C73 17 59 41 59 93 L59 174 L35 174 L35 93 Z " />
<glyph glyph-name="t" unicode="t" horiz-adv-x="164" d="M55 89 C55 27 78 -3 124 -3 C138 -3 151 0 159 3 L159 26 C150 23 137 21 126 21 C93 21 79 43 79 95 L79 518 L148 518 L148 540 L79 540 L79 648 L65 648 L54 540 L15 533 L15 518 L55 518 L55 89 Z " />
<glyph glyph-name="u" unicode="u" horiz-adv-x="248" d="M50 77 C50 23 71 -5 113 -5 C142 -5 162 9 175 38 L183 -3 L198 -3 L198 540 L174 540 L174 81 C164 38 146 17 117 17 C88 17 74 36 74 77 L74 540 L50 540 L50 77 Z " />
<glyph glyph-name="v" unicode="v" horiz-adv-x="209" d="M87 0 L115 0 L194 540 L171 540 L121 190 C116 156 108 97 103 53 L101 53 C96 97 89 158 85 191 L39 540 L15 540 L87 0 Z " />
<glyph glyph-name="w" unicode="w" horiz-adv-x="332" d="M78 0 L108 0 L156 394 C160 427 164 470 166 501 L168 501 C170 471 176 396 178 375 L221 0 L250 0 L317 540 L295 540 L252 190 C246 143 241 95 236 47 L235 47 C231 92 224 156 220 191 L181 540 L154 540 L112 190 C107 150 100 91 95 47 L93 47 C89 92 83 156 79 191 L39 540 L15 540 L78 0 Z " />
<glyph glyph-name="x" unicode="x" horiz-adv-x="198" d="M15 0 L38 0 L99 246 L101 246 L158 0 L183 0 L117 277 L183 540 L160 540 L103 305 L102 305 L48 540 L23 540 L85 275 L15 0 Z " />
<glyph glyph-name="y" unicode="y" horiz-adv-x="210" d="M10 -155 C15 -158 25 -160 36 -160 C79 -160 101 -133 110 -65 L195 540 L172 540 L123 190 C119 162 112 105 107 62 L106 62 C101 105 94 160 90 191 L42 540 L18 540 L94 -10 L86 -65 C78 -120 65 -138 36 -138 C26 -138 19 -136 10 -133 L10 -155 Z " />
<glyph glyph-name="z" unicode="z" horiz-adv-x="183" d="M30 0 L153 0 L153 22 L54 22 L153 518 L153 540 L32 540 L32 518 L129 518 L30 22 L30 0 Z " />
<glyph glyph-name="braceleft" unicode="&#x7b;" horiz-adv-x="200" d="M190 -106 L190 -83 L170 -83 C120 -83 97 -50 97 22 L97 233 C97 275 82 298 49 306 L49 308 C82 316 97 339 97 381 L97 592 C97 664 120 697 170 697 L190 697 L190 720 L170 720 C105 720 72 677 72 592 L72 381 C72 340 57 320 24 320 L20 320 L20 294 L24 294 C57 294 72 274 72 233 L72 22 C72 -62 106 -106 170 -106 L190 -106 Z " />
<glyph glyph-name="bar" unicode="&#x7c;" horiz-adv-x="225" d="M100 -80 L125 -80 L125 730 L100 730 L100 -80 Z " />
<glyph glyph-name="braceright" unicode="&#x7d;" horiz-adv-x="200" d="M10 -106 L30 -106 C94 -106 128 -62 128 22 L128 233 C128 274 143 294 176 294 L180 294 L180 320 L176 320 C143 320 128 340 128 381 L128 592 C128 677 95 720 30 720 L10 720 L10 697 L30 697 C80 697 103 664 103 592 L103 381 C103 339 118 316 151 308 L151 306 C118 298 103 275 103 233 L103 22 C103 -50 80 -83 30 -83 L10 -83 L10 -106 Z " />
<glyph glyph-name="asciitilde" unicode="&#x7e;" horiz-adv-x="280" d="M20 301 C46 314 67 316 82 316 C101 316 118 313 139 308 C158 303 178 299 201 299 C223 299 241 303 260 315 L260 338 C240 329 223 323 200 323 C183 323 166 326 147 331 C127 336 105 340 82 340 C66 340 46 338 20 323 L20 301 Z " />
<glyph glyph-name="nbspace" unicode="&#xa0;" horiz-adv-x="140" d="" />
<glyph glyph-name="exclamdown" unicode="&#xa1;" horiz-adv-x="138" d="M40 514 C40 496 51 485 69 485 C87 485 98 495 98 514 C98 532 87 543 69 543 C51 543 40 532 40 514 L40 514 Z M54 -160 L84 -160 L84 0 L77 394 L61 394 L54 0 L54 -160 Z " />
<glyph glyph-name="cent" unicode="&#xa2;" horiz-adv-x="217" d="M105 -75 L127 -75 L127 -4 C166 1 187 35 187 93 L187 164 L163 164 L163 93 C163 41 148 17 116 17 C84 17 69 42 69 93 L69 447 C69 499 84 523 116 523 C148 523 163 498 163 447 L163 385 L187 385 L187 447 C187 504 166 539 127 544 L127 615 L105 615 L105 544 C66 539 45 505 45 447 L45 93 C45 34 66 1 105 -4 L105 -75 Z " />
<glyph glyph-name="sterling" unicode="&#xa3;" horiz-adv-x="225" d="M25 0 L205 0 L205 23 L80 23 L80 334 L170 334 L170 357 L80 357 L80 594 C80 654 95 682 130 682 C165 682 180 654 180 594 L180 510 L205 510 L205 594 C205 666 179 705 130 705 C81 705 55 667 55 594 L55 357 L25 357 L25 334 L55 334 L55 23 L25 23 L25 0 Z " />
<glyph glyph-name="currency" unicode="&#xa4;" horiz-adv-x="332" d="M30 225 L46 209 L87 251 C107 232 134 222 166 222 C198 222 225 232 244 251 L286 209 L302 225 L259 267 C273 288 281 314 281 345 C281 376 273 402 259 423 L302 465 L286 481 L244 439 C225 458 198 468 166 468 C134 468 107 458 87 439 L46 481 L30 465 L73 422 C59 402 51 376 51 345 C51 314 59 288 73 268 L30 225 Z M166 244 C112 244 75 285 75 345 C75 405 112 446 166 446 C220 446 257 405 257 345 C257 285 220 244 166 244 L166 244 Z " />
<glyph glyph-name="yen" unicode="&#xa5;" horiz-adv-x="230" d="M101 0 L126 0 L126 191 L191 191 L191 214 L126 214 L126 267 L191 267 L191 290 L126 290 L215 701 L191 701 L116 346 L113 346 L41 700 L15 700 L101 290 L36 290 L36 267 L101 267 L101 214 L36 214 L36 191 L101 191 L101 0 Z " />
<glyph glyph-name="brokenbar" unicode="&#xa6;" horiz-adv-x="225" d="M100 394 L125 394 L125 730 L100 730 L100 394 Z M100 -80 L125 -80 L125 256 L100 256 L100 -80 Z " />
<glyph glyph-name="section" unicode="&#xa7;" horiz-adv-x="233" d="M43 12 C43 -57 67 -92 114 -92 C161 -92 184 -57 184 8 C184 59 181 84 133 148 C191 211 198 229 198 286 C198 371 190 388 143 450 C77 537 74 554 74 605 C74 659 87 682 118 682 C151 682 165 658 165 601 L165 572 L190 572 L190 601 C190 670 166 705 119 705 C72 705 49 670 49 605 C49 554 52 529 100 465 C42 402 35 384 35 327 C35 242 43 225 90 163 C156 76 159 59 159 8 C159 -46 146 -69 115 -69 C82 -69 68 -45 68 12 L68 41 L43 41 L43 12 Z M120 164 C68 233 60 251 60 320 C60 378 66 393 113 449 C165 380 173 362 173 293 C173 235 167 220 120 164 L120 164 Z " />
<glyph glyph-name="dieresis" unicode="&#xa8;" horiz-adv-x="156" d="M35 605 C51 605 60 615 60 630 C60 646 51 655 35 655 C20 655 10 647 10 630 C10 613 20 605 35 605 L35 605 Z M121 605 C137 605 146 615 146 630 C146 646 137 655 121 655 C106 655 96 647 96 630 C96 613 106 605 121 605 L121 605 Z " />
<glyph glyph-name="copyright" unicode="&#xa9;" horiz-adv-x="731" d="M366 -15 C562 -15 691 128 691 343 C691 559 561 701 366 701 C170 701 40 558 40 343 C40 128 169 -15 366 -15 L366 -15 Z M366 8 C187 8 65 142 65 343 C65 545 186 678 366 678 C546 678 666 545 666 343 C666 142 545 8 366 8 L366 8 Z M295 208 C295 145 318 110 363 110 C407 110 430 144 430 210 L430 287 L405 287 L405 210 C405 156 392 133 363 133 C333 133 320 157 320 208 L320 488 C320 542 333 566 363 566 C392 566 405 542 405 488 L405 417 L430 417 L430 488 C430 554 407 589 363 589 C318 589 295 555 295 488 L295 208 Z " />
<glyph glyph-name="ordfeminine" unicode="&#xaa;" horiz-adv-x="201" d="M35 447 C35 397 52 372 85 372 C110 372 128 385 139 409 L146 374 L161 374 L161 624 C161 679 141 705 102 705 C62 705 41 678 41 624 L41 600 L65 600 L65 623 C65 664 76 683 101 683 C126 683 137 665 137 623 L137 562 L110 562 C61 562 35 532 35 474 L35 447 Z M59 474 C59 520 75 540 111 540 L137 540 L137 443 C132 414 113 394 90 394 C69 394 59 411 59 447 L59 474 Z " />
<glyph glyph-name="guillemotleft" unicode="&#xab;" horiz-adv-x="308" d="M135 108 L164 108 L74 263 L164 418 L135 418 L45 263 L135 108 Z M234 108 L263 108 L173 263 L263 418 L234 418 L144 263 L234 108 Z " />
<glyph glyph-name="logicalnot" unicode="&#xac;" horiz-adv-x="280" d="M20 315 L237 315 L237 261 L260 261 L260 338 L20 338 L20 315 Z " />
<glyph glyph-name="uni00AD" unicode="&#xad;" horiz-adv-x="200" d="M25 274 L175 274 L175 302 L25 302 L25 274 Z " />
<glyph glyph-name="registered" unicode="&#xae;" horiz-adv-x="731" d="M366 -15 C562 -15 691 128 691 343 C691 559 561 701 366 701 C170 701 40 558 40 343 C40 128 169 -15 366 -15 L366 -15 Z M366 8 C187 8 65 142 65 343 C65 545 186 678 366 678 C546 678 666 545 666 343 C666 142 545 8 366 8 L366 8 Z M313 109 L338 109 L338 315 C355 315 368 316 378 319 L420 109 L445 109 L401 329 C427 346 440 378 440 425 L440 474 C440 546 409 584 348 584 L313 584 L313 109 Z M338 338 L338 561 L348 561 C394 561 415 533 415 474 L415 425 C415 365 394 338 348 338 L338 338 Z " />
<glyph glyph-name="macron" unicode="&#xaf;" horiz-adv-x="156" d="M10 617 L146 617 L146 641 L10 641 L10 617 Z " />
<glyph glyph-name="degree" unicode="&#xb0;" horiz-adv-x="198" d="M15 622 C15 574 51 538 99 538 C146 538 183 575 183 622 C183 670 147 706 99 706 C51 706 15 670 15 622 L15 622 Z M99 561 C63 561 40 584 40 622 C40 660 63 683 99 683 C135 683 158 660 158 622 C158 584 135 561 99 561 L99 561 Z " />
<glyph glyph-name="plusminus" unicode="&#xb1;" horiz-adv-x="280" d="M20 182 L260 182 L260 205 L20 205 L20 182 Z M21 347 L129 347 L129 249 L152 249 L152 347 L260 347 L260 370 L152 370 L152 469 L129 469 L129 370 L21 370 L21 347 Z " />
<glyph glyph-name="uni00B2" unicode="&#xb2;" horiz-adv-x="185" d="M20 480 L160 480 L160 561 L136 561 L136 503 L46 503 C146 705 155 725 155 764 C155 823 133 855 89 855 C45 855 23 822 23 755 L23 731 L47 731 L47 755 C47 809 60 833 89 833 C118 833 131 811 131 763 C131 728 124 711 20 503 L20 480 Z " />
<glyph glyph-name="uni00B3" unicode="&#xb3;" horiz-adv-x="173" d="M20 566 C20 506 42 475 84 475 C126 475 148 507 148 566 L148 601 C148 662 122 693 72 693 L153 827 L153 850 L23 850 L23 827 L127 827 L46 693 L46 669 L73 669 C108 669 124 648 124 601 L124 566 C124 518 112 497 84 497 C56 497 44 518 44 566 L44 587 L20 587 L20 566 Z " />
<glyph glyph-name="acute" unicode="&#xb4;" horiz-adv-x="105" d="M10 572 L27 572 L95 674 L50 674 L10 572 Z " />
<glyph glyph-name="uni00B5" unicode="&#xb5;" horiz-adv-x="248" d="M50 -160 L74 -160 L74 23 C84 5 98 -5 118 -5 C143 -5 163 9 175 38 L183 -3 L198 -3 L198 540 L174 540 L174 81 C164 38 146 17 119 17 C88 17 74 44 74 106 L74 540 L50 540 L50 -160 Z " />
<glyph glyph-name="paragraph" unicode="&#xb6;" horiz-adv-x="274" d="M110 -80 L135 -80 L135 677 L194 677 L194 -80 L219 -80 L219 677 L239 677 L239 700 L110 700 C63 700 35 656 35 581 L35 512 C35 436 61 394 110 394 L110 -80 Z " />
<glyph glyph-name="periodcentered" unicode="&#xb7;" horiz-adv-x="140" d="M70 263 C88 263 99 274 99 292 C99 311 88 321 70 321 C52 321 41 310 41 292 C41 274 52 263 70 263 L70 263 Z " />
<glyph glyph-name="cedilla" unicode="&#xb8;" horiz-adv-x="119" d="M10 -139 C16 -143 29 -146 45 -146 C87 -146 109 -127 109 -92 C109 -59 91 -40 56 -38 L73 0 L52 4 L25 -58 L41 -58 C70 -58 84 -69 84 -92 C84 -114 71 -124 41 -124 C29 -124 17 -122 10 -118 L10 -139 Z " />
<glyph glyph-name="uni00B9" unicode="&#xb9;" horiz-adv-x="126" d="M57 480 L81 480 L81 850 L66 850 L15 820 L15 797 L57 819 L57 480 Z " />
<glyph glyph-name="ordmasculine" unicode="&#xba;" horiz-adv-x="194" d="M135 458 C135 416 123 396 97 396 C71 396 59 414 59 458 L59 620 C59 663 71 683 97 683 C123 683 135 663 135 620 L135 458 Z M35 458 C35 403 56 374 97 374 C138 374 159 403 159 458 L159 620 C159 676 138 705 97 705 C56 705 35 676 35 620 L35 458 Z " />
<glyph glyph-name="guillemotright" unicode="&#xbb;" horiz-adv-x="308" d="M144 108 L173 108 L263 263 L173 418 L144 418 L234 263 L144 108 Z M45 108 L74 108 L164 263 L74 418 L45 418 L135 263 L45 108 Z " />
<glyph glyph-name="onequarter" unicode="&#xbc;" horiz-adv-x="369" d="M72 330 L96 330 L96 700 L81 700 L30 670 L30 647 L72 669 L72 330 Z M65 0 L88 0 L255 700 L232 700 L65 0 Z M175 80 L275 80 L275 0 L299 0 L299 80 L329 80 L329 103 L299 103 L299 370 L268 370 L175 103 L175 80 Z M200 103 L276 333 L279 333 L275 103 L200 103 Z " />
<glyph glyph-name="onehalf" unicode="&#xbd;" horiz-adv-x="381" d="M72 330 L96 330 L96 700 L81 700 L30 670 L30 647 L72 669 L72 330 Z M66 0 L89 0 L256 700 L233 700 L66 0 Z M201 0 L341 0 L341 81 L317 81 L317 23 L227 23 C327 225 336 245 336 284 C336 343 314 375 270 375 C226 375 204 342 204 275 L204 251 L228 251 L228 275 C228 329 241 353 270 353 C299 353 312 331 312 283 C312 248 305 231 201 23 L201 0 Z " />
<glyph glyph-name="threequarters" unicode="&#xbe;" horiz-adv-x="430" d="M30 416 C30 356 52 325 94 325 C136 325 158 357 158 416 L158 451 C158 512 132 543 82 543 L163 677 L163 700 L33 700 L33 677 L137 677 L56 543 L56 519 L83 519 C118 519 134 498 134 451 L134 416 C134 368 122 347 94 347 C66 347 54 368 54 416 L54 437 L30 437 L30 416 Z M125 0 L148 0 L315 700 L292 700 L125 0 Z M236 80 L336 80 L336 0 L360 0 L360 80 L390 80 L390 103 L360 103 L360 370 L329 370 L236 103 L236 80 Z M261 103 L337 333 L340 333 L336 103 L261 103 Z " />
<glyph glyph-name="questiondown" unicode="&#xbf;" horiz-adv-x="210" d="M78 514 C78 495 89 485 107 485 C125 485 136 496 136 514 C136 532 125 543 107 543 C89 543 78 532 78 514 L78 514 Z M145 -55 C145 -116 131 -142 100 -142 C69 -142 55 -116 55 -55 C55 22 57 30 86 131 C120 248 122 260 122 390 L122 394 L97 394 L97 390 C97 263 96 253 64 143 C31 30 30 23 30 -55 C30 -127 54 -165 100 -165 C146 -165 170 -127 170 -55 L170 30 L145 30 L145 -55 Z " />
<glyph glyph-name="Agrave" unicode="&#xc0;" horiz-adv-x="247" d="M30 0 L54 0 L75 183 L173 183 L192 0 L217 0 L143 700 L114 700 L30 0 Z M78 206 L113 511 C117 545 123 606 126 642 L129 642 C131 606 136 550 140 510 L171 206 L78 206 Z M123 732 L140 732 L100 834 L55 834 L123 732 Z " />
<glyph glyph-name="Aacute" unicode="&#xc1;" horiz-adv-x="247" d="M30 0 L54 0 L75 183 L173 183 L192 0 L217 0 L143 700 L114 700 L30 0 Z M78 206 L113 511 C117 545 123 606 126 642 L129 642 C131 606 136 550 140 510 L171 206 L78 206 Z M121 732 L138 732 L206 834 L161 834 L121 732 Z " />
<glyph glyph-name="Acircumflex" unicode="&#xc2;" horiz-adv-x="247" d="M30 0 L54 0 L75 183 L173 183 L192 0 L217 0 L143 700 L114 700 L30 0 Z M78 206 L113 511 C117 545 123 606 126 642 L129 642 C131 606 136 550 140 510 L171 206 L78 206 Z M55 732 L72 732 L130 805 L187 732 L203 732 L146 834 L114 834 L55 732 Z " />
<glyph glyph-name="Atilde" unicode="&#xc3;" horiz-adv-x="247" d="M30 0 L54 0 L75 183 L173 183 L192 0 L217 0 L143 700 L114 700 L30 0 Z M78 206 L113 511 C117 545 123 606 126 642 L129 642 C131 606 136 550 140 510 L171 206 L78 206 Z M63 767 L88 767 C88 784 92 791 101 791 C107 791 112 788 121 782 C142 768 149 765 159 765 C182 765 195 779 195 809 L195 812 L170 812 C170 795 166 788 157 788 C151 788 147 790 136 797 C117 810 108 814 97 814 C76 814 63 799 63 770 L63 767 Z " />
<glyph glyph-name="Adieresis" unicode="&#xc4;" horiz-adv-x="247" d="M30 0 L54 0 L75 183 L173 183 L192 0 L217 0 L143 700 L114 700 L30 0 Z M78 206 L113 511 C117 545 123 606 126 642 L129 642 C131 606 136 550 140 510 L171 206 L78 206 Z M86 765 C102 765 111 775 111 790 C111 806 102 815 86 815 C71 815 61 807 61 790 C61 773 71 765 86 765 L86 765 Z M172 765 C188 765 197 775 197 790 C197 806 188 815 172 815 C157 815 147 807 147 790 C147 773 157 765 172 765 L172 765 Z " />
<glyph glyph-name="Aring" unicode="&#xc5;" horiz-adv-x="247" d="M30 0 L54 0 L75 183 L173 183 L192 0 L217 0 L143 700 L114 700 L30 0 Z M78 206 L113 511 C117 545 123 606 126 642 L129 642 C131 606 136 550 140 510 L171 206 L78 206 Z M129 751 C108 751 93 766 93 788 C93 810 108 825 129 825 C150 825 165 810 165 788 C165 766 150 751 129 751 L129 751 Z M70 788 C70 755 95 730 129 730 C163 730 188 754 188 788 C188 821 163 846 129 846 C95 846 70 821 70 788 L70 788 Z " />
<glyph glyph-name="AE" unicode="&#xc6;" horiz-adv-x="284" d="M0 0 L24 0 L57 195 L139 195 L139 0 L264 0 L264 23 L163 23 L163 342 L253 342 L253 365 L163 365 L163 677 L262 677 L262 700 L123 700 L0 0 Z M61 218 L115 531 C123 579 133 647 137 677 L139 677 L139 218 L61 218 Z " />
<glyph glyph-name="Ccedilla" unicode="&#xc7;" horiz-adv-x="235" d="M72 -139 C78 -143 91 -146 107 -146 C149 -146 171 -127 171 -92 C171 -59 153 -40 118 -38 L133 -5 C177 -1 200 38 200 105 L200 210 L175 210 L175 105 C175 44 160 18 125 18 C90 18 75 45 75 105 L75 594 C75 654 90 682 125 682 C160 682 175 654 175 594 L175 510 L200 510 L200 594 C200 666 174 705 125 705 C76 705 50 667 50 594 L50 105 C50 40 70 3 111 -4 L87 -58 L103 -58 C132 -58 146 -69 146 -92 C146 -114 133 -124 103 -124 C91 -124 79 -122 72 -118 L72 -139 Z " />
<glyph glyph-name="Egrave" unicode="&#xc8;" horiz-adv-x="206" d="M55 0 L186 0 L186 23 L80 23 L80 342 L175 342 L175 365 L80 365 L80 677 L184 677 L184 700 L55 700 L55 0 Z M114 732 L131 732 L91 834 L46 834 L114 732 Z " />
<glyph glyph-name="Eacute" unicode="&#xc9;" horiz-adv-x="206" d="M55 0 L186 0 L186 23 L80 23 L80 342 L175 342 L175 365 L80 365 L80 677 L184 677 L184 700 L55 700 L55 0 Z M112 732 L129 732 L197 834 L152 834 L112 732 Z " />
<glyph glyph-name="Ecircumflex" unicode="&#xca;" horiz-adv-x="206" d="M55 0 L186 0 L186 23 L80 23 L80 342 L175 342 L175 365 L80 365 L80 677 L184 677 L184 700 L55 700 L55 0 Z M46 732 L63 732 L121 805 L178 732 L194 732 L137 834 L105 834 L46 732 Z " />
<glyph glyph-name="Edieresis" unicode="&#xcb;" horiz-adv-x="206" d="M55 0 L186 0 L186 23 L80 23 L80 342 L175 342 L175 365 L80 365 L80 677 L184 677 L184 700 L55 700 L55 0 Z M77 765 C93 765 102 775 102 790 C102 806 93 815 77 815 C62 815 52 807 52 790 C52 773 62 765 77 765 L77 765 Z M163 765 C179 765 188 775 188 790 C188 806 179 815 163 815 C148 815 138 807 138 790 C138 773 148 765 163 765 L163 765 Z " />
<glyph glyph-name="Igrave" unicode="&#xcc;" horiz-adv-x="135" d="M55 0 L80 0 L80 700 L55 700 L55 0 Z M62 732 L79 732 L39 834 L-6 834 L62 732 Z " />
<glyph glyph-name="Iacute" unicode="&#xcd;" horiz-adv-x="135" d="M55 0 L80 0 L80 700 L55 700 L55 0 Z M60 732 L77 732 L145 834 L100 834 L60 732 Z " />
<glyph glyph-name="Icircumflex" unicode="&#xce;" horiz-adv-x="135" d="M55 0 L80 0 L80 700 L55 700 L55 0 Z M-6 732 L11 732 L69 805 L126 732 L142 732 L85 834 L53 834 L-6 732 Z " />
<glyph glyph-name="Idieresis" unicode="&#xcf;" horiz-adv-x="140" d="M57 0 L82 0 L82 700 L57 700 L57 0 Z M35 765 C51 765 60 775 60 790 C60 806 51 815 35 815 C20 815 10 807 10 790 C10 773 20 765 35 765 L35 765 Z M105 765 C121 765 130 775 130 790 C130 806 121 815 105 815 C90 815 80 807 80 790 C80 773 90 765 105 765 L105 765 Z " />
<glyph glyph-name="Eth" unicode="&#xd0;" horiz-adv-x="262" d="M55 0 L120 0 C180 0 212 38 212 110 L212 589 C212 662 180 700 120 700 L55 700 L55 365 L15 365 L15 342 L55 342 L55 0 Z M80 23 L80 342 L140 342 L140 365 L80 365 L80 677 L120 677 C166 677 187 649 187 589 L187 110 C187 49 166 23 120 23 L80 23 Z " />
<glyph glyph-name="Ntilde" unicode="&#xd1;" horiz-adv-x="290" d="M55 0 L78 0 L78 488 C78 539 75 630 74 652 L77 652 L201 0 L235 0 L235 700 L212 700 L212 212 C212 161 214 77 216 47 L213 47 L89 700 L55 700 L55 0 Z M79 767 L104 767 C104 784 108 791 117 791 C123 791 128 788 137 782 C158 768 165 765 175 765 C198 765 211 779 211 809 L211 812 L186 812 C186 795 182 788 173 788 C167 788 163 790 152 797 C133 810 124 814 113 814 C92 814 79 799 79 770 L79 767 Z " />
<glyph glyph-name="Ograve" unicode="&#xd2;" horiz-adv-x="260" d="M185 105 C185 44 168 18 130 18 C92 18 75 45 75 105 L75 594 C75 654 92 682 130 682 C168 682 185 654 185 594 L185 105 Z M50 105 C50 33 77 -5 130 -5 C182 -5 210 34 210 105 L210 594 C210 666 182 705 130 705 C78 705 50 667 50 594 L50 105 Z M124 732 L141 732 L101 834 L56 834 L124 732 Z " />
<glyph glyph-name="Oacute" unicode="&#xd3;" horiz-adv-x="260" d="M185 105 C185 44 168 18 130 18 C92 18 75 45 75 105 L75 594 C75 654 92 682 130 682 C168 682 185 654 185 594 L185 105 Z M50 105 C50 33 77 -5 130 -5 C182 -5 210 34 210 105 L210 594 C210 666 182 705 130 705 C78 705 50 667 50 594 L50 105 Z M122 732 L139 732 L207 834 L162 834 L122 732 Z " />
<glyph glyph-name="Ocircumflex" unicode="&#xd4;" horiz-adv-x="260" d="M185 105 C185 44 168 18 130 18 C92 18 75 45 75 105 L75 594 C75 654 92 682 130 682 C168 682 185 654 185 594 L185 105 Z M50 105 C50 33 77 -5 130 -5 C182 -5 210 34 210 105 L210 594 C210 666 182 705 130 705 C78 705 50 667 50 594 L50 105 Z M56 732 L73 732 L131 805 L188 732 L204 732 L147 834 L115 834 L56 732 Z " />
<glyph glyph-name="Otilde" unicode="&#xd5;" horiz-adv-x="260" d="M185 105 C185 44 168 18 130 18 C92 18 75 45 75 105 L75 594 C75 654 92 682 130 682 C168 682 185 654 185 594 L185 105 Z M50 105 C50 33 77 -5 130 -5 C182 -5 210 34 210 105 L210 594 C210 666 182 705 130 705 C78 705 50 667 50 594 L50 105 Z M64 767 L89 767 C89 784 93 791 102 791 C108 791 113 788 122 782 C143 768 150 765 160 765 C183 765 196 779 196 809 L196 812 L171 812 C171 795 167 788 158 788 C152 788 148 790 137 797 C118 810 109 814 98 814 C77 814 64 799 64 770 L64 767 Z " />
<glyph glyph-name="Odieresis" unicode="&#xd6;" horiz-adv-x="260" d="M185 105 C185 44 168 18 130 18 C92 18 75 45 75 105 L75 594 C75 654 92 682 130 682 C168 682 185 654 185 594 L185 105 Z M50 105 C50 33 77 -5 130 -5 C182 -5 210 34 210 105 L210 594 C210 666 182 705 130 705 C78 705 50 667 50 594 L50 105 Z M87 765 C103 765 112 775 112 790 C112 806 103 815 87 815 C72 815 62 807 62 790 C62 773 72 765 87 765 L87 765 Z M173 765 C189 765 198 775 198 790 C198 806 189 815 173 815 C158 815 148 807 148 790 C148 773 158 765 173 765 L173 765 Z " />
<glyph glyph-name="multiply" unicode="&#xd7;" horiz-adv-x="276" d="M45 250 L61 234 L138 311 L215 234 L231 250 L154 327 L231 403 L215 419 L138 342 L61 419 L45 403 L122 327 L45 250 Z " />
<glyph glyph-name="Oslash" unicode="&#xd8;" horiz-adv-x="260" d="M130 705 C78 705 50 667 50 594 L50 105 C50 75 55 51 64 33 L53 -30 L76 -30 L83 10 C95 0 111 -5 130 -5 C182 -5 210 34 210 105 L210 594 C210 625 205 649 196 667 L207 730 L184 730 L177 690 C165 700 149 705 130 705 L130 705 Z M77 96 L75 96 L75 594 C75 654 92 682 130 682 C149 682 163 675 172 661 L77 96 Z M183 604 L185 604 L185 105 C185 44 168 18 130 18 C111 18 97 25 88 39 L183 604 Z " />
<glyph glyph-name="Ugrave" unicode="&#xd9;" horiz-adv-x="256" d="M50 104 C50 32 77 -5 128 -5 C179 -5 206 33 206 104 L206 700 L181 700 L181 104 C181 44 165 18 128 18 C91 18 75 44 75 104 L75 700 L50 700 L50 104 Z M122 732 L139 732 L99 834 L54 834 L122 732 Z " />
<glyph glyph-name="Uacute" unicode="&#xda;" horiz-adv-x="256" d="M50 104 C50 32 77 -5 128 -5 C179 -5 206 33 206 104 L206 700 L181 700 L181 104 C181 44 165 18 128 18 C91 18 75 44 75 104 L75 700 L50 700 L50 104 Z M120 732 L137 732 L205 834 L160 834 L120 732 Z " />
<glyph glyph-name="Ucircumflex" unicode="&#xdb;" horiz-adv-x="256" d="M50 104 C50 32 77 -5 128 -5 C179 -5 206 33 206 104 L206 700 L181 700 L181 104 C181 44 165 18 128 18 C91 18 75 44 75 104 L75 700 L50 700 L50 104 Z M54 732 L71 732 L129 805 L186 732 L202 732 L145 834 L113 834 L54 732 Z " />
<glyph glyph-name="Udieresis" unicode="&#xdc;" horiz-adv-x="256" d="M50 104 C50 32 77 -5 128 -5 C179 -5 206 33 206 104 L206 700 L181 700 L181 104 C181 44 165 18 128 18 C91 18 75 44 75 104 L75 700 L50 700 L50 104 Z M85 765 C101 765 110 775 110 790 C110 806 101 815 85 815 C70 815 60 807 60 790 C60 773 70 765 85 765 L85 765 Z M171 765 C187 765 196 775 196 790 C196 806 187 815 171 815 C156 815 146 807 146 790 C146 773 156 765 171 765 L171 765 Z " />
<glyph glyph-name="Yacute" unicode="&#xdd;" horiz-adv-x="230" d="M101 0 L126 0 L126 288 L215 701 L191 701 L116 346 L113 346 L41 700 L15 700 L101 288 L101 0 Z M107 732 L124 732 L192 834 L147 834 L107 732 Z " />
<glyph glyph-name="Thorn" unicode="&#xde;" horiz-adv-x="236" d="M55 0 L80 0 L80 157 L101 157 C166 157 201 200 201 278 L201 449 C201 527 166 570 101 570 L80 570 L80 700 L55 700 L55 0 Z M80 180 L80 547 L101 547 C153 547 176 517 176 449 L176 278 C176 210 153 180 101 180 L80 180 Z " />
<glyph glyph-name="germandbls" unicode="&#xdf;" horiz-adv-x="242" d="M50 0 L74 0 L74 601 C74 653 89 678 123 678 C157 678 172 654 172 601 L172 468 C172 406 151 379 104 379 L104 357 C156 357 178 331 178 268 L178 91 C178 41 163 19 130 19 C119 19 111 21 101 24 L101 0 C109 -3 118 -5 129 -5 C177 -5 202 28 202 91 L202 268 C202 319 184 354 150 369 C180 385 196 420 196 468 L196 601 C196 666 171 700 123 700 C75 700 50 666 50 601 L50 0 Z " />
<glyph glyph-name="agrave" unicode="&#xe0;" horiz-adv-x="231" d="M45 81 C45 24 63 -5 98 -5 C125 -5 147 13 157 40 L166 -3 L181 -3 L181 458 C181 516 159 545 116 545 C74 545 51 515 51 458 L51 385 L75 385 L75 458 C75 504 87 523 116 523 C145 523 157 503 157 458 L157 325 L133 325 C74 325 45 288 45 217 L45 81 Z M157 81 C147 38 130 17 106 17 C81 17 69 38 69 81 L69 217 C69 276 88 303 133 303 L157 303 L157 81 Z M110 572 L127 572 L87 674 L42 674 L110 572 Z " />
<glyph glyph-name="aacute" unicode="&#xe1;" horiz-adv-x="231" d="M45 81 C45 24 63 -5 98 -5 C125 -5 147 13 157 40 L166 -3 L181 -3 L181 458 C181 516 159 545 116 545 C74 545 51 515 51 458 L51 385 L75 385 L75 458 C75 504 87 523 116 523 C145 523 157 503 157 458 L157 325 L133 325 C74 325 45 288 45 217 L45 81 Z M157 81 C147 38 130 17 106 17 C81 17 69 38 69 81 L69 217 C69 276 88 303 133 303 L157 303 L157 81 Z M108 572 L125 572 L193 674 L148 674 L108 572 Z " />
<glyph glyph-name="acircumflex" unicode="&#xe2;" horiz-adv-x="231" d="M45 81 C45 24 63 -5 98 -5 C125 -5 147 13 157 40 L166 -3 L181 -3 L181 458 C181 516 159 545 116 545 C74 545 51 515 51 458 L51 385 L75 385 L75 458 C75 504 87 523 116 523 C145 523 157 503 157 458 L157 325 L133 325 C74 325 45 288 45 217 L45 81 Z M157 81 C147 38 130 17 106 17 C81 17 69 38 69 81 L69 217 C69 276 88 303 133 303 L157 303 L157 81 Z M42 572 L59 572 L117 645 L174 572 L190 572 L133 674 L101 674 L42 572 Z " />
<glyph glyph-name="atilde" unicode="&#xe3;" horiz-adv-x="231" d="M45 81 C45 24 63 -5 98 -5 C125 -5 147 13 157 40 L166 -3 L181 -3 L181 458 C181 516 159 545 116 545 C74 545 51 515 51 458 L51 385 L75 385 L75 458 C75 504 87 523 116 523 C145 523 157 503 157 458 L157 325 L133 325 C74 325 45 288 45 217 L45 81 Z M157 81 C147 38 130 17 106 17 C81 17 69 38 69 81 L69 217 C69 276 88 303 133 303 L157 303 L157 81 Z M50 607 L75 607 C75 624 79 631 88 631 C94 631 99 628 108 622 C129 608 136 605 146 605 C169 605 182 619 182 649 L182 652 L157 652 C157 635 153 628 144 628 C138 628 134 630 123 637 C104 650 95 654 84 654 C63 654 50 639 50 610 L50 607 Z " />
<glyph glyph-name="adieresis" unicode="&#xe4;" horiz-adv-x="231" d="M45 81 C45 24 63 -5 98 -5 C125 -5 147 13 157 40 L166 -3 L181 -3 L181 458 C181 516 159 545 116 545 C74 545 51 515 51 458 L51 385 L75 385 L75 458 C75 504 87 523 116 523 C145 523 157 503 157 458 L157 325 L133 325 C74 325 45 288 45 217 L45 81 Z M157 81 C147 38 130 17 106 17 C81 17 69 38 69 81 L69 217 C69 276 88 303 133 303 L157 303 L157 81 Z M73 605 C89 605 98 615 98 630 C98 646 89 655 73 655 C58 655 48 647 48 630 C48 613 58 605 73 605 L73 605 Z M159 605 C175 605 184 615 184 630 C184 646 175 655 159 655 C144 655 134 647 134 630 C134 613 144 605 159 605 L159 605 Z " />
<glyph glyph-name="aring" unicode="&#xe5;" horiz-adv-x="231" d="M45 81 C45 24 63 -5 98 -5 C125 -5 147 13 157 40 L166 -3 L181 -3 L181 458 C181 516 159 545 116 545 C74 545 51 515 51 458 L51 385 L75 385 L75 458 C75 504 87 523 116 523 C145 523 157 503 157 458 L157 325 L133 325 C74 325 45 288 45 217 L45 81 Z M157 81 C147 38 130 17 106 17 C81 17 69 38 69 81 L69 217 C69 276 88 303 133 303 L157 303 L157 81 Z M116 591 C95 591 80 606 80 628 C80 650 95 665 116 665 C137 665 152 650 152 628 C152 606 137 591 116 591 L116 591 Z M57 628 C57 595 82 570 116 570 C150 570 175 594 175 628 C175 661 150 686 116 686 C82 686 57 661 57 628 L57 628 Z " />
<glyph glyph-name="ae" unicode="&#xe6;" horiz-adv-x="344" d="M45 91 C45 27 67 -5 112 -5 C142 -5 162 9 174 31 C184 7 204 -5 232 -5 C280 -5 304 29 304 93 L304 164 L280 164 L280 93 C280 40 267 17 233 17 C200 17 186 40 186 91 L186 279 L304 279 L304 447 C304 512 281 545 234 545 C207 545 188 534 176 512 C166 534 147 545 119 545 C74 545 51 515 51 458 L51 385 L75 385 L75 458 C75 504 88 523 120 523 C151 523 163 503 163 458 L163 301 L136 301 C75 301 45 265 45 197 L45 91 Z M163 91 C163 40 150 17 117 17 C83 17 69 40 69 91 L69 197 C69 252 89 279 136 279 L163 279 L163 91 Z M186 301 L186 447 C186 500 199 523 233 523 C266 523 280 499 280 447 L280 301 L186 301 Z " />
<glyph glyph-name="ccedilla" unicode="&#xe7;" horiz-adv-x="217" d="M62 -139 C68 -143 81 -146 97 -146 C139 -146 161 -127 161 -92 C161 -59 143 -40 108 -38 L123 -5 C164 -1 187 33 187 93 L187 164 L163 164 L163 93 C163 41 148 17 116 17 C84 17 69 42 69 93 L69 447 C69 499 84 523 116 523 C148 523 163 498 163 447 L163 385 L187 385 L187 447 C187 509 162 545 116 545 C70 545 45 510 45 447 L45 93 C45 37 64 3 101 -4 L77 -58 L93 -58 C122 -58 136 -69 136 -92 C136 -114 123 -124 93 -124 C81 -124 69 -122 62 -118 L62 -139 Z " />
<glyph glyph-name="egrave" unicode="&#xe8;" horiz-adv-x="231" d="M45 93 C45 27 69 -5 116 -5 C165 -5 191 29 191 93 L191 164 L167 164 L167 93 C167 40 152 17 118 17 C85 17 69 41 69 93 L69 264 L191 264 L191 447 C191 512 166 545 118 545 C71 545 45 511 45 447 L45 93 Z M69 286 L69 447 C69 500 84 523 118 523 C151 523 167 499 167 447 L167 286 L69 286 Z M112 572 L129 572 L89 674 L44 674 L112 572 Z " />
<glyph glyph-name="eacute" unicode="&#xe9;" horiz-adv-x="231" d="M45 93 C45 27 69 -5 116 -5 C165 -5 191 29 191 93 L191 164 L167 164 L167 93 C167 40 152 17 118 17 C85 17 69 41 69 93 L69 264 L191 264 L191 447 C191 512 166 545 118 545 C71 545 45 511 45 447 L45 93 Z M69 286 L69 447 C69 500 84 523 118 523 C151 523 167 499 167 447 L167 286 L69 286 Z M110 572 L127 572 L195 674 L150 674 L110 572 Z " />
<glyph glyph-name="ecircumflex" unicode="&#xea;" horiz-adv-x="231" d="M45 93 C45 27 69 -5 116 -5 C165 -5 191 29 191 93 L191 164 L167 164 L167 93 C167 40 152 17 118 17 C85 17 69 41 69 93 L69 264 L191 264 L191 447 C191 512 166 545 118 545 C71 545 45 511 45 447 L45 93 Z M69 286 L69 447 C69 500 84 523 118 523 C151 523 167 499 167 447 L167 286 L69 286 Z M44 572 L61 572 L119 645 L176 572 L192 572 L135 674 L103 674 L44 572 Z " />
<glyph glyph-name="edieresis" unicode="&#xeb;" horiz-adv-x="231" d="M45 93 C45 27 69 -5 116 -5 C165 -5 191 29 191 93 L191 164 L167 164 L167 93 C167 40 152 17 118 17 C85 17 69 41 69 93 L69 264 L191 264 L191 447 C191 512 166 545 118 545 C71 545 45 511 45 447 L45 93 Z M69 286 L69 447 C69 500 84 523 118 523 C151 523 167 499 167 447 L167 286 L69 286 Z M75 605 C91 605 100 615 100 630 C100 646 91 655 75 655 C60 655 50 647 50 630 C50 613 60 605 75 605 L75 605 Z M161 605 C177 605 186 615 186 630 C186 646 177 655 161 655 C146 655 136 647 136 630 C136 613 146 605 161 605 L161 605 Z " />
<glyph glyph-name="igrave" unicode="&#xec;" horiz-adv-x="124" d="M50 0 L74 0 L74 540 L50 540 L50 0 Z M56 572 L73 572 L33 674 L-12 674 L56 572 Z " />
<glyph glyph-name="iacute" unicode="&#xed;" horiz-adv-x="124" d="M50 0 L74 0 L74 540 L50 540 L50 0 Z M54 572 L71 572 L139 674 L94 674 L54 572 Z " />
<glyph glyph-name="icircumflex" unicode="&#xee;" horiz-adv-x="124" d="M50 0 L74 0 L74 540 L50 540 L50 0 Z M-12 572 L5 572 L63 645 L120 572 L136 572 L79 674 L47 674 L-12 572 Z " />
<glyph glyph-name="idieresis" unicode="&#xef;" horiz-adv-x="120" d="M48 0 L72 0 L72 540 L48 540 L48 0 Z M25 605 C41 605 50 615 50 630 C50 646 41 655 25 655 C10 655 0 647 0 630 C0 613 10 605 25 605 L25 605 Z M95 605 C111 605 120 615 120 630 C120 646 111 655 95 655 C80 655 70 647 70 630 C70 613 80 605 95 605 L95 605 Z " />
<glyph glyph-name="eth" unicode="&#xf0;" horiz-adv-x="234" d="M45 91 C45 28 70 -5 117 -5 C164 -5 189 29 189 91 L189 420 C189 480 178 528 148 595 L189 595 L189 617 L138 617 C127 642 113 670 97 700 L72 700 C88 668 103 638 114 617 L55 617 L55 595 L124 595 C141 557 152 528 158 497 C146 514 127 525 104 525 C65 525 45 497 45 443 L45 91 Z M165 91 C165 41 150 17 117 17 C84 17 69 39 69 91 L69 443 C69 484 82 503 108 503 C137 503 155 481 165 440 L165 91 Z " />
<glyph glyph-name="ntilde" unicode="&#xf1;" horiz-adv-x="248" d="M50 0 L74 0 L74 459 C84 502 102 523 131 523 C160 523 174 504 174 463 L174 0 L198 0 L198 463 C198 517 177 545 135 545 C106 545 86 531 73 502 L65 543 L50 543 L50 0 Z M58 607 L83 607 C83 624 87 631 96 631 C102 631 107 628 116 622 C137 608 144 605 154 605 C177 605 190 619 190 649 L190 652 L165 652 C165 635 161 628 152 628 C146 628 142 630 131 637 C112 650 103 654 92 654 C71 654 58 639 58 610 L58 607 Z " />
<glyph glyph-name="ograve" unicode="&#xf2;" horiz-adv-x="240" d="M45 94 C45 28 71 -5 120 -5 C169 -5 195 28 195 94 L195 446 C195 510 169 545 120 545 C71 545 45 511 45 446 L45 94 Z M171 94 C171 40 155 17 120 17 C85 17 69 41 69 94 L69 446 C69 498 85 523 120 523 C155 523 171 499 171 446 L171 94 Z M114 572 L131 572 L91 674 L46 674 L114 572 Z " />
<glyph glyph-name="oacute" unicode="&#xf3;" horiz-adv-x="240" d="M45 94 C45 28 71 -5 120 -5 C169 -5 195 28 195 94 L195 446 C195 510 169 545 120 545 C71 545 45 511 45 446 L45 94 Z M171 94 C171 40 155 17 120 17 C85 17 69 41 69 94 L69 446 C69 498 85 523 120 523 C155 523 171 499 171 446 L171 94 Z M112 572 L129 572 L197 674 L152 674 L112 572 Z " />
<glyph glyph-name="ocircumflex" unicode="&#xf4;" horiz-adv-x="240" d="M45 94 C45 28 71 -5 120 -5 C169 -5 195 28 195 94 L195 446 C195 510 169 545 120 545 C71 545 45 511 45 446 L45 94 Z M171 94 C171 40 155 17 120 17 C85 17 69 41 69 94 L69 446 C69 498 85 523 120 523 C155 523 171 499 171 446 L171 94 Z M46 572 L63 572 L121 645 L178 572 L194 572 L137 674 L105 674 L46 572 Z " />
<glyph glyph-name="otilde" unicode="&#xf5;" horiz-adv-x="240" d="M45 94 C45 28 71 -5 120 -5 C169 -5 195 28 195 94 L195 446 C195 510 169 545 120 545 C71 545 45 511 45 446 L45 94 Z M171 94 C171 40 155 17 120 17 C85 17 69 41 69 94 L69 446 C69 498 85 523 120 523 C155 523 171 499 171 446 L171 94 Z M54 607 L79 607 C79 624 83 631 92 631 C98 631 103 628 112 622 C133 608 140 605 150 605 C173 605 186 619 186 649 L186 652 L161 652 C161 635 157 628 148 628 C142 628 138 630 127 637 C108 650 99 654 88 654 C67 654 54 639 54 610 L54 607 Z " />
<glyph glyph-name="odieresis" unicode="&#xf6;" horiz-adv-x="240" d="M45 94 C45 28 71 -5 120 -5 C169 -5 195 28 195 94 L195 446 C195 510 169 545 120 545 C71 545 45 511 45 446 L45 94 Z M171 94 C171 40 155 17 120 17 C85 17 69 41 69 94 L69 446 C69 498 85 523 120 523 C155 523 171 499 171 446 L171 94 Z M77 605 C93 605 102 615 102 630 C102 646 93 655 77 655 C62 655 52 647 52 630 C52 613 62 605 77 605 L77 605 Z M163 605 C179 605 188 615 188 630 C188 646 179 655 163 655 C148 655 138 647 138 630 C138 613 148 605 163 605 L163 605 Z " />
<glyph glyph-name="divide" unicode="&#xf7;" horiz-adv-x="280" d="M20 315 L260 315 L260 338 L20 338 L20 315 Z M140 398 C157 398 167 409 167 425 C167 442 157 452 140 452 C124 452 113 443 113 425 C113 407 124 398 140 398 L140 398 Z M140 201 C157 201 167 212 167 228 C167 245 157 255 140 255 C124 255 113 246 113 228 C113 210 124 201 140 201 L140 201 Z " />
<glyph glyph-name="oslash" unicode="&#xf8;" horiz-adv-x="240" d="M45 -30 L67 -30 L75 9 C87 0 102 -5 120 -5 C169 -5 195 28 195 94 L195 446 C195 472 191 494 182 510 L195 570 L173 570 L165 531 C153 540 138 545 120 545 C71 545 45 511 45 446 L45 94 C45 67 49 46 58 30 L45 -30 Z M69 87 L69 446 C69 498 85 523 120 523 C138 523 151 517 159 504 L71 87 L69 87 Z M171 94 C171 40 155 17 120 17 C102 17 89 23 81 36 L169 454 L171 454 L171 94 Z " />
<glyph glyph-name="ugrave" unicode="&#xf9;" horiz-adv-x="248" d="M50 77 C50 23 71 -5 113 -5 C142 -5 162 9 175 38 L183 -3 L198 -3 L198 540 L174 540 L174 81 C164 38 146 17 117 17 C88 17 74 36 74 77 L74 540 L50 540 L50 77 Z M118 572 L135 572 L95 674 L50 674 L118 572 Z " />
<glyph glyph-name="uacute" unicode="&#xfa;" horiz-adv-x="248" d="M50 77 C50 23 71 -5 113 -5 C142 -5 162 9 175 38 L183 -3 L198 -3 L198 540 L174 540 L174 81 C164 38 146 17 117 17 C88 17 74 36 74 77 L74 540 L50 540 L50 77 Z M116 572 L133 572 L201 674 L156 674 L116 572 Z " />
<glyph glyph-name="ucircumflex" unicode="&#xfb;" horiz-adv-x="248" d="M50 77 C50 23 71 -5 113 -5 C142 -5 162 9 175 38 L183 -3 L198 -3 L198 540 L174 540 L174 81 C164 38 146 17 117 17 C88 17 74 36 74 77 L74 540 L50 540 L50 77 Z M50 572 L67 572 L125 645 L182 572 L198 572 L141 674 L109 674 L50 572 Z " />
<glyph glyph-name="udieresis" unicode="&#xfc;" horiz-adv-x="248" d="M50 77 C50 23 71 -5 113 -5 C142 -5 162 9 175 38 L183 -3 L198 -3 L198 540 L174 540 L174 81 C164 38 146 17 117 17 C88 17 74 36 74 77 L74 540 L50 540 L50 77 Z M81 605 C97 605 106 615 106 630 C106 646 97 655 81 655 C66 655 56 647 56 630 C56 613 66 605 81 605 L81 605 Z M167 605 C183 605 192 615 192 630 C192 646 183 655 167 655 C152 655 142 647 142 630 C142 613 152 605 167 605 L167 605 Z " />
<glyph glyph-name="yacute" unicode="&#xfd;" horiz-adv-x="210" d="M10 -155 C15 -158 25 -160 36 -160 C79 -160 101 -133 110 -65 L195 540 L172 540 L123 190 C119 162 112 105 107 62 L106 62 C101 105 94 160 90 191 L42 540 L18 540 L94 -10 L86 -65 C78 -120 65 -138 36 -138 C26 -138 19 -136 10 -133 L10 -155 Z M98 572 L115 572 L183 674 L138 674 L98 572 Z " />
<glyph glyph-name="thorn" unicode="&#xfe;" horiz-adv-x="243" d="M50 -160 L74 -160 L74 28 C86 6 104 -5 129 -5 C170 -5 198 28 198 88 L198 463 C198 516 176 545 135 545 C107 545 86 531 74 505 L74 700 L50 700 L50 -160 Z M174 88 C174 40 156 17 127 17 C97 17 82 40 74 81 L74 459 C84 502 102 523 131 523 C160 523 174 504 174 463 L174 88 Z " />
<glyph glyph-name="ydieresis" unicode="&#xff;" horiz-adv-x="210" d="M10 -155 C15 -158 25 -160 36 -160 C79 -160 101 -133 110 -65 L195 540 L172 540 L123 190 C119 162 112 105 107 62 L106 62 C101 105 94 160 90 191 L42 540 L18 540 L94 -10 L86 -65 C78 -120 65 -138 36 -138 C26 -138 19 -136 10 -133 L10 -155 Z M63 605 C79 605 88 615 88 630 C88 646 79 655 63 655 C48 655 38 647 38 630 C38 613 48 605 63 605 L63 605 Z M149 605 C165 605 174 615 174 630 C174 646 165 655 149 655 C134 655 124 647 124 630 C124 613 134 605 149 605 L149 605 Z " />
<glyph glyph-name="Amacron" unicode="&#x100;" horiz-adv-x="247" d="M30 0 L54 0 L75 183 L173 183 L192 0 L217 0 L143 700 L114 700 L30 0 Z M78 206 L113 511 C117 545 123 606 126 642 L129 642 C131 606 136 550 140 510 L171 206 L78 206 Z M61 777 L197 777 L197 801 L61 801 L61 777 Z " />
<glyph glyph-name="amacron" unicode="&#x101;" horiz-adv-x="231" d="M45 81 C45 24 63 -5 98 -5 C125 -5 147 13 157 40 L166 -3 L181 -3 L181 458 C181 516 159 545 116 545 C74 545 51 515 51 458 L51 385 L75 385 L75 458 C75 504 87 523 116 523 C145 523 157 503 157 458 L157 325 L133 325 C74 325 45 288 45 217 L45 81 Z M157 81 C147 38 130 17 106 17 C81 17 69 38 69 81 L69 217 C69 276 88 303 133 303 L157 303 L157 81 Z M48 617 L184 617 L184 641 L48 641 L48 617 Z " />
<glyph glyph-name="Abreve" unicode="&#x102;" horiz-adv-x="247" d="M30 0 L54 0 L75 183 L173 183 L192 0 L217 0 L143 700 L114 700 L30 0 Z M78 206 L113 511 C117 545 123 606 126 642 L129 642 C131 606 136 550 140 510 L171 206 L78 206 Z M67 815 C67 770 88 747 129 747 C170 747 191 770 191 815 L191 818 L167 818 L167 815 C167 785 155 770 129 770 C103 770 91 785 91 815 L91 818 L67 818 L67 815 Z " />
<glyph glyph-name="abreve" unicode="&#x103;" horiz-adv-x="231" d="M45 81 C45 24 63 -5 98 -5 C125 -5 147 13 157 40 L166 -3 L181 -3 L181 458 C181 516 159 545 116 545 C74 545 51 515 51 458 L51 385 L75 385 L75 458 C75 504 87 523 116 523 C145 523 157 503 157 458 L157 325 L133 325 C74 325 45 288 45 217 L45 81 Z M157 81 C147 38 130 17 106 17 C81 17 69 38 69 81 L69 217 C69 276 88 303 133 303 L157 303 L157 81 Z M54 655 C54 610 75 587 116 587 C157 587 178 610 178 655 L178 658 L154 658 L154 655 C154 625 142 610 116 610 C90 610 78 625 78 655 L78 658 L54 658 L54 655 Z " />
<glyph glyph-name="Aogonek" unicode="&#x104;" horiz-adv-x="247" d="M30 0 L54 0 L75 183 L173 183 L192 0 L193 0 C144 -25 120 -53 120 -89 C120 -124 143 -145 182 -145 C194 -145 204 -143 215 -139 L215 -117 C199 -122 191 -123 184 -123 C159 -123 145 -110 145 -84 C145 -57 161 -38 217 0 L143 700 L114 700 L30 0 Z M78 206 L113 511 C117 545 123 606 126 642 L129 642 C131 606 136 550 140 510 L171 206 L78 206 Z " />
<glyph glyph-name="aogonek" unicode="&#x105;" horiz-adv-x="231" d="M181 -117 C165 -122 157 -123 150 -123 C125 -123 111 -110 111 -86 C111 -58 132 -39 181 0 L181 458 C181 516 159 545 116 545 C74 545 51 515 51 458 L51 385 L75 385 L75 458 C75 504 87 523 116 523 C145 523 157 503 157 458 L157 325 L133 325 C74 325 45 288 45 217 L45 81 C45 24 63 -5 98 -5 C126 -5 147 14 158 41 L164 10 C111 -29 86 -54 86 -89 C86 -124 109 -145 148 -145 C160 -145 170 -143 181 -139 L181 -117 Z M157 81 C147 38 130 17 106 17 C81 17 69 38 69 81 L69 217 C69 276 88 303 133 303 L157 303 L157 81 Z " />
<glyph glyph-name="Cacute" unicode="&#x106;" horiz-adv-x="235" d="M50 105 C50 33 75 -5 125 -5 C174 -5 200 34 200 105 L200 210 L175 210 L175 105 C175 44 160 18 125 18 C90 18 75 45 75 105 L75 594 C75 654 90 682 125 682 C160 682 175 654 175 594 L175 510 L200 510 L200 594 C200 666 174 705 125 705 C76 705 50 667 50 594 L50 105 Z M117 732 L134 732 L202 834 L157 834 L117 732 Z " />
<glyph glyph-name="cacute" unicode="&#x107;" horiz-adv-x="217" d="M45 93 C45 29 70 -5 116 -5 C162 -5 187 30 187 93 L187 164 L163 164 L163 93 C163 41 148 17 116 17 C84 17 69 42 69 93 L69 447 C69 499 84 523 116 523 C148 523 163 498 163 447 L163 385 L187 385 L187 447 C187 509 162 545 116 545 C70 545 45 510 45 447 L45 93 Z M108 572 L125 572 L193 674 L148 674 L108 572 Z " />
<glyph glyph-name="Ccircumflex" unicode="&#x108;" horiz-adv-x="235" d="M50 105 C50 33 75 -5 125 -5 C174 -5 200 34 200 105 L200 210 L175 210 L175 105 C175 44 160 18 125 18 C90 18 75 45 75 105 L75 594 C75 654 90 682 125 682 C160 682 175 654 175 594 L175 510 L200 510 L200 594 C200 666 174 705 125 705 C76 705 50 667 50 594 L50 105 Z M51 732 L68 732 L126 805 L183 732 L199 732 L142 834 L110 834 L51 732 Z " />
<glyph glyph-name="ccircumflex" unicode="&#x109;" horiz-adv-x="217" d="M45 93 C45 29 70 -5 116 -5 C162 -5 187 30 187 93 L187 164 L163 164 L163 93 C163 41 148 17 116 17 C84 17 69 42 69 93 L69 447 C69 499 84 523 116 523 C148 523 163 498 163 447 L163 385 L187 385 L187 447 C187 509 162 545 116 545 C70 545 45 510 45 447 L45 93 Z M42 572 L59 572 L117 645 L174 572 L190 572 L133 674 L101 674 L42 572 Z " />
<glyph glyph-name="Cdotaccent" unicode="&#x10a;" horiz-adv-x="235" d="M50 105 C50 33 75 -5 125 -5 C174 -5 200 34 200 105 L200 210 L175 210 L175 105 C175 44 160 18 125 18 C90 18 75 45 75 105 L75 594 C75 654 90 682 125 682 C160 682 175 654 175 594 L175 510 L200 510 L200 594 C200 666 174 705 125 705 C76 705 50 667 50 594 L50 105 Z M98 790 C98 772 109 763 125 763 C142 763 152 774 152 790 C152 807 142 817 125 817 C109 817 98 808 98 790 L98 790 Z " />
<glyph glyph-name="cdotaccent" unicode="&#x10b;" horiz-adv-x="217" d="M45 93 C45 29 70 -5 116 -5 C162 -5 187 30 187 93 L187 164 L163 164 L163 93 C163 41 148 17 116 17 C84 17 69 42 69 93 L69 447 C69 499 84 523 116 523 C148 523 163 498 163 447 L163 385 L187 385 L187 447 C187 509 162 545 116 545 C70 545 45 510 45 447 L45 93 Z M89 630 C89 612 100 603 116 603 C133 603 143 614 143 630 C143 647 133 657 116 657 C100 657 89 648 89 630 L89 630 Z " />
<glyph glyph-name="Ccaron" unicode="&#x10c;" horiz-adv-x="235" d="M50 105 C50 33 75 -5 125 -5 C174 -5 200 34 200 105 L200 210 L175 210 L175 105 C175 44 160 18 125 18 C90 18 75 45 75 105 L75 594 C75 654 90 682 125 682 C160 682 175 654 175 594 L175 510 L200 510 L200 594 C200 666 174 705 125 705 C76 705 50 667 50 594 L50 105 Z M108 732 L140 732 L199 834 L182 834 L124 761 L67 834 L51 834 L108 732 Z " />
<glyph glyph-name="ccaron" unicode="&#x10d;" horiz-adv-x="217" d="M45 93 C45 29 70 -5 116 -5 C162 -5 187 30 187 93 L187 164 L163 164 L163 93 C163 41 148 17 116 17 C84 17 69 42 69 93 L69 447 C69 499 84 523 116 523 C148 523 163 498 163 447 L163 385 L187 385 L187 447 C187 509 162 545 116 545 C70 545 45 510 45 447 L45 93 Z M99 572 L131 572 L190 674 L173 674 L115 601 L58 674 L42 674 L99 572 Z " />
<glyph glyph-name="Dcaron" unicode="&#x10e;" horiz-adv-x="262" d="M55 0 L120 0 C180 0 212 38 212 110 L212 589 C212 662 180 700 120 700 L55 700 L55 0 Z M80 23 L80 677 L120 677 C166 677 187 649 187 589 L187 110 C187 49 166 23 120 23 L80 23 Z M102 732 L134 732 L193 834 L176 834 L118 761 L61 834 L45 834 L102 732 Z " />
<glyph glyph-name="dcaron" unicode="&#x10f;" horiz-adv-x="258" d="M45 77 C45 24 67 -5 108 -5 C137 -5 158 10 170 37 L179 -3 L193 -3 L193 700 L169 700 L169 512 C157 534 139 545 114 545 C73 545 45 512 45 452 L45 77 Z M169 81 C159 38 141 17 112 17 C83 17 69 36 69 77 L69 452 C69 500 87 523 116 523 C146 523 161 500 169 459 L169 81 Z M242 567 C268 644 268 645 268 700 L238 700 L238 696 C238 645 238 642 227 567 L242 567 Z " />
<glyph glyph-name="Dcroat" unicode="&#x110;" horiz-adv-x="262" d="M55 0 L120 0 C180 0 212 38 212 110 L212 589 C212 662 180 700 120 700 L55 700 L55 365 L15 365 L15 342 L55 342 L55 0 Z M80 23 L80 342 L140 342 L140 365 L80 365 L80 677 L120 677 C166 677 187 649 187 589 L187 110 C187 49 166 23 120 23 L80 23 Z " />
<glyph glyph-name="dcroat" unicode="&#x111;" horiz-adv-x="243" d="M45 77 C45 24 67 -5 108 -5 C137 -5 158 10 170 37 L179 -3 L193 -3 L193 620 L223 620 L223 642 L193 642 L193 700 L169 700 L169 642 L89 642 L89 620 L169 620 L169 512 C157 534 139 545 114 545 C73 545 45 512 45 452 L45 77 Z M169 81 C159 38 141 17 112 17 C83 17 69 36 69 77 L69 452 C69 500 87 523 116 523 C146 523 161 500 169 459 L169 81 Z " />
<glyph glyph-name="Emacron" unicode="&#x112;" horiz-adv-x="206" d="M55 0 L186 0 L186 23 L80 23 L80 342 L175 342 L175 365 L80 365 L80 677 L184 677 L184 700 L55 700 L55 0 Z M52 777 L188 777 L188 801 L52 801 L52 777 Z " />
<glyph glyph-name="emacron" unicode="&#x113;" horiz-adv-x="231" d="M45 93 C45 27 69 -5 116 -5 C165 -5 191 29 191 93 L191 164 L167 164 L167 93 C167 40 152 17 118 17 C85 17 69 41 69 93 L69 264 L191 264 L191 447 C191 512 166 545 118 545 C71 545 45 511 45 447 L45 93 Z M69 286 L69 447 C69 500 84 523 118 523 C151 523 167 499 167 447 L167 286 L69 286 Z M50 617 L186 617 L186 641 L50 641 L50 617 Z " />
<glyph glyph-name="Ebreve" unicode="&#x114;" horiz-adv-x="206" d="M55 0 L186 0 L186 23 L80 23 L80 342 L175 342 L175 365 L80 365 L80 677 L184 677 L184 700 L55 700 L55 0 Z M58 815 C58 770 79 747 120 747 C161 747 182 770 182 815 L182 818 L158 818 L158 815 C158 785 146 770 120 770 C94 770 82 785 82 815 L82 818 L58 818 L58 815 Z " />
<glyph glyph-name="ebreve" unicode="&#x115;" horiz-adv-x="231" d="M45 93 C45 27 69 -5 116 -5 C165 -5 191 29 191 93 L191 164 L167 164 L167 93 C167 40 152 17 118 17 C85 17 69 41 69 93 L69 264 L191 264 L191 447 C191 512 166 545 118 545 C71 545 45 511 45 447 L45 93 Z M69 286 L69 447 C69 500 84 523 118 523 C151 523 167 499 167 447 L167 286 L69 286 Z M56 655 C56 610 77 587 118 587 C159 587 180 610 180 655 L180 658 L156 658 L156 655 C156 625 144 610 118 610 C92 610 80 625 80 655 L80 658 L56 658 L56 655 Z " />
<glyph glyph-name="Edotaccent" unicode="&#x116;" horiz-adv-x="206" d="M55 0 L186 0 L186 23 L80 23 L80 342 L175 342 L175 365 L80 365 L80 677 L184 677 L184 700 L55 700 L55 0 Z M93 790 C93 772 104 763 120 763 C137 763 147 774 147 790 C147 807 137 817 120 817 C104 817 93 808 93 790 L93 790 Z " />
<glyph glyph-name="edotaccent" unicode="&#x117;" horiz-adv-x="231" d="M45 93 C45 27 69 -5 116 -5 C165 -5 191 29 191 93 L191 164 L167 164 L167 93 C167 40 152 17 118 17 C85 17 69 41 69 93 L69 264 L191 264 L191 447 C191 512 166 545 118 545 C71 545 45 511 45 447 L45 93 Z M69 286 L69 447 C69 500 84 523 118 523 C151 523 167 499 167 447 L167 286 L69 286 Z M91 630 C91 612 102 603 118 603 C135 603 145 614 145 630 C145 647 135 657 118 657 C102 657 91 648 91 630 L91 630 Z " />
<glyph glyph-name="Eogonek" unicode="&#x118;" horiz-adv-x="206" d="M55 0 L163 0 C112 -27 91 -56 91 -90 C91 -124 114 -145 153 -145 C165 -145 175 -143 186 -139 L186 -117 C170 -122 162 -123 155 -123 C130 -123 116 -110 116 -86 C116 -58 134 -36 186 0 L186 23 L80 23 L80 342 L175 342 L175 365 L80 365 L80 677 L184 677 L184 700 L55 700 L55 0 Z " />
<glyph glyph-name="eogonek" unicode="&#x119;" horiz-adv-x="231" d="M191 -109 C174 -119 162 -123 149 -123 C127 -123 111 -112 111 -87 C111 -60 130 -26 168 15 C183 31 191 58 191 93 L191 164 L167 164 L167 93 C167 40 152 17 118 17 C85 17 69 41 69 93 L69 264 L191 264 L191 447 C191 512 166 545 118 545 C71 545 45 511 45 447 L45 93 C45 34 61 -5 125 -5 C101 -35 86 -68 86 -94 C86 -127 110 -145 147 -145 C165 -145 179 -140 191 -131 L191 -109 Z M69 286 L69 447 C69 500 84 523 118 523 C151 523 167 499 167 447 L167 286 L69 286 Z " />
<glyph glyph-name="Ecaron" unicode="&#x11a;" horiz-adv-x="206" d="M55 0 L186 0 L186 23 L80 23 L80 342 L175 342 L175 365 L80 365 L80 677 L184 677 L184 700 L55 700 L55 0 Z M103 732 L135 732 L194 834 L177 834 L119 761 L62 834 L46 834 L103 732 Z " />
<glyph glyph-name="ecaron" unicode="&#x11b;" horiz-adv-x="231" d="M45 93 C45 27 69 -5 116 -5 C165 -5 191 29 191 93 L191 164 L167 164 L167 93 C167 40 152 17 118 17 C85 17 69 41 69 93 L69 264 L191 264 L191 447 C191 512 166 545 118 545 C71 545 45 511 45 447 L45 93 Z M69 286 L69 447 C69 500 84 523 118 523 C151 523 167 499 167 447 L167 286 L69 286 Z M101 572 L133 572 L192 674 L175 674 L117 601 L60 674 L44 674 L101 572 Z " />
<glyph glyph-name="Gcircumflex" unicode="&#x11c;" horiz-adv-x="249" d="M50 100 C50 30 76 -5 123 -5 C150 -5 170 7 181 31 L189 -5 L204 -5 L204 374 L129 374 L129 350 L179 350 L179 100 C179 44 163 18 127 18 C91 18 75 45 75 100 L75 599 C75 656 91 682 127 682 C163 682 179 656 179 599 L179 510 L204 510 L204 599 C204 668 177 705 127 705 C77 705 50 667 50 599 L50 100 Z M53 732 L70 732 L128 805 L185 732 L201 732 L144 834 L112 834 L53 732 Z " />
<glyph glyph-name="gcircumflex" unicode="&#x11d;" horiz-adv-x="243" d="M48 -62 C48 -127 73 -160 121 -160 C168 -160 193 -126 193 -62 L193 543 L179 543 L170 503 C159 528 138 545 108 545 C67 545 45 516 45 463 L45 116 C45 63 67 34 106 34 C134 34 156 49 169 74 L169 -62 C169 -114 154 -138 121 -138 C87 -138 72 -114 72 -62 L72 -20 L48 -20 L48 -62 Z M169 120 C159 77 141 56 112 56 C83 56 69 75 69 116 L69 463 C69 504 83 523 111 523 C140 523 159 502 169 459 L169 120 Z M40 572 L57 572 L115 645 L172 572 L188 572 L131 674 L99 674 L40 572 Z " />
<glyph glyph-name="Gbreve" unicode="&#x11e;" horiz-adv-x="249" d="M50 100 C50 30 76 -5 123 -5 C150 -5 170 7 181 31 L189 -5 L204 -5 L204 374 L129 374 L129 350 L179 350 L179 100 C179 44 163 18 127 18 C91 18 75 45 75 100 L75 599 C75 656 91 682 127 682 C163 682 179 656 179 599 L179 510 L204 510 L204 599 C204 668 177 705 127 705 C77 705 50 667 50 599 L50 100 Z M65 815 C65 770 86 747 127 747 C168 747 189 770 189 815 L189 818 L165 818 L165 815 C165 785 153 770 127 770 C101 770 89 785 89 815 L89 818 L65 818 L65 815 Z " />
<glyph glyph-name="gbreve" unicode="&#x11f;" horiz-adv-x="243" d="M48 -62 C48 -127 73 -160 121 -160 C168 -160 193 -126 193 -62 L193 543 L179 543 L170 503 C159 528 138 545 108 545 C67 545 45 516 45 463 L45 116 C45 63 67 34 106 34 C134 34 156 49 169 74 L169 -62 C169 -114 154 -138 121 -138 C87 -138 72 -114 72 -62 L72 -20 L48 -20 L48 -62 Z M169 120 C159 77 141 56 112 56 C83 56 69 75 69 116 L69 463 C69 504 83 523 111 523 C140 523 159 502 169 459 L169 120 Z M52 655 C52 610 73 587 114 587 C155 587 176 610 176 655 L176 658 L152 658 L152 655 C152 625 140 610 114 610 C88 610 76 625 76 655 L76 658 L52 658 L52 655 Z " />
<glyph glyph-name="Gdotaccent" unicode="&#x120;" horiz-adv-x="249" d="M50 100 C50 30 76 -5 123 -5 C150 -5 170 7 181 31 L189 -5 L204 -5 L204 374 L129 374 L129 350 L179 350 L179 100 C179 44 163 18 127 18 C91 18 75 45 75 100 L75 599 C75 656 91 682 127 682 C163 682 179 656 179 599 L179 510 L204 510 L204 599 C204 668 177 705 127 705 C77 705 50 667 50 599 L50 100 Z M100 790 C100 772 111 763 127 763 C144 763 154 774 154 790 C154 807 144 817 127 817 C111 817 100 808 100 790 L100 790 Z " />
<glyph glyph-name="gdotaccent" unicode="&#x121;" horiz-adv-x="243" d="M48 -62 C48 -127 73 -160 121 -160 C168 -160 193 -126 193 -62 L193 543 L179 543 L170 503 C159 528 138 545 108 545 C67 545 45 516 45 463 L45 116 C45 63 67 34 106 34 C134 34 156 49 169 74 L169 -62 C169 -114 154 -138 121 -138 C87 -138 72 -114 72 -62 L72 -20 L48 -20 L48 -62 Z M169 120 C159 77 141 56 112 56 C83 56 69 75 69 116 L69 463 C69 504 83 523 111 523 C140 523 159 502 169 459 L169 120 Z M87 630 C87 612 98 603 114 603 C131 603 141 614 141 630 C141 647 131 657 114 657 C98 657 87 648 87 630 L87 630 Z " />
<glyph glyph-name="Gcommaaccent" unicode="&#x122;" horiz-adv-x="249" d="M50 100 C50 30 76 -5 123 -5 C150 -5 170 7 181 31 L189 -5 L204 -5 L204 374 L129 374 L129 350 L179 350 L179 100 C179 44 163 18 127 18 C91 18 75 45 75 100 L75 599 C75 656 91 682 127 682 C163 682 179 656 179 599 L179 510 L204 510 L204 599 C204 668 177 705 127 705 C77 705 50 667 50 599 L50 100 Z M115 -168 C141 -91 141 -90 141 -35 L111 -35 L111 -39 C111 -90 111 -93 100 -168 L115 -168 Z " />
<glyph glyph-name="gcommaaccent" unicode="&#x123;" horiz-adv-x="243" d="M48 -62 C48 -127 73 -160 121 -160 C168 -160 193 -126 193 -62 L193 543 L179 543 L170 503 C159 528 138 545 108 545 C67 545 45 516 45 463 L45 116 C45 63 67 34 106 34 C134 34 156 49 169 74 L169 -62 C169 -114 154 -138 121 -138 C87 -138 72 -114 72 -62 L72 -20 L48 -20 L48 -62 Z M169 120 C159 77 141 56 112 56 C83 56 69 75 69 116 L69 463 C69 504 83 523 111 523 C140 523 159 502 169 459 L169 120 Z M135 567 L135 571 C135 622 135 625 146 700 L131 700 C105 623 105 622 105 567 L135 567 Z " />
<glyph glyph-name="Hcircumflex" unicode="&#x124;" horiz-adv-x="270" d="M55 0 L80 0 L80 343 L190 343 L190 0 L215 0 L215 700 L190 700 L190 366 L80 366 L80 700 L55 700 L55 0 Z M61 732 L78 732 L136 805 L193 732 L209 732 L152 834 L120 834 L61 732 Z " />
<glyph glyph-name="hcircumflex" unicode="&#x125;" horiz-adv-x="248" d="M50 0 L74 0 L74 459 C84 502 102 523 131 523 C160 523 174 504 174 463 L174 0 L198 0 L198 463 C198 517 177 545 135 545 C107 545 87 532 74 505 L74 700 L50 700 L50 0 Z M49 731 L66 731 L124 804 L181 731 L197 731 L140 833 L108 833 L49 731 Z " />
<glyph glyph-name="Hbar" unicode="&#x126;" horiz-adv-x="270" d="M55 0 L80 0 L80 343 L190 343 L190 0 L215 0 L215 540 L245 540 L245 563 L215 563 L215 700 L190 700 L190 563 L80 563 L80 700 L55 700 L55 563 L25 563 L25 540 L55 540 L55 0 Z M80 366 L80 540 L190 540 L190 366 L80 366 Z " />
<glyph glyph-name="hbar" unicode="&#x127;" horiz-adv-x="248" d="M50 0 L74 0 L74 459 C84 502 102 523 131 523 C160 523 174 504 174 463 L174 0 L198 0 L198 463 C198 517 177 545 135 545 C107 545 87 532 74 505 L74 620 L154 620 L154 642 L74 642 L74 700 L50 700 L50 642 L20 642 L20 620 L50 620 L50 0 Z " />
<glyph glyph-name="Imacron" unicode="&#x12a;" horiz-adv-x="135" d="M55 0 L80 0 L80 700 L55 700 L55 0 Z M0 777 L136 777 L136 801 L0 801 L0 777 Z " />
<glyph glyph-name="imacron" unicode="&#x12b;" horiz-adv-x="124" d="M50 0 L74 0 L74 540 L50 540 L50 0 Z M-6 617 L130 617 L130 641 L-6 641 L-6 617 Z " />
<glyph glyph-name="Ibreve" unicode="&#x12c;" horiz-adv-x="135" d="M55 0 L80 0 L80 700 L55 700 L55 0 Z M6 815 C6 770 27 747 68 747 C109 747 130 770 130 815 L130 818 L106 818 L106 815 C106 785 94 770 68 770 C42 770 30 785 30 815 L30 818 L6 818 L6 815 Z " />
<glyph glyph-name="ibreve" unicode="&#x12d;" horiz-adv-x="124" d="M50 0 L74 0 L74 540 L50 540 L50 0 Z M0 655 C0 610 21 587 62 587 C103 587 124 610 124 655 L124 658 L100 658 L100 655 C100 625 88 610 62 610 C36 610 24 625 24 655 L24 658 L0 658 L0 655 Z " />
<glyph glyph-name="Iogonek" unicode="&#x12e;" horiz-adv-x="135" d="M100 -117 C84 -122 76 -123 69 -123 C44 -123 30 -111 30 -85 C30 -60 43 -37 80 0 L80 700 L55 700 L55 0 L58 0 C24 -30 5 -55 5 -88 C5 -125 28 -145 67 -145 C79 -145 89 -143 100 -139 L100 -117 Z " />
<glyph glyph-name="iogonek" unicode="&#x12f;" horiz-adv-x="124" d="M94 -117 C78 -122 70 -123 63 -123 C38 -123 24 -111 24 -85 C24 -60 37 -37 74 0 L74 540 L50 540 L50 0 L52 0 C18 -30 -1 -55 -1 -88 C-1 -125 22 -145 61 -145 C73 -145 83 -143 94 -139 L94 -117 Z M35 630 C35 612 46 603 62 603 C79 603 89 614 89 630 C89 647 79 657 62 657 C46 657 35 648 35 630 L35 630 Z " />
<glyph glyph-name="Idotaccent" unicode="&#x130;" horiz-adv-x="135" d="M55 0 L80 0 L80 700 L55 700 L55 0 Z M41 790 C41 772 52 763 68 763 C85 763 95 774 95 790 C95 807 85 817 68 817 C52 817 41 808 41 790 L41 790 Z " />
<glyph glyph-name="dotlessi" unicode="&#x131;" horiz-adv-x="124" d="M50 0 L74 0 L74 540 L50 540 L50 0 Z " />
<glyph glyph-name="uni0132" unicode="&#x132;" horiz-adv-x="270" d="M55 0 L80 0 L80 700 L55 700 L55 0 Z M100 -157 C105 -159 117 -160 127 -160 C186 -160 215 -122 215 -49 L215 700 L190 700 L190 -49 C190 -110 172 -135 129 -135 C121 -135 113 -134 100 -132 L100 -157 Z " />
<glyph glyph-name="uni0133" unicode="&#x133;" horiz-adv-x="248" d="M50 0 L74 0 L74 540 L50 540 L50 0 Z M35 630 C35 612 46 603 62 603 C79 603 89 614 89 630 C89 647 79 657 62 657 C46 657 35 648 35 630 L35 630 Z M94 -155 C102 -158 111 -160 123 -160 C173 -160 198 -126 198 -64 L198 540 L174 540 L174 -64 C174 -115 159 -136 124 -136 C112 -136 104 -134 94 -131 L94 -155 Z M159 630 C159 612 170 603 186 603 C203 603 213 614 213 630 C213 647 203 657 186 657 C170 657 159 648 159 630 L159 630 Z " />
<glyph glyph-name="Jcircumflex" unicode="&#x134;" horiz-adv-x="135" d="M-35 -157 C-30 -159 -18 -160 -8 -160 C51 -160 80 -122 80 -49 L80 700 L55 700 L55 -49 C55 -110 37 -135 -6 -135 C-14 -135 -22 -134 -35 -132 L-35 -157 Z M-7 732 L10 732 L68 805 L125 732 L141 732 L84 834 L52 834 L-7 732 Z " />
<glyph glyph-name="jcircumflex" unicode="&#x135;" horiz-adv-x="134" d="M-25 -155 C-17 -158 -8 -160 4 -160 C54 -160 79 -126 79 -64 L79 540 L55 540 L55 -64 C55 -115 40 -136 5 -136 C-7 -136 -15 -134 -25 -131 L-25 -155 Z M-9 572 L8 572 L66 645 L123 572 L139 572 L82 674 L50 674 L-9 572 Z " />
<glyph glyph-name="Kcommaaccent" unicode="&#x136;" horiz-adv-x="251" d="M55 0 L80 0 L80 339 L124 339 L211 0 L236 0 L146 352 L229 700 L205 700 L124 362 L80 362 L80 700 L55 700 L55 0 Z M131 -168 C157 -91 157 -90 157 -35 L127 -35 L127 -39 C127 -90 127 -93 116 -168 L131 -168 Z " />
<glyph glyph-name="kcommaaccent" unicode="&#x137;" horiz-adv-x="223" d="M50 0 L74 0 L74 264 L109 264 L184 0 L208 0 L130 275 L206 540 L182 540 L109 286 L74 286 L74 700 L50 700 L50 0 Z M117 -168 C143 -91 143 -90 143 -35 L113 -35 L113 -39 C113 -90 113 -93 102 -168 L117 -168 Z " />
<glyph glyph-name="Lacute" unicode="&#x139;" horiz-adv-x="188" d="M55 0 L183 0 L183 23 L80 23 L80 700 L55 700 L55 0 Z M60 732 L77 732 L145 834 L100 834 L60 732 Z " />
<glyph glyph-name="lacute" unicode="&#x13a;" horiz-adv-x="124" d="M50 0 L74 0 L74 700 L50 700 L50 0 Z M54 732 L71 732 L139 834 L94 834 L54 732 Z " />
<glyph glyph-name="Lcommaaccent" unicode="&#x13b;" horiz-adv-x="188" d="M55 0 L183 0 L183 23 L80 23 L80 700 L55 700 L55 0 Z M109 -168 C135 -91 135 -90 135 -35 L105 -35 L105 -39 C105 -90 105 -93 94 -168 L109 -168 Z " />
<glyph glyph-name="lcommaaccent" unicode="&#x13c;" horiz-adv-x="124" d="M50 0 L74 0 L74 700 L50 700 L50 0 Z M52 -168 C78 -91 78 -90 78 -35 L48 -35 L48 -39 C48 -90 48 -93 37 -168 L52 -168 Z " />
<glyph glyph-name="Lcaron" unicode="&#x13d;" horiz-adv-x="188" d="M55 0 L183 0 L183 23 L80 23 L80 700 L55 700 L55 0 Z M129 567 C155 644 155 645 155 700 L125 700 L125 696 C125 645 125 642 114 567 L129 567 Z " />
<glyph glyph-name="lcaron" unicode="&#x13e;" horiz-adv-x="139" d="M50 0 L74 0 L74 700 L50 700 L50 0 Z M123 567 C149 644 149 645 149 700 L119 700 L119 696 C119 645 119 642 108 567 L123 567 Z " />
<glyph glyph-name="Ldot" unicode="&#x13f;" horiz-adv-x="203" d="M55 0 L183 0 L183 23 L80 23 L80 700 L55 700 L55 0 Z M166 323 C184 323 195 334 195 352 C195 371 184 381 166 381 C148 381 137 370 137 352 C137 334 148 323 166 323 L166 323 Z " />
<glyph glyph-name="ldot" unicode="&#x140;" horiz-adv-x="184" d="M50 0 L74 0 L74 700 L50 700 L50 0 Z M150 323 C168 323 179 334 179 352 C179 371 168 381 150 381 C132 381 121 370 121 352 C121 334 132 323 150 323 L150 323 Z " />
<glyph glyph-name="Lslash" unicode="&#x141;" horiz-adv-x="188" d="M55 0 L183 0 L183 23 L80 23 L80 333 L150 400 L150 425 L80 358 L80 700 L55 700 L55 334 L15 295 L15 270 L55 309 L55 0 Z " />
<glyph glyph-name="lslash" unicode="&#x142;" horiz-adv-x="124" d="M50 0 L74 0 L74 359 L114 399 L114 426 L74 386 L74 700 L50 700 L50 363 L10 323 L10 296 L50 336 L50 0 Z " />
<glyph glyph-name="Nacute" unicode="&#x143;" horiz-adv-x="290" d="M55 0 L78 0 L78 488 C78 539 75 630 74 652 L77 652 L201 0 L235 0 L235 700 L212 700 L212 212 C212 161 214 77 216 47 L213 47 L89 700 L55 700 L55 0 Z M137 732 L154 732 L222 834 L177 834 L137 732 Z " />
<glyph glyph-name="nacute" unicode="&#x144;" horiz-adv-x="248" d="M50 0 L74 0 L74 459 C84 502 102 523 131 523 C160 523 174 504 174 463 L174 0 L198 0 L198 463 C198 517 177 545 135 545 C106 545 86 531 73 502 L65 543 L50 543 L50 0 Z M116 572 L133 572 L201 674 L156 674 L116 572 Z " />
<glyph glyph-name="Ncommaaccent" unicode="&#x145;" horiz-adv-x="290" d="M55 0 L78 0 L78 488 C78 539 75 630 74 652 L77 652 L201 0 L235 0 L235 700 L212 700 L212 212 C212 161 214 77 216 47 L213 47 L89 700 L55 700 L55 0 Z M135 -168 C161 -91 161 -90 161 -35 L131 -35 L131 -39 C131 -90 131 -93 120 -168 L135 -168 Z " />
<glyph glyph-name="ncommaaccent" unicode="&#x146;" horiz-adv-x="248" d="M50 0 L74 0 L74 459 C84 502 102 523 131 523 C160 523 174 504 174 463 L174 0 L198 0 L198 463 C198 517 177 545 135 545 C106 545 86 531 73 502 L65 543 L50 543 L50 0 Z M114 -168 C140 -91 140 -90 140 -35 L110 -35 L110 -39 C110 -90 110 -93 99 -168 L114 -168 Z " />
<glyph glyph-name="Ncaron" unicode="&#x147;" horiz-adv-x="290" d="M55 0 L78 0 L78 488 C78 539 75 630 74 652 L77 652 L201 0 L235 0 L235 700 L212 700 L212 212 C212 161 214 77 216 47 L213 47 L89 700 L55 700 L55 0 Z M128 732 L160 732 L219 834 L202 834 L144 761 L87 834 L71 834 L128 732 Z " />
<glyph glyph-name="ncaron" unicode="&#x148;" horiz-adv-x="248" d="M50 0 L74 0 L74 459 C84 502 102 523 131 523 C160 523 174 504 174 463 L174 0 L198 0 L198 463 C198 517 177 545 135 545 C106 545 86 531 73 502 L65 543 L50 543 L50 0 Z M107 572 L139 572 L198 674 L181 674 L123 601 L66 674 L50 674 L107 572 Z " />
<glyph glyph-name="napostrophe" unicode="&#x149;" horiz-adv-x="255" d="M57 0 L81 0 L81 459 C91 502 109 523 138 523 C167 523 181 504 181 463 L181 0 L205 0 L205 463 C205 517 184 545 142 545 C113 545 93 531 80 502 L72 543 L57 543 L57 0 Z M15 567 C41 644 41 645 41 700 L11 700 L11 696 C11 645 11 642 0 567 L15 567 Z " />
<glyph glyph-name="Eng" unicode="&#x14a;" horiz-adv-x="290" d="M120 -157 C125 -159 137 -160 147 -160 C206 -160 235 -122 235 -49 L235 700 L212 700 L212 212 C212 178 213 136 214 99 L213 99 L89 700 L55 700 L55 0 L78 0 L78 488 C78 540 76 609 74 654 L75 654 L210 0 L210 -49 C210 -110 192 -135 149 -135 C141 -135 133 -134 120 -132 L120 -157 Z " />
<glyph glyph-name="eng" unicode="&#x14b;" horiz-adv-x="248" d="M94 -155 C102 -158 111 -160 123 -160 C173 -160 198 -126 198 -64 L198 463 C198 517 177 545 135 545 C106 545 86 531 73 502 L65 543 L50 543 L50 0 L74 0 L74 459 C84 502 102 523 131 523 C160 523 174 504 174 463 L174 -64 C174 -115 159 -136 124 -136 C112 -136 104 -134 94 -131 L94 -155 Z " />
<glyph glyph-name="Omacron" unicode="&#x14c;" horiz-adv-x="260" d="M185 105 C185 44 168 18 130 18 C92 18 75 45 75 105 L75 594 C75 654 92 682 130 682 C168 682 185 654 185 594 L185 105 Z M50 105 C50 33 77 -5 130 -5 C182 -5 210 34 210 105 L210 594 C210 666 182 705 130 705 C78 705 50 667 50 594 L50 105 Z M62 777 L198 777 L198 801 L62 801 L62 777 Z " />
<glyph glyph-name="omacron" unicode="&#x14d;" horiz-adv-x="240" d="M45 94 C45 28 71 -5 120 -5 C169 -5 195 28 195 94 L195 446 C195 510 169 545 120 545 C71 545 45 511 45 446 L45 94 Z M171 94 C171 40 155 17 120 17 C85 17 69 41 69 94 L69 446 C69 498 85 523 120 523 C155 523 171 499 171 446 L171 94 Z M52 617 L188 617 L188 641 L52 641 L52 617 Z " />
<glyph glyph-name="Obreve" unicode="&#x14e;" horiz-adv-x="260" d="M185 105 C185 44 168 18 130 18 C92 18 75 45 75 105 L75 594 C75 654 92 682 130 682 C168 682 185 654 185 594 L185 105 Z M50 105 C50 33 77 -5 130 -5 C182 -5 210 34 210 105 L210 594 C210 666 182 705 130 705 C78 705 50 667 50 594 L50 105 Z M68 815 C68 770 89 747 130 747 C171 747 192 770 192 815 L192 818 L168 818 L168 815 C168 785 156 770 130 770 C104 770 92 785 92 815 L92 818 L68 818 L68 815 Z " />
<glyph glyph-name="obreve" unicode="&#x14f;" horiz-adv-x="240" d="M45 94 C45 28 71 -5 120 -5 C169 -5 195 28 195 94 L195 446 C195 510 169 545 120 545 C71 545 45 511 45 446 L45 94 Z M171 94 C171 40 155 17 120 17 C85 17 69 41 69 94 L69 446 C69 498 85 523 120 523 C155 523 171 499 171 446 L171 94 Z M58 655 C58 610 79 587 120 587 C161 587 182 610 182 655 L182 658 L158 658 L158 655 C158 625 146 610 120 610 C94 610 82 625 82 655 L82 658 L58 658 L58 655 Z " />
<glyph glyph-name="Ohungarumlaut" unicode="&#x150;" horiz-adv-x="260" d="M185 105 C185 44 168 18 130 18 C92 18 75 45 75 105 L75 594 C75 654 92 682 130 682 C168 682 185 654 185 594 L185 105 Z M50 105 C50 33 77 -5 130 -5 C182 -5 210 34 210 105 L210 594 C210 666 182 705 130 705 C78 705 50 667 50 594 L50 105 Z M91 732 L106 732 L157 834 L119 834 L91 732 Z M151 732 L166 732 L217 834 L179 834 L151 732 Z " />
<glyph glyph-name="ohungarumlaut" unicode="&#x151;" horiz-adv-x="240" d="M45 94 C45 28 71 -5 120 -5 C169 -5 195 28 195 94 L195 446 C195 510 169 545 120 545 C71 545 45 511 45 446 L45 94 Z M171 94 C171 40 155 17 120 17 C85 17 69 41 69 94 L69 446 C69 498 85 523 120 523 C155 523 171 499 171 446 L171 94 Z M81 572 L96 572 L147 674 L109 674 L81 572 Z M141 572 L156 572 L207 674 L169 674 L141 572 Z " />
<glyph glyph-name="OE" unicode="&#x152;" horiz-adv-x="321" d="M50 110 C50 38 82 0 142 0 L301 0 L301 23 L200 23 L200 342 L290 342 L290 365 L200 365 L200 677 L299 677 L299 700 L142 700 C82 700 50 662 50 589 L50 110 Z M142 23 C96 23 75 49 75 110 L75 589 C75 649 96 677 142 677 L176 677 L176 23 L142 23 Z " />
<glyph glyph-name="oe" unicode="&#x153;" horiz-adv-x="344" d="M45 88 C45 26 69 -5 116 -5 C143 -5 163 6 174 29 C186 6 205 -5 232 -5 C278 -5 304 29 304 87 L304 164 L280 164 L280 87 C280 39 266 17 233 17 C200 17 186 38 186 88 L186 264 L304 264 L304 453 C304 513 280 545 234 545 C206 545 186 533 175 511 C163 533 144 545 116 545 C69 545 45 513 45 452 L45 88 Z M163 87 C163 38 149 17 116 17 C83 17 69 39 69 88 L69 452 C69 501 83 523 116 523 C149 523 163 502 163 453 L163 87 Z M186 286 L186 452 C186 501 200 523 233 523 C266 523 280 502 280 453 L280 286 L186 286 Z " />
<glyph glyph-name="Racute" unicode="&#x154;" horiz-adv-x="245" d="M55 0 L80 0 L80 311 C98 311 120 311 134 315 L185 0 L210 0 L157 326 C186 345 201 381 201 432 L201 579 C201 657 166 700 101 700 L55 700 L55 0 Z M80 334 L80 677 L101 677 C153 677 176 647 176 579 L176 432 C176 364 153 334 101 334 L80 334 Z M111 732 L128 732 L196 834 L151 834 L111 732 Z " />
<glyph glyph-name="racute" unicode="&#x155;" horiz-adv-x="156" d="M50 0 L74 0 L74 459 C84 502 102 523 131 523 C137 523 144 522 149 521 L151 544 C144 545 140 545 139 545 C108 545 86 531 73 502 L65 543 L50 543 L50 0 Z M94 572 L111 572 L179 674 L134 674 L94 572 Z " />
<glyph glyph-name="Rcommaaccent" unicode="&#x156;" horiz-adv-x="245" d="M55 0 L80 0 L80 311 C98 311 120 311 134 315 L185 0 L210 0 L157 326 C186 345 201 381 201 432 L201 579 C201 657 166 700 101 700 L55 700 L55 0 Z M80 334 L80 677 L101 677 C153 677 176 647 176 579 L176 432 C176 364 153 334 101 334 L80 334 Z M124 -168 C150 -91 150 -90 150 -35 L120 -35 L120 -39 C120 -90 120 -93 109 -168 L124 -168 Z " />
<glyph glyph-name="rcommaaccent" unicode="&#x157;" horiz-adv-x="156" d="M50 0 L74 0 L74 459 C84 502 102 523 131 523 C137 523 144 522 149 521 L151 544 C144 545 140 545 139 545 C108 545 86 531 73 502 L65 543 L50 543 L50 0 Z M53 -168 C79 -91 79 -90 79 -35 L49 -35 L49 -39 C49 -90 49 -93 38 -168 L53 -168 Z " />
<glyph glyph-name="Rcaron" unicode="&#x158;" horiz-adv-x="245" d="M55 0 L80 0 L80 311 C98 311 120 311 134 315 L185 0 L210 0 L157 326 C186 345 201 381 201 432 L201 579 C201 657 166 700 101 700 L55 700 L55 0 Z M80 334 L80 677 L101 677 C153 677 176 647 176 579 L176 432 C176 364 153 334 101 334 L80 334 Z M102 732 L134 732 L193 834 L176 834 L118 761 L61 834 L45 834 L102 732 Z " />
<glyph glyph-name="rcaron" unicode="&#x159;" horiz-adv-x="156" d="M50 0 L74 0 L74 459 C84 502 102 523 131 523 C137 523 144 522 149 521 L151 544 C144 545 140 545 139 545 C108 545 86 531 73 502 L65 543 L50 543 L50 0 Z M85 572 L117 572 L176 674 L159 674 L101 601 L44 674 L28 674 L85 572 Z " />
<glyph glyph-name="Sacute" unicode="&#x15a;" horiz-adv-x="212" d="M35 97 C35 30 59 -5 104 -5 C151 -5 177 34 177 105 C177 213 174 226 119 354 C66 475 64 485 64 595 C64 656 77 682 108 682 C139 682 152 658 152 604 L152 510 L177 510 L177 604 C177 671 154 705 109 705 C63 705 39 667 39 595 C39 482 42 473 98 340 C146 228 152 213 152 105 C152 46 137 18 105 18 C74 18 60 43 60 97 L60 210 L35 210 L35 97 Z M101 732 L118 732 L186 834 L141 834 L101 732 Z " />
<glyph glyph-name="sacute" unicode="&#x15b;" horiz-adv-x="205" d="M35 93 C35 29 58 -5 101 -5 C146 -5 170 29 170 93 C170 184 168 190 110 286 C64 363 62 368 62 447 C62 499 75 523 104 523 C133 523 146 499 146 447 L146 370 L170 370 L170 447 C170 512 148 545 105 545 C61 545 38 510 38 447 C38 362 40 356 94 266 C143 184 146 179 146 93 C146 40 133 17 103 17 C73 17 59 41 59 93 L59 174 L35 174 L35 93 Z M97 572 L114 572 L182 674 L137 674 L97 572 Z " />
<glyph glyph-name="Scircumflex" unicode="&#x15c;" horiz-adv-x="212" d="M35 97 C35 30 59 -5 104 -5 C151 -5 177 34 177 105 C177 213 174 226 119 354 C66 475 64 485 64 595 C64 656 77 682 108 682 C139 682 152 658 152 604 L152 510 L177 510 L177 604 C177 671 154 705 109 705 C63 705 39 667 39 595 C39 482 42 473 98 340 C146 228 152 213 152 105 C152 46 137 18 105 18 C74 18 60 43 60 97 L60 210 L35 210 L35 97 Z M35 732 L52 732 L110 805 L167 732 L183 732 L126 834 L94 834 L35 732 Z " />
<glyph glyph-name="scircumflex" unicode="&#x15d;" horiz-adv-x="205" d="M35 93 C35 29 58 -5 101 -5 C146 -5 170 29 170 93 C170 184 168 190 110 286 C64 363 62 368 62 447 C62 499 75 523 104 523 C133 523 146 499 146 447 L146 370 L170 370 L170 447 C170 512 148 545 105 545 C61 545 38 510 38 447 C38 362 40 356 94 266 C143 184 146 179 146 93 C146 40 133 17 103 17 C73 17 59 41 59 93 L59 174 L35 174 L35 93 Z M31 572 L48 572 L106 645 L163 572 L179 572 L122 674 L90 674 L31 572 Z " />
<glyph glyph-name="Scedilla" unicode="&#x15e;" horiz-adv-x="212" d="M54 -139 C60 -143 73 -146 89 -146 C131 -146 153 -127 153 -92 C153 -59 135 -40 100 -38 L115 -4 C155 2 177 40 177 105 C177 213 174 226 119 354 C66 475 64 485 64 595 C64 656 77 682 108 682 C139 682 152 658 152 604 L152 510 L177 510 L177 604 C177 671 154 705 109 705 C63 705 39 667 39 595 C39 482 42 473 98 340 C146 228 152 213 152 105 C152 46 137 18 105 18 C74 18 60 43 60 97 L60 210 L35 210 L35 97 C35 36 55 2 92 -4 L69 -58 L85 -58 C114 -58 128 -69 128 -92 C128 -114 115 -124 85 -124 C73 -124 61 -122 54 -118 L54 -139 Z " />
<glyph glyph-name="scedilla" unicode="&#x15f;" horiz-adv-x="205" d="M52 -139 C58 -143 71 -146 87 -146 C129 -146 151 -127 151 -92 C151 -59 133 -40 98 -38 L113 -4 C150 2 170 35 170 93 C170 184 168 190 110 286 C64 363 62 368 62 447 C62 499 75 523 104 523 C133 523 146 499 146 447 L146 370 L170 370 L170 447 C170 512 148 545 105 545 C61 545 38 510 38 447 C38 362 40 356 94 266 C143 184 146 179 146 93 C146 40 133 17 103 17 C73 17 59 41 59 93 L59 174 L35 174 L35 93 C35 34 54 1 90 -4 L67 -58 L83 -58 C112 -58 126 -69 126 -92 C126 -114 113 -124 83 -124 C71 -124 59 -122 52 -118 L52 -139 Z " />
<glyph glyph-name="Scaron" unicode="&#x160;" horiz-adv-x="212" d="M35 97 C35 30 59 -5 104 -5 C151 -5 177 34 177 105 C177 213 174 226 119 354 C66 475 64 485 64 595 C64 656 77 682 108 682 C139 682 152 658 152 604 L152 510 L177 510 L177 604 C177 671 154 705 109 705 C63 705 39 667 39 595 C39 482 42 473 98 340 C146 228 152 213 152 105 C152 46 137 18 105 18 C74 18 60 43 60 97 L60 210 L35 210 L35 97 Z M92 732 L124 732 L183 834 L166 834 L108 761 L51 834 L35 834 L92 732 Z " />
<glyph glyph-name="scaron" unicode="&#x161;" horiz-adv-x="205" d="M35 93 C35 29 58 -5 101 -5 C146 -5 170 29 170 93 C170 184 168 190 110 286 C64 363 62 368 62 447 C62 499 75 523 104 523 C133 523 146 499 146 447 L146 370 L170 370 L170 447 C170 512 148 545 105 545 C61 545 38 510 38 447 C38 362 40 356 94 266 C143 184 146 179 146 93 C146 40 133 17 103 17 C73 17 59 41 59 93 L59 174 L35 174 L35 93 Z M88 572 L120 572 L179 674 L162 674 L104 601 L47 674 L31 674 L88 572 Z " />
<glyph glyph-name="uni0162" unicode="&#x162;" horiz-adv-x="187" d="M42 -139 C48 -143 61 -146 77 -146 C119 -146 141 -127 141 -92 C141 -59 123 -40 88 -38 L105 0 L106 0 L106 677 L172 677 L172 700 L15 700 L15 677 L81 677 L81 0 L82 0 L57 -58 L73 -58 C102 -58 116 -69 116 -92 C116 -114 103 -124 73 -124 C61 -124 49 -122 42 -118 L42 -139 Z " />
<glyph glyph-name="uni0163" unicode="&#x163;" horiz-adv-x="164" d="M58 -139 C64 -143 77 -146 93 -146 C135 -146 157 -127 157 -92 C157 -59 139 -40 104 -38 L120 -3 C133 -3 147 -2 159 3 L159 26 C150 23 137 21 126 21 C93 21 79 43 79 95 L79 518 L148 518 L148 540 L79 540 L79 648 L65 648 L54 540 L15 533 L15 518 L55 518 L55 89 C55 40 70 11 99 1 L73 -58 L89 -58 C118 -58 132 -69 132 -92 C132 -114 119 -124 89 -124 C77 -124 65 -122 58 -118 L58 -139 Z " />
<glyph glyph-name="Tcaron" unicode="&#x164;" horiz-adv-x="187" d="M81 0 L106 0 L106 677 L172 677 L172 700 L15 700 L15 677 L81 677 L81 0 Z M77 732 L109 732 L168 834 L151 834 L93 761 L36 834 L20 834 L77 732 Z " />
<glyph glyph-name="tcaron" unicode="&#x165;" horiz-adv-x="164" d="M55 89 C55 27 78 -3 124 -3 C138 -3 151 0 159 3 L159 26 C150 23 137 21 126 21 C93 21 79 43 79 95 L79 518 L148 518 L148 540 L79 540 L79 648 L65 648 L54 540 L15 533 L15 518 L55 518 L55 89 Z M142 567 C168 644 168 645 168 700 L138 700 L138 696 C138 645 138 642 127 567 L142 567 Z " />
<glyph glyph-name="Tbar" unicode="&#x166;" horiz-adv-x="187" d="M81 0 L106 0 L106 342 L156 342 L156 365 L106 365 L106 677 L172 677 L172 700 L15 700 L15 677 L81 677 L81 365 L31 365 L31 342 L81 342 L81 0 Z " />
<glyph glyph-name="tbar" unicode="&#x167;" horiz-adv-x="164" d="M55 89 C55 27 78 -3 124 -3 C138 -3 151 0 159 3 L159 26 C150 23 137 21 126 21 C93 21 79 43 79 95 L79 289 L145 289 L145 311 L79 311 L79 518 L148 518 L148 540 L79 540 L79 648 L65 648 L54 540 L15 533 L15 518 L55 518 L55 311 L17 311 L17 289 L55 289 L55 89 Z " />
<glyph glyph-name="Umacron" unicode="&#x16a;" horiz-adv-x="256" d="M50 104 C50 32 77 -5 128 -5 C179 -5 206 33 206 104 L206 700 L181 700 L181 104 C181 44 165 18 128 18 C91 18 75 44 75 104 L75 700 L50 700 L50 104 Z M60 777 L196 777 L196 801 L60 801 L60 777 Z " />
<glyph glyph-name="umacron" unicode="&#x16b;" horiz-adv-x="248" d="M50 77 C50 23 71 -5 113 -5 C142 -5 162 9 175 38 L183 -3 L198 -3 L198 540 L174 540 L174 81 C164 38 146 17 117 17 C88 17 74 36 74 77 L74 540 L50 540 L50 77 Z M56 617 L192 617 L192 641 L56 641 L56 617 Z " />
<glyph glyph-name="Ubreve" unicode="&#x16c;" horiz-adv-x="256" d="M50 104 C50 32 77 -5 128 -5 C179 -5 206 33 206 104 L206 700 L181 700 L181 104 C181 44 165 18 128 18 C91 18 75 44 75 104 L75 700 L50 700 L50 104 Z M66 815 C66 770 87 747 128 747 C169 747 190 770 190 815 L190 818 L166 818 L166 815 C166 785 154 770 128 770 C102 770 90 785 90 815 L90 818 L66 818 L66 815 Z " />
<glyph glyph-name="ubreve" unicode="&#x16d;" horiz-adv-x="248" d="M50 77 C50 23 71 -5 113 -5 C142 -5 162 9 175 38 L183 -3 L198 -3 L198 540 L174 540 L174 81 C164 38 146 17 117 17 C88 17 74 36 74 77 L74 540 L50 540 L50 77 Z M62 655 C62 610 83 587 124 587 C165 587 186 610 186 655 L186 658 L162 658 L162 655 C162 625 150 610 124 610 C98 610 86 625 86 655 L86 658 L62 658 L62 655 Z " />
<glyph glyph-name="Uring" unicode="&#x16e;" horiz-adv-x="256" d="M50 104 C50 32 77 -5 128 -5 C179 -5 206 33 206 104 L206 700 L181 700 L181 104 C181 44 165 18 128 18 C91 18 75 44 75 104 L75 700 L50 700 L50 104 Z M128 751 C107 751 92 766 92 788 C92 810 107 825 128 825 C149 825 164 810 164 788 C164 766 149 751 128 751 L128 751 Z M69 788 C69 755 94 730 128 730 C162 730 187 754 187 788 C187 821 162 846 128 846 C94 846 69 821 69 788 L69 788 Z " />
<glyph glyph-name="uring" unicode="&#x16f;" horiz-adv-x="248" d="M50 77 C50 23 71 -5 113 -5 C142 -5 162 9 175 38 L183 -3 L198 -3 L198 540 L174 540 L174 81 C164 38 146 17 117 17 C88 17 74 36 74 77 L74 540 L50 540 L50 77 Z M124 591 C103 591 88 606 88 628 C88 650 103 665 124 665 C145 665 160 650 160 628 C160 606 145 591 124 591 L124 591 Z M65 628 C65 595 90 570 124 570 C158 570 183 594 183 628 C183 661 158 686 124 686 C90 686 65 661 65 628 L65 628 Z " />
<glyph glyph-name="Uhungarumlaut" unicode="&#x170;" horiz-adv-x="256" d="M50 104 C50 32 77 -5 128 -5 C179 -5 206 33 206 104 L206 700 L181 700 L181 104 C181 44 165 18 128 18 C91 18 75 44 75 104 L75 700 L50 700 L50 104 Z M89 732 L104 732 L155 834 L117 834 L89 732 Z M149 732 L164 732 L215 834 L177 834 L149 732 Z " />
<glyph glyph-name="uhungarumlaut" unicode="&#x171;" horiz-adv-x="248" d="M50 77 C50 23 71 -5 113 -5 C142 -5 162 9 175 38 L183 -3 L198 -3 L198 540 L174 540 L174 81 C164 38 146 17 117 17 C88 17 74 36 74 77 L74 540 L50 540 L50 77 Z M85 572 L100 572 L151 674 L113 674 L85 572 Z M145 572 L160 572 L211 674 L173 674 L145 572 Z " />
<glyph glyph-name="Uogonek" unicode="&#x172;" horiz-adv-x="256" d="M167 -117 C151 -122 143 -123 136 -123 C111 -123 97 -110 97 -84 C97 -56 113 -35 166 5 C193 21 206 54 206 104 L206 700 L181 700 L181 104 C181 44 165 18 128 18 C91 18 75 44 75 104 L75 700 L50 700 L50 104 C50 32 77 -5 128 -5 C90 -30 72 -57 72 -89 C72 -124 95 -145 134 -145 C146 -145 156 -143 167 -139 L167 -117 Z " />
<glyph glyph-name="uogonek" unicode="&#x173;" horiz-adv-x="248" d="M198 -117 C182 -122 174 -123 167 -123 C142 -123 128 -110 128 -86 C128 -58 149 -39 198 0 L198 540 L174 540 L174 81 C164 38 146 17 117 17 C88 17 74 36 74 77 L74 540 L50 540 L50 77 C50 23 71 -5 112 -5 C142 -5 163 10 175 39 L181 10 C128 -29 103 -54 103 -89 C103 -124 126 -145 165 -145 C177 -145 187 -143 198 -139 L198 -117 Z " />
<glyph glyph-name="Wcircumflex" unicode="&#x174;" horiz-adv-x="410" d="M96 0 L127 0 L193 540 C197 575 201 622 203 649 L206 649 C207 623 210 575 214 540 L267 0 L298 0 L385 700 L361 700 L299 189 C294 147 288 89 285 53 L283 53 L221 700 L190 700 L113 53 L111 53 C106 125 103 160 100 190 L50 700 L25 700 L96 0 Z M131 732 L148 732 L206 805 L263 732 L279 732 L222 834 L190 834 L131 732 Z " />
<glyph glyph-name="wcircumflex" unicode="&#x175;" horiz-adv-x="332" d="M78 0 L108 0 L156 394 C160 427 164 470 166 501 L168 501 C170 471 176 396 178 375 L221 0 L250 0 L317 540 L295 540 L252 190 C246 143 241 95 236 47 L235 47 C231 92 224 156 220 191 L181 540 L154 540 L112 190 C107 150 100 91 95 47 L93 47 C89 92 83 156 79 191 L39 540 L15 540 L78 0 Z M92 572 L109 572 L167 645 L224 572 L240 572 L183 674 L151 674 L92 572 Z " />
<glyph glyph-name="Ycircumflex" unicode="&#x176;" horiz-adv-x="230" d="M101 0 L126 0 L126 288 L215 701 L191 701 L116 346 L113 346 L41 700 L15 700 L101 288 L101 0 Z M41 732 L58 732 L116 805 L173 732 L189 732 L132 834 L100 834 L41 732 Z " />
<glyph glyph-name="ycircumflex" unicode="&#x177;" horiz-adv-x="210" d="M10 -155 C15 -158 25 -160 36 -160 C79 -160 101 -133 110 -65 L195 540 L172 540 L123 190 C119 162 112 105 107 62 L106 62 C101 105 94 160 90 191 L42 540 L18 540 L94 -10 L86 -65 C78 -120 65 -138 36 -138 C26 -138 19 -136 10 -133 L10 -155 Z M32 572 L49 572 L107 645 L164 572 L180 572 L123 674 L91 674 L32 572 Z " />
<glyph glyph-name="Ydieresis" unicode="&#x178;" horiz-adv-x="230" d="M101 0 L126 0 L126 288 L215 701 L191 701 L116 346 L113 346 L41 700 L15 700 L101 288 L101 0 Z M72 765 C88 765 97 775 97 790 C97 806 88 815 72 815 C57 815 47 807 47 790 C47 773 57 765 72 765 L72 765 Z M158 765 C174 765 183 775 183 790 C183 806 174 815 158 815 C143 815 133 807 133 790 C133 773 143 765 158 765 L158 765 Z " />
<glyph glyph-name="Zacute" unicode="&#x179;" horiz-adv-x="194" d="M25 0 L169 0 L169 23 L51 23 L169 677 L169 700 L30 700 L30 677 L145 677 L25 23 L25 0 Z M93 732 L110 732 L178 834 L133 834 L93 732 Z " />
<glyph glyph-name="zacute" unicode="&#x17a;" horiz-adv-x="183" d="M30 0 L153 0 L153 22 L54 22 L153 518 L153 540 L32 540 L32 518 L129 518 L30 22 L30 0 Z M83 572 L100 572 L168 674 L123 674 L83 572 Z " />
<glyph glyph-name="Zdotaccent" unicode="&#x17b;" horiz-adv-x="194" d="M25 0 L169 0 L169 23 L51 23 L169 677 L169 700 L30 700 L30 677 L145 677 L25 23 L25 0 Z M74 790 C74 772 85 763 101 763 C118 763 128 774 128 790 C128 807 118 817 101 817 C85 817 74 808 74 790 L74 790 Z " />
<glyph glyph-name="zdotaccent" unicode="&#x17c;" horiz-adv-x="183" d="M30 0 L153 0 L153 22 L54 22 L153 518 L153 540 L32 540 L32 518 L129 518 L30 22 L30 0 Z M64 630 C64 612 75 603 91 603 C108 603 118 614 118 630 C118 647 108 657 91 657 C75 657 64 648 64 630 L64 630 Z " />
<glyph glyph-name="Zcaron" unicode="&#x17d;" horiz-adv-x="194" d="M25 0 L169 0 L169 23 L51 23 L169 677 L169 700 L30 700 L30 677 L145 677 L25 23 L25 0 Z M84 732 L116 732 L175 834 L158 834 L100 761 L43 834 L27 834 L84 732 Z " />
<glyph glyph-name="zcaron" unicode="&#x17e;" horiz-adv-x="183" d="M30 0 L153 0 L153 22 L54 22 L153 518 L153 540 L32 540 L32 518 L129 518 L30 22 L30 0 Z M74 572 L106 572 L165 674 L148 674 L90 601 L33 674 L17 674 L74 572 Z " />
<glyph glyph-name="uni018F" unicode="&#x18f;" horiz-adv-x="253" d="M45 105 C45 33 72 -5 124 -5 C175 -5 203 34 203 105 L203 594 C203 666 175 705 124 705 C73 705 45 667 45 594 L45 510 L70 510 L70 594 C70 654 87 682 124 682 C161 682 178 654 178 594 L178 375 L45 375 L45 105 Z M178 105 C178 44 161 18 124 18 C87 18 70 45 70 105 L70 352 L178 352 L178 105 Z " />
<glyph glyph-name="florin" unicode="&#x192;" horiz-adv-x="195" d="M-25 -158 C-22 -159 -14 -160 -5 -160 C48 -160 78 -127 82 -62 L120 492 L189 492 L189 514 L121 514 L127 602 C131 655 148 678 183 678 C191 678 201 677 210 676 L210 698 C207 699 199 700 190 700 C137 700 107 667 103 602 L97 514 L56 507 L56 492 L96 492 L58 -62 C54 -115 37 -138 2 -138 C-6 -138 -16 -137 -25 -136 L-25 -158 Z " />
<glyph glyph-name="Aringacute" unicode="&#x1fa;" horiz-adv-x="247" d="M30 0 L54 0 L75 183 L173 183 L192 0 L217 0 L145 685 C170 691 187 712 187 739 C187 770 162 795 128 795 C94 795 69 770 69 739 C69 713 87 691 112 685 L30 0 Z M78 206 L113 511 C117 545 123 606 126 642 L129 642 C131 606 136 550 140 510 L171 206 L78 206 Z M120 811 L137 811 L191 888 L148 888 L120 811 Z M92 739 C92 759 107 774 128 774 C149 774 164 759 164 739 C164 719 149 704 128 704 C107 704 92 719 92 739 L92 739 Z " />
<glyph glyph-name="aringacute" unicode="&#x1fb;" horiz-adv-x="231" d="M45 81 C45 24 63 -5 98 -5 C125 -5 147 13 157 40 L166 -3 L181 -3 L181 458 C181 516 159 545 116 545 C74 545 51 515 51 458 L51 385 L75 385 L75 458 C75 504 87 523 116 523 C145 523 157 503 157 458 L157 325 L133 325 C74 325 45 288 45 217 L45 81 Z M157 81 C147 38 130 17 106 17 C81 17 69 38 69 81 L69 217 C69 276 88 303 133 303 L157 303 L157 81 Z M82 622 C82 642 97 657 118 657 C139 657 154 642 154 622 C154 602 139 587 118 587 C97 587 82 602 82 622 L82 622 Z M59 622 C59 591 84 566 118 566 C152 566 177 590 177 622 C177 653 152 678 118 678 C84 678 59 653 59 622 L59 622 Z M110 694 L127 694 L181 771 L138 771 L110 694 Z " />
<glyph glyph-name="AEacute" unicode="&#x1fc;" horiz-adv-x="284" d="M0 0 L24 0 L57 195 L139 195 L139 0 L264 0 L264 23 L163 23 L163 342 L253 342 L253 365 L163 365 L163 677 L262 677 L262 700 L123 700 L0 0 Z M61 218 L115 531 C123 579 133 647 137 677 L139 677 L139 218 L61 218 Z M154 731 L171 731 L239 833 L194 833 L154 731 Z " />
<glyph glyph-name="aeacute" unicode="&#x1fd;" horiz-adv-x="344" d="M45 91 C45 27 67 -5 112 -5 C142 -5 162 9 174 31 C184 7 204 -5 232 -5 C280 -5 304 29 304 93 L304 164 L280 164 L280 93 C280 40 267 17 233 17 C200 17 186 40 186 91 L186 279 L304 279 L304 447 C304 512 281 545 234 545 C207 545 188 534 176 512 C166 534 147 545 119 545 C74 545 51 515 51 458 L51 385 L75 385 L75 458 C75 504 88 523 120 523 C151 523 163 503 163 458 L163 301 L136 301 C75 301 45 265 45 197 L45 91 Z M163 91 C163 40 150 17 117 17 C83 17 69 40 69 91 L69 197 C69 252 89 279 136 279 L163 279 L163 91 Z M186 301 L186 447 C186 500 199 523 233 523 C266 523 280 499 280 447 L280 301 L186 301 Z M168 572 L185 572 L253 674 L208 674 L168 572 Z " />
<glyph glyph-name="Oslashacute" unicode="&#x1fe;" horiz-adv-x="260" d="M130 705 C78 705 50 667 50 594 L50 105 C50 75 55 51 64 33 L53 -30 L76 -30 L83 10 C95 0 111 -5 130 -5 C182 -5 210 34 210 105 L210 594 C210 625 205 649 196 667 L207 730 L184 730 L177 690 C165 700 149 705 130 705 L130 705 Z M77 96 L75 96 L75 594 C75 654 92 682 130 682 C149 682 163 675 172 661 L77 96 Z M183 604 L185 604 L185 105 C185 44 168 18 130 18 C111 18 97 25 88 39 L183 604 Z M122 732 L139 732 L207 834 L162 834 L122 732 Z " />
<glyph glyph-name="oslashacute" unicode="&#x1ff;" horiz-adv-x="240" d="M45 -30 L67 -30 L75 9 C87 0 102 -5 120 -5 C169 -5 195 28 195 94 L195 446 C195 472 191 494 182 510 L195 570 L173 570 L165 531 C153 540 138 545 120 545 C71 545 45 511 45 446 L45 94 C45 67 49 46 58 30 L45 -30 Z M69 87 L69 446 C69 498 85 523 120 523 C138 523 151 517 159 504 L71 87 L69 87 Z M171 94 C171 40 155 17 120 17 C102 17 89 23 81 36 L169 454 L171 454 L171 94 Z M112 572 L129 572 L197 674 L152 674 L112 572 Z " />
<glyph glyph-name="Scommaaccent" unicode="&#x218;" horiz-adv-x="212" d="M35 97 C35 30 59 -5 104 -5 C151 -5 177 34 177 105 C177 213 174 226 119 354 C66 475 64 485 64 595 C64 656 77 682 108 682 C139 682 152 658 152 604 L152 510 L177 510 L177 604 C177 671 154 705 109 705 C63 705 39 667 39 595 C39 482 42 473 98 340 C146 228 152 213 152 105 C152 46 137 18 105 18 C74 18 60 43 60 97 L60 210 L35 210 L35 97 Z M95 -168 C121 -91 121 -90 121 -35 L91 -35 L91 -39 C91 -90 91 -93 80 -168 L95 -168 Z " />
<glyph glyph-name="scommaaccent" unicode="&#x219;" horiz-adv-x="205" d="M35 93 C35 29 58 -5 101 -5 C146 -5 170 29 170 93 C170 184 168 190 110 286 C64 363 62 368 62 447 C62 499 75 523 104 523 C133 523 146 499 146 447 L146 370 L170 370 L170 447 C170 512 148 545 105 545 C61 545 38 510 38 447 C38 362 40 356 94 266 C143 184 146 179 146 93 C146 40 133 17 103 17 C73 17 59 41 59 93 L59 174 L35 174 L35 93 Z M93 -168 C119 -91 119 -90 119 -35 L89 -35 L89 -39 C89 -90 89 -93 78 -168 L93 -168 Z " />
<glyph glyph-name="uni021A" unicode="&#x21a;" horiz-adv-x="187" d="M81 0 L106 0 L106 677 L172 677 L172 700 L15 700 L15 677 L81 677 L81 0 Z M83 -168 C109 -91 109 -90 109 -35 L79 -35 L79 -39 C79 -90 79 -93 68 -168 L83 -168 Z " />
<glyph glyph-name="uni021B" unicode="&#x21b;" horiz-adv-x="164" d="M55 89 C55 27 78 -3 124 -3 C138 -3 151 0 159 3 L159 26 C150 23 137 21 126 21 C93 21 79 43 79 95 L79 518 L148 518 L148 540 L79 540 L79 648 L65 648 L54 540 L15 533 L15 518 L55 518 L55 89 Z M99 -168 C125 -91 125 -90 125 -35 L95 -35 L95 -39 C95 -90 95 -93 84 -168 L99 -168 Z " />
<glyph glyph-name="uni0232" unicode="&#x232;" horiz-adv-x="230" d="M101 0 L126 0 L126 288 L215 701 L191 701 L116 346 L113 346 L41 700 L15 700 L101 288 L101 0 Z M47 777 L183 777 L183 801 L47 801 L47 777 Z " />
<glyph glyph-name="uni0233" unicode="&#x233;" horiz-adv-x="210" d="M10 -155 C15 -158 25 -160 36 -160 C79 -160 101 -133 110 -65 L195 540 L172 540 L123 190 C119 162 112 105 107 62 L106 62 C101 105 94 160 90 191 L42 540 L18 540 L94 -10 L86 -65 C78 -120 65 -138 36 -138 C26 -138 19 -136 10 -133 L10 -155 Z M38 617 L174 617 L174 641 L38 641 L38 617 Z " />
<glyph glyph-name="uni0244" unicode="&#x244;" horiz-adv-x="256" d="M50 104 C50 32 77 -5 128 -5 C179 -5 206 33 206 104 L206 362 L236 362 L236 385 L206 385 L206 700 L181 700 L181 385 L75 385 L75 700 L50 700 L50 385 L20 385 L20 362 L50 362 L50 104 Z M181 104 C181 44 165 18 128 18 C91 18 75 44 75 104 L75 362 L181 362 L181 104 Z " />
<glyph glyph-name="uni0259" unicode="&#x259;" horiz-adv-x="231" d="M40 93 C40 28 65 -5 113 -5 C160 -5 186 29 186 93 L186 447 C186 513 162 545 115 545 C66 545 40 511 40 447 L40 376 L64 376 L64 447 C64 500 79 523 113 523 C146 523 162 499 162 447 L162 276 L40 276 L40 93 Z M162 93 C162 40 147 17 113 17 C80 17 64 41 64 93 L64 254 L162 254 L162 93 Z " />
<glyph glyph-name="uni0289" unicode="&#x289;" horiz-adv-x="248" d="M50 77 C50 23 71 -5 113 -5 C142 -5 162 9 175 38 L183 -3 L198 -3 L198 289 L228 289 L228 311 L198 311 L198 540 L174 540 L174 311 L74 311 L74 540 L50 540 L50 311 L20 311 L20 289 L50 289 L50 77 Z M174 81 C164 38 146 17 117 17 C88 17 74 36 74 77 L74 289 L174 289 L174 81 Z " />
<glyph glyph-name="uni02BC" unicode="&#x2bc;" horiz-adv-x="61" d="M25 567 C51 644 51 645 51 700 L21 700 L21 696 C21 645 21 642 10 567 L25 567 Z " />
<glyph glyph-name="circumflex" unicode="&#x2c6;" horiz-adv-x="168" d="M10 572 L27 572 L85 645 L142 572 L158 572 L101 674 L69 674 L10 572 Z " />
<glyph glyph-name="caron" unicode="&#x2c7;" horiz-adv-x="168" d="M67 572 L99 572 L158 674 L141 674 L83 601 L26 674 L10 674 L67 572 Z " />
<glyph glyph-name="breve" unicode="&#x2d8;" horiz-adv-x="144" d="M10 655 C10 610 31 587 72 587 C113 587 134 610 134 655 L134 658 L110 658 L110 655 C110 625 98 610 72 610 C46 610 34 625 34 655 L34 658 L10 658 L10 655 Z " />
<glyph glyph-name="dotaccent" unicode="&#x2d9;" horiz-adv-x="74" d="M10 630 C10 612 21 603 37 603 C54 603 64 614 64 630 C64 647 54 657 37 657 C21 657 10 648 10 630 L10 630 Z " />
<glyph glyph-name="ring" unicode="&#x2da;" horiz-adv-x="138" d="M69 591 C48 591 33 606 33 628 C33 650 48 665 69 665 C90 665 105 650 105 628 C105 606 90 591 69 591 L69 591 Z M10 628 C10 595 35 570 69 570 C103 570 128 594 128 628 C128 661 103 686 69 686 C35 686 10 661 10 628 L10 628 Z " />
<glyph glyph-name="ogonek" unicode="&#x2db;" horiz-adv-x="115" d="M105 -117 C89 -122 81 -123 74 -123 C49 -123 35 -110 35 -86 C35 -58 53 -36 105 0 L82 0 C31 -27 10 -56 10 -90 C10 -124 33 -145 72 -145 C84 -145 94 -143 105 -139 L105 -117 Z " />
<glyph glyph-name="tilde" unicode="&#x2dc;" horiz-adv-x="152" d="M10 607 L35 607 C35 624 39 631 48 631 C54 631 59 628 68 622 C89 608 96 605 106 605 C129 605 142 619 142 649 L142 652 L117 652 C117 635 113 628 104 628 C98 628 94 630 83 637 C64 650 55 654 44 654 C23 654 10 639 10 610 L10 607 Z " />
<glyph glyph-name="hungarumlaut" unicode="&#x2dd;" horiz-adv-x="146" d="M10 572 L25 572 L76 674 L38 674 L10 572 Z M70 572 L85 572 L136 674 L98 674 L70 572 Z " />
<glyph glyph-name="uni0301" unicode="&#x301;" d="M-145 752 L-128 752 L-60 854 L-105 854 L-145 752 Z " />
<glyph glyph-name="uni030A" unicode="&#x30a;" d="M-134 771 C-155 771 -170 786 -170 808 C-170 830 -155 845 -134 845 C-113 845 -98 830 -98 808 C-98 786 -113 771 -134 771 L-134 771 Z M-193 808 C-193 775 -168 750 -134 750 C-100 750 -75 774 -75 808 C-75 841 -100 866 -134 866 C-168 866 -193 841 -193 808 L-193 808 Z " />
<glyph glyph-name="uni0326" unicode="&#x326;" horiz-adv-x="61" d="M25 -168 C51 -91 51 -90 51 -35 L21 -35 L21 -39 C21 -90 21 -93 10 -168 L25 -168 Z " />
<glyph glyph-name="uni0401" unicode="&#x401;" horiz-adv-x="206" d="M55 0 L186 0 L186 23 L80 23 L80 342 L175 342 L175 365 L80 365 L80 677 L184 677 L184 700 L55 700 L55 0 Z M77 765 C93 765 102 775 102 790 C102 806 93 815 77 815 C62 815 52 807 52 790 C52 773 62 765 77 765 L77 765 Z M163 765 C179 765 188 775 188 790 C188 806 179 815 163 815 C148 815 138 807 138 790 C138 773 148 765 163 765 L163 765 Z " />
<glyph glyph-name="uni0402" unicode="&#x402;" horiz-adv-x="259" d="M81 0 L106 0 L106 415 C112 417 123 418 131 418 C178 418 199 383 199 310 L199 106 C199 49 182 23 144 23 L144 0 C196 0 224 36 224 106 L224 310 C224 397 194 441 137 441 C125 441 113 439 106 437 L106 677 L172 677 L172 700 L15 700 L15 677 L81 677 L81 0 Z " />
<glyph glyph-name="uni0403" unicode="&#x403;" horiz-adv-x="188" d="M55 0 L80 0 L80 677 L183 677 L183 700 L55 700 L55 0 Z M111 732 L128 732 L196 834 L151 834 L111 732 Z " />
<glyph glyph-name="uni0404" unicode="&#x404;" horiz-adv-x="235" d="M50 105 C50 33 75 -5 125 -5 C175 -5 200 33 200 105 L200 200 L175 200 L175 105 C175 45 159 18 125 18 C90 18 75 45 75 105 L75 351 L185 351 L185 374 L75 374 L75 594 C75 655 90 682 125 682 C160 682 175 655 175 594 L175 520 L200 520 L200 594 C200 666 174 705 125 705 C76 705 50 667 50 594 L50 105 Z " />
<glyph glyph-name="uni0405" unicode="&#x405;" horiz-adv-x="212" d="M35 97 C35 30 59 -5 104 -5 C151 -5 177 34 177 105 C177 213 174 226 119 354 C66 475 64 485 64 595 C64 656 77 682 108 682 C139 682 152 658 152 604 L152 510 L177 510 L177 604 C177 671 154 705 109 705 C63 705 39 667 39 595 C39 482 42 473 98 340 C146 228 152 213 152 105 C152 46 137 18 105 18 C74 18 60 43 60 97 L60 210 L35 210 L35 97 Z " />
<glyph glyph-name="uni0406" unicode="&#x406;" horiz-adv-x="135" d="M55 0 L80 0 L80 700 L55 700 L55 0 Z " />
<glyph glyph-name="uni0407" unicode="&#x407;" horiz-adv-x="140" d="M57 0 L82 0 L82 700 L57 700 L57 0 Z M35 765 C51 765 60 775 60 790 C60 806 51 815 35 815 C20 815 10 807 10 790 C10 773 20 765 35 765 L35 765 Z M105 765 C121 765 130 775 130 790 C130 806 121 815 105 815 C90 815 80 807 80 790 C80 773 90 765 105 765 L105 765 Z " />
<glyph glyph-name="uni0408" unicode="&#x408;" horiz-adv-x="135" d="M-35 -157 C-30 -159 -18 -160 -8 -160 C51 -160 80 -122 80 -49 L80 700 L55 700 L55 -49 C55 -110 37 -135 -6 -135 C-14 -135 -22 -134 -35 -132 L-35 -157 Z " />
<glyph glyph-name="uni0409" unicode="&#x409;" horiz-adv-x="356" d="M10 -3 L14 -3 C77 -3 92 47 92 225 L92 676 L178 676 L178 0 L221 0 C286 0 321 43 321 121 L321 268 C321 346 286 389 221 389 L203 389 L203 700 L67 700 L67 317 C67 73 61 22 14 22 L10 22 L10 -3 Z M203 23 L203 366 L221 366 C273 366 296 336 296 268 L296 121 C296 53 273 23 221 23 L203 23 Z " />
<glyph glyph-name="uni040A" unicode="&#x40a;" horiz-adv-x="363" d="M55 0 L80 0 L80 366 L185 366 L185 0 L228 0 C293 0 328 43 328 121 L328 268 C328 346 293 389 228 389 L210 389 L210 700 L185 700 L185 389 L80 389 L80 700 L55 700 L55 0 Z M210 23 L210 366 L228 366 C280 366 303 336 303 268 L303 121 C303 53 280 23 228 23 L210 23 Z " />
<glyph glyph-name="uni040B" unicode="&#x40b;" horiz-adv-x="259" d="M81 0 L106 0 L106 415 C112 417 123 418 131 418 C178 418 199 383 199 310 L199 0 L224 0 L224 310 C224 397 194 441 137 441 C125 441 113 439 106 437 L106 677 L172 677 L172 700 L15 700 L15 677 L81 677 L81 0 Z " />
<glyph glyph-name="uni040C" unicode="&#x40c;" horiz-adv-x="251" d="M55 0 L80 0 L80 339 L124 339 L211 0 L236 0 L146 352 L229 700 L205 700 L124 362 L80 362 L80 700 L55 700 L55 0 Z M133 732 L150 732 L218 834 L173 834 L133 732 Z " />
<glyph glyph-name="uni040E" unicode="&#x40e;" horiz-adv-x="222" d="M30 -3 C34 -4 39 -5 47 -5 C89 -5 112 23 122 100 L202 700 L178 700 L113 186 L111 186 L45 700 L20 700 L99 111 L98 106 C90 39 75 20 45 20 C39 20 34 21 30 22 L30 -3 Z M49 815 C49 770 70 747 111 747 C152 747 173 770 173 815 L173 818 L147 818 L147 815 C147 783 135 768 111 768 C87 768 75 783 75 815 L75 818 L49 818 L49 815 Z " />
<glyph glyph-name="uni040F" unicode="&#x40f;" horiz-adv-x="264" d="M120 -98 L145 -98 L145 0 L209 0 L209 700 L184 700 L184 23 L80 23 L80 700 L55 700 L55 0 L120 0 L120 -98 Z " />
<glyph glyph-name="uni0410" unicode="&#x410;" horiz-adv-x="247" d="M30 0 L54 0 L75 183 L173 183 L192 0 L217 0 L143 700 L114 700 L30 0 Z M78 206 L113 511 C117 545 123 606 126 642 L129 642 C131 606 136 550 140 510 L171 206 L78 206 Z " />
<glyph glyph-name="uni0411" unicode="&#x411;" horiz-adv-x="238" d="M55 0 L103 0 C168 0 203 43 203 121 L203 303 C203 381 168 424 103 424 L80 424 L80 678 L193 678 L193 700 L55 700 L55 0 Z M80 23 L80 401 L103 401 C155 401 178 371 178 303 L178 121 C178 53 155 23 103 23 L80 23 Z " />
<glyph glyph-name="uni0412" unicode="&#x412;" horiz-adv-x="243" d="M55 0 L103 0 C168 0 203 43 203 121 L203 249 C203 304 185 341 151 357 C184 374 201 410 201 464 L201 579 C201 657 166 700 101 700 L55 700 L55 0 Z M80 23 L80 345 L103 345 C155 345 178 314 178 250 L178 121 C178 53 155 23 103 23 L80 23 Z M80 368 L80 677 L101 677 C153 677 176 647 176 579 L176 463 C176 399 153 368 101 368 L80 368 Z " />
<glyph glyph-name="uni0413" unicode="&#x413;" horiz-adv-x="188" d="M55 0 L80 0 L80 677 L183 677 L183 700 L55 700 L55 0 Z " />
<glyph glyph-name="uni0414" unicode="&#x414;" horiz-adv-x="258" d="M10 -98 L35 -98 L35 0 L213 0 L213 -98 L238 -98 L238 23 L203 23 L203 700 L70 700 L70 648 C70 264 60 96 26 23 L10 23 L10 -98 Z M52 23 C80 74 95 288 95 639 L95 677 L178 677 L178 23 L52 23 Z " />
<glyph glyph-name="uni0415" unicode="&#x415;" horiz-adv-x="206" d="M55 0 L186 0 L186 23 L80 23 L80 342 L175 342 L175 365 L80 365 L80 677 L184 677 L184 700 L55 700 L55 0 Z " />
<glyph glyph-name="uni0416" unicode="&#x416;" horiz-adv-x="325" d="M10 0 L35 0 L114 339 L150 339 L150 0 L175 0 L175 339 L211 339 L290 0 L315 0 L233 352 L308 700 L284 700 L211 362 L175 362 L175 700 L150 700 L150 362 L114 362 L41 700 L17 700 L92 352 L10 0 Z " />
<glyph glyph-name="uni0417" unicode="&#x417;" horiz-adv-x="227" d="M35 106 C35 33 61 -5 111 -5 C161 -5 187 33 187 106 L187 239 C187 306 171 346 132 363 C168 380 185 419 185 482 L185 598 C185 669 160 705 111 705 C63 705 37 668 37 598 L37 520 L62 520 L62 598 C62 656 77 682 111 682 C145 682 160 656 160 598 L160 482 C160 405 137 374 77 374 L62 374 L62 351 L77 351 C138 351 162 320 162 239 L162 106 C162 46 147 18 111 18 C76 18 60 45 60 106 L60 200 L35 200 L35 106 Z " />
<glyph glyph-name="uni0418" unicode="&#x418;" horiz-adv-x="292" d="M55 0 L89 0 L213 643 L216 643 C214 598 212 539 212 488 L212 0 L237 0 L237 700 L203 700 L79 58 L76 58 C78 103 80 160 80 212 L80 700 L55 700 L55 0 Z " />
<glyph glyph-name="uni0419" unicode="&#x419;" horiz-adv-x="292" d="M55 0 L89 0 L213 643 L216 643 C214 598 212 539 212 488 L212 0 L237 0 L237 700 L203 700 L79 58 L76 58 C78 103 80 160 80 212 L80 700 L55 700 L55 0 Z M84 815 C84 770 105 747 146 747 C187 747 208 770 208 815 L208 818 L182 818 L182 815 C182 783 170 768 146 768 C122 768 110 783 110 815 L110 818 L84 818 L84 815 Z " />
<glyph glyph-name="uni041A" unicode="&#x41a;" horiz-adv-x="251" d="M55 0 L80 0 L80 339 L124 339 L211 0 L236 0 L146 352 L229 700 L205 700 L124 362 L80 362 L80 700 L55 700 L55 0 Z " />
<glyph glyph-name="uni041B" unicode="&#x41b;" horiz-adv-x="260" d="M10 -3 L14 -3 C77 -3 92 47 92 225 L92 676 L180 676 L180 0 L205 0 L205 700 L67 700 L67 317 C67 73 61 22 14 22 L10 22 L10 -3 Z " />
<glyph glyph-name="uni041C" unicode="&#x41c;" horiz-adv-x="340" d="M45 0 L69 0 L80 490 C81 536 82 607 82 646 L84 646 L156 139 L182 139 L256 646 L258 646 C258 607 259 542 260 490 L271 0 L295 0 L278 700 L243 700 L186 313 C180 274 174 226 170 190 L169 190 C165 226 159 274 153 313 L98 700 L62 700 L45 0 Z " />
<glyph glyph-name="uni041D" unicode="&#x41d;" horiz-adv-x="270" d="M55 0 L80 0 L80 343 L190 343 L190 0 L215 0 L215 700 L190 700 L190 366 L80 366 L80 700 L55 700 L55 0 Z " />
<glyph glyph-name="uni041E" unicode="&#x41e;" horiz-adv-x="260" d="M185 105 C185 44 168 18 130 18 C92 18 75 45 75 105 L75 594 C75 654 92 682 130 682 C168 682 185 654 185 594 L185 105 Z M50 105 C50 33 77 -5 130 -5 C182 -5 210 34 210 105 L210 594 C210 666 182 705 130 705 C78 705 50 667 50 594 L50 105 Z " />
<glyph glyph-name="uni041F" unicode="&#x41f;" horiz-adv-x="266" d="M55 0 L80 0 L80 677 L186 677 L186 0 L211 0 L211 700 L55 700 L55 0 Z " />
<glyph glyph-name="uni0420" unicode="&#x420;" horiz-adv-x="241" d="M55 0 L80 0 L80 297 L101 297 C166 297 201 340 201 418 L201 579 C201 657 166 700 101 700 L55 700 L55 0 Z M80 320 L80 677 L101 677 C153 677 176 647 176 579 L176 418 C176 350 153 320 101 320 L80 320 Z " />
<glyph glyph-name="uni0421" unicode="&#x421;" horiz-adv-x="235" d="M50 105 C50 33 75 -5 125 -5 C174 -5 200 34 200 105 L200 210 L175 210 L175 105 C175 44 160 18 125 18 C90 18 75 45 75 105 L75 594 C75 654 90 682 125 682 C160 682 175 654 175 594 L175 510 L200 510 L200 594 C200 666 174 705 125 705 C76 705 50 667 50 594 L50 105 Z " />
<glyph glyph-name="uni0422" unicode="&#x422;" horiz-adv-x="187" d="M81 0 L106 0 L106 677 L172 677 L172 700 L15 700 L15 677 L81 677 L81 0 Z " />
<glyph glyph-name="uni0423" unicode="&#x423;" horiz-adv-x="222" d="M30 -3 C34 -4 39 -5 47 -5 C89 -5 112 23 122 100 L202 700 L178 700 L113 186 L111 186 L45 700 L20 700 L99 111 L98 106 C90 39 75 20 45 20 C39 20 34 21 30 22 L30 -3 Z " />
<glyph glyph-name="uni0424" unicode="&#x424;" horiz-adv-x="299" d="M137 -25 L162 -25 L162 50 L164 50 C227 50 259 87 259 160 L259 539 C259 611 226 650 164 650 L162 650 L162 725 L137 725 L137 650 L135 650 C73 650 40 611 40 539 L40 160 C40 87 72 50 135 50 L137 50 L137 -25 Z M135 73 C87 73 65 100 65 160 L65 539 C65 605 88 627 135 627 L137 627 L137 73 L135 73 Z M162 73 L162 627 L164 627 C211 627 234 605 234 539 L234 160 C234 100 212 73 164 73 L162 73 Z " />
<glyph glyph-name="uni0425" unicode="&#x425;" horiz-adv-x="236" d="M20 0 L44 0 L114 321 L117 321 L191 0 L216 0 L131 355 L210 700 L186 700 L119 394 L116 394 L49 700 L24 700 L101 358 L20 0 Z " />
<glyph glyph-name="uni0426" unicode="&#x426;" horiz-adv-x="264" d="M55 0 L214 0 L214 -98 L239 -98 L239 23 L209 23 L209 700 L184 700 L184 23 L80 23 L80 700 L55 700 L55 0 Z " />
<glyph glyph-name="uni0427" unicode="&#x427;" horiz-adv-x="243" d="M163 0 L188 0 L188 700 L163 700 L163 285 C157 283 146 282 138 282 C91 282 70 317 70 390 L70 700 L45 700 L45 390 C45 303 75 259 132 259 C144 259 156 261 163 263 L163 0 Z " />
<glyph glyph-name="uni0428" unicode="&#x428;" horiz-adv-x="385" d="M55 0 L330 0 L330 700 L305 700 L305 23 L205 23 L205 700 L180 700 L180 23 L80 23 L80 700 L55 700 L55 0 Z " />
<glyph glyph-name="uni0429" unicode="&#x429;" horiz-adv-x="385" d="M55 0 L335 0 L335 -98 L360 -98 L360 23 L330 23 L330 700 L305 700 L305 23 L205 23 L205 700 L180 700 L180 23 L80 23 L80 700 L55 700 L55 0 Z " />
<glyph glyph-name="uni042A" unicode="&#x42a;" horiz-adv-x="238" d="M55 0 L103 0 C168 0 203 43 203 121 L203 303 C203 381 168 424 103 424 L80 424 L80 700 L10 700 L10 677 L55 677 L55 0 Z M80 23 L80 401 L103 401 C155 401 178 371 178 303 L178 121 C178 53 155 23 103 23 L80 23 Z " />
<glyph glyph-name="uni042B" unicode="&#x42b;" horiz-adv-x="335" d="M55 0 L100 0 C165 0 200 43 200 121 L200 303 C200 381 165 424 100 424 L80 424 L80 700 L55 700 L55 0 Z M255 0 L280 0 L280 700 L255 700 L255 0 Z M80 23 L80 401 L100 401 C152 401 175 371 175 303 L175 121 C175 53 152 23 100 23 L80 23 Z " />
<glyph glyph-name="uni042C" unicode="&#x42c;" horiz-adv-x="238" d="M55 0 L103 0 C168 0 203 43 203 121 L203 303 C203 381 168 424 103 424 L80 424 L80 700 L55 700 L55 0 Z M80 23 L80 401 L103 401 C155 401 178 371 178 303 L178 121 C178 53 155 23 103 23 L80 23 Z " />
<glyph glyph-name="uni042D" unicode="&#x42d;" horiz-adv-x="235" d="M35 105 C35 33 60 -5 110 -5 C160 -5 185 33 185 105 L185 594 C185 668 160 705 110 705 C60 705 35 667 35 594 L35 520 L60 520 L60 594 C60 655 75 682 110 682 C145 682 160 655 160 594 L160 374 L55 374 L55 351 L160 351 L160 105 C160 45 145 18 110 18 C76 18 60 45 60 105 L60 200 L35 200 L35 105 Z " />
<glyph glyph-name="uni042E" unicode="&#x42e;" horiz-adv-x="345" d="M55 0 L80 0 L80 340 L143 340 L143 102 C143 31 169 -5 219 -5 C269 -5 295 33 295 102 L295 597 C295 668 269 705 219 705 C170 705 143 667 143 597 L143 363 L80 363 L80 700 L55 700 L55 0 Z M270 102 C270 44 255 18 219 18 C184 18 168 44 168 102 L168 597 C168 656 184 682 219 682 C254 682 270 655 270 597 L270 102 Z " />
<glyph glyph-name="uni042F" unicode="&#x42f;" horiz-adv-x="246" d="M25 0 L51 0 L112 307 C127 303 136 302 166 302 L166 0 L191 0 L191 700 L147 700 C82 700 47 657 47 579 L47 423 C47 372 61 337 88 318 L25 0 Z M147 325 C95 325 72 355 72 423 L72 579 C72 647 95 677 147 677 L166 677 L166 325 L147 325 Z " />
<glyph glyph-name="uni0430" unicode="&#x430;" horiz-adv-x="231" d="M45 81 C45 24 63 -5 98 -5 C125 -5 147 13 157 40 L166 -3 L181 -3 L181 458 C181 516 159 545 116 545 C74 545 51 515 51 458 L51 385 L75 385 L75 458 C75 504 87 523 116 523 C145 523 157 503 157 458 L157 325 L133 325 C74 325 45 288 45 217 L45 81 Z M157 81 C147 38 130 17 106 17 C81 17 69 38 69 81 L69 217 C69 276 88 303 133 303 L157 303 L157 81 Z " />
<glyph glyph-name="uni0431" unicode="&#x431;" horiz-adv-x="229" d="M45 91 C45 27 69 -5 117 -5 C164 -5 189 28 189 91 L189 443 C189 497 169 525 130 525 C102 525 81 509 69 486 L69 551 C69 617 86 644 137 651 C163 655 181 664 189 674 L189 700 C180 689 162 678 132 673 C71 664 45 627 45 548 L45 91 Z M165 91 C165 40 150 17 117 17 C84 17 69 40 69 91 L69 439 C79 481 97 503 126 503 C152 503 165 484 165 443 L165 91 Z " />
<glyph glyph-name="uni0432" unicode="&#x432;" horiz-adv-x="222" d="M50 0 L99 0 C157 0 187 37 187 107 L187 178 C187 230 171 265 139 279 C167 295 182 328 182 378 L182 433 C182 503 152 540 94 540 L50 540 L50 0 Z M74 22 L74 267 L99 267 C143 267 163 240 163 178 L163 107 C163 48 143 22 99 22 L74 22 Z M74 289 L74 518 L94 518 C138 518 158 492 158 433 L158 378 C158 316 138 289 94 289 L74 289 Z " />
<glyph glyph-name="uni0433" unicode="&#x433;" horiz-adv-x="169" d="M50 0 L74 0 L74 518 L164 518 L164 540 L50 540 L50 0 Z " />
<glyph glyph-name="uni0434" unicode="&#x434;" horiz-adv-x="238" d="M5 -87 L29 -87 L29 0 L194 0 L194 -87 L218 -87 L218 22 L188 22 L188 540 L68 540 L68 472 C68 249 54 73 25 22 L5 22 L5 -87 Z M51 22 C80 73 92 269 92 465 L92 518 L164 518 L164 22 L51 22 Z " />
<glyph glyph-name="uni0435" unicode="&#x435;" horiz-adv-x="231" d="M45 93 C45 27 69 -5 116 -5 C165 -5 191 29 191 93 L191 164 L167 164 L167 93 C167 40 152 17 118 17 C85 17 69 41 69 93 L69 264 L191 264 L191 447 C191 512 166 545 118 545 C71 545 45 511 45 447 L45 93 Z M69 286 L69 447 C69 500 84 523 118 523 C151 523 167 499 167 447 L167 286 L69 286 Z " />
<glyph glyph-name="uni0436" unicode="&#x436;" horiz-adv-x="281" d="M10 0 L34 0 L96 261 L129 261 L129 0 L152 0 L152 261 L185 261 L247 0 L271 0 L206 272 L269 540 L245 540 L185 283 L152 283 L152 540 L129 540 L129 283 L96 283 L36 540 L12 540 L75 272 L10 0 Z " />
<glyph glyph-name="uni0437" unicode="&#x437;" horiz-adv-x="212" d="M35 93 C35 31 61 -5 106 -5 C151 -5 177 30 177 93 L177 178 C177 230 161 264 130 278 C160 294 175 327 175 378 L175 447 C175 510 150 545 106 545 C62 545 37 509 37 447 L37 395 L61 395 L61 447 C61 498 76 523 106 523 C136 523 151 499 151 447 L151 378 C151 316 131 289 87 289 L63 289 L63 267 L87 267 C133 267 153 240 153 178 L153 93 C153 41 137 17 106 17 C75 17 59 42 59 93 L59 154 L35 154 L35 93 Z " />
<glyph glyph-name="uni0438" unicode="&#x438;" horiz-adv-x="266" d="M50 0 L84 0 L193 499 L195 499 C194 472 192 409 192 368 L192 0 L216 0 L216 540 L182 540 L73 43 L71 43 C73 95 74 157 74 188 L74 540 L50 540 L50 0 Z " />
<glyph glyph-name="uni0439" unicode="&#x439;" horiz-adv-x="266" d="M50 0 L84 0 L193 499 L195 499 C194 472 192 409 192 368 L192 0 L216 0 L216 540 L182 540 L73 43 L71 43 C73 95 74 157 74 188 L74 540 L50 540 L50 0 Z M71 655 C71 610 92 587 133 587 C174 587 195 610 195 655 L195 658 L169 658 L169 655 C169 623 157 608 133 608 C109 608 97 623 97 655 L97 658 L71 658 L71 655 Z " />
<glyph glyph-name="uni043A" unicode="&#x43a;" horiz-adv-x="223" d="M50 0 L74 0 L74 261 L109 261 L184 0 L208 0 L130 272 L206 540 L182 540 L109 283 L74 283 L74 540 L50 540 L50 0 Z " />
<glyph glyph-name="uni043B" unicode="&#x43b;" horiz-adv-x="245" d="M10 -4 L13 -4 C79 -4 93 29 93 450 L93 518 L171 518 L171 0 L195 0 L195 540 L69 540 L69 467 C69 52 56 20 13 20 L10 20 L10 -4 Z " />
<glyph glyph-name="uni043C" unicode="&#x43c;" horiz-adv-x="304" d="M50 0 L73 0 L73 317 C73 386 71 467 70 495 L72 495 L139 110 L164 110 L231 495 L233 495 C232 467 230 386 230 317 L230 0 L254 0 L254 540 L220 540 L163 222 C159 199 155 171 153 149 L151 149 C149 171 145 199 141 222 L84 540 L50 540 L50 0 Z " />
<glyph glyph-name="uni043D" unicode="&#x43d;" horiz-adv-x="250" d="M50 0 L74 0 L74 261 L176 261 L176 0 L200 0 L200 540 L176 540 L176 283 L74 283 L74 540 L50 540 L50 0 Z " />
<glyph glyph-name="uni043E" unicode="&#x43e;" horiz-adv-x="240" d="M45 94 C45 28 71 -5 120 -5 C169 -5 195 28 195 94 L195 446 C195 510 169 545 120 545 C71 545 45 511 45 446 L45 94 Z M171 94 C171 40 155 17 120 17 C85 17 69 41 69 94 L69 446 C69 498 85 523 120 523 C155 523 171 499 171 446 L171 94 Z " />
<glyph glyph-name="uni043F" unicode="&#x43f;" horiz-adv-x="248" d="M50 0 L74 0 L74 518 L174 518 L174 0 L198 0 L198 540 L50 540 L50 0 Z " />
<glyph glyph-name="uni0440" unicode="&#x440;" horiz-adv-x="243" d="M50 -160 L74 -160 L74 28 C86 6 104 -5 129 -5 C170 -5 198 28 198 88 L198 463 C198 516 176 545 135 545 C106 545 85 530 73 503 L64 543 L50 543 L50 -160 Z M174 88 C174 40 156 17 127 17 C97 17 82 40 74 81 L74 459 C84 502 102 523 131 523 C160 523 174 504 174 463 L174 88 Z " />
<glyph glyph-name="uni0441" unicode="&#x441;" horiz-adv-x="217" d="M45 93 C45 29 70 -5 116 -5 C162 -5 187 30 187 93 L187 164 L163 164 L163 93 C163 41 148 17 116 17 C84 17 69 42 69 93 L69 447 C69 499 84 523 116 523 C148 523 163 498 163 447 L163 385 L187 385 L187 447 C187 509 162 545 116 545 C70 545 45 510 45 447 L45 93 Z " />
<glyph glyph-name="uni0442" unicode="&#x442;" horiz-adv-x="154" d="M65 0 L89 0 L89 518 L149 518 L149 540 L5 540 L5 518 L65 518 L65 0 Z " />
<glyph glyph-name="uni0443" unicode="&#x443;" horiz-adv-x="210" d="M10 -155 C15 -158 25 -160 36 -160 C79 -160 101 -133 110 -65 L195 540 L172 540 L123 190 C119 162 112 105 107 62 L106 62 C101 105 94 160 90 191 L42 540 L18 540 L94 -10 L86 -65 C78 -120 65 -138 36 -138 C26 -138 19 -136 10 -133 L10 -155 Z " />
<glyph glyph-name="uni0444" unicode="&#x444;" horiz-adv-x="320" d="M148 -160 L172 -160 L172 -5 L187 -5 C245 -5 275 32 275 102 L275 438 C275 508 245 545 187 545 L172 545 L172 700 L148 700 L148 545 L133 545 C75 545 45 508 45 438 L45 102 C45 32 75 -5 133 -5 L148 -5 L148 -160 Z M133 17 C89 17 69 43 69 102 L69 438 C69 497 89 523 133 523 L148 523 L148 17 L133 17 Z M172 17 L172 523 L187 523 C231 523 251 497 251 438 L251 102 C251 43 231 17 187 17 L172 17 Z " />
<glyph glyph-name="uni0445" unicode="&#x445;" horiz-adv-x="198" d="M15 0 L38 0 L99 246 L101 246 L158 0 L183 0 L117 277 L183 540 L160 540 L103 305 L102 305 L48 540 L23 540 L85 275 L15 0 Z " />
<glyph glyph-name="uni0446" unicode="&#x446;" horiz-adv-x="246" d="M50 0 L197 0 L197 -87 L221 -87 L221 21 L196 21 L196 540 L172 540 L172 22 L74 22 L74 540 L50 540 L50 0 Z " />
<glyph glyph-name="uni0447" unicode="&#x447;" horiz-adv-x="227" d="M153 0 L177 0 L177 540 L153 540 L153 239 C147 238 133 236 123 236 C81 236 64 267 64 322 L64 540 L40 540 L40 322 C40 256 66 214 121 214 C130 214 145 215 153 217 L153 0 Z " />
<glyph glyph-name="uni0448" unicode="&#x448;" horiz-adv-x="360" d="M50 0 L310 0 L310 540 L286 540 L286 22 L192 22 L192 540 L168 540 L168 22 L74 22 L74 540 L50 540 L50 0 Z " />
<glyph glyph-name="uni0449" unicode="&#x449;" horiz-adv-x="360" d="M50 0 L311 0 L311 -87 L335 -87 L335 21 L310 21 L310 540 L286 540 L286 22 L192 22 L192 540 L168 540 L168 22 L74 22 L74 540 L50 540 L50 0 Z " />
<glyph glyph-name="uni044A" unicode="&#x44a;" horiz-adv-x="214" d="M50 0 L96 0 C154 0 184 37 184 107 L184 222 C184 292 154 329 96 329 L74 329 L74 540 L10 540 L10 518 L50 518 L50 0 Z M74 22 L74 307 L96 307 C140 307 160 281 160 222 L160 107 C160 48 140 22 96 22 L74 22 Z " />
<glyph glyph-name="uni044B" unicode="&#x44b;" horiz-adv-x="304" d="M50 0 L92 0 C150 0 180 37 180 107 L180 222 C180 292 150 329 92 329 L74 329 L74 540 L50 540 L50 0 Z M230 0 L254 0 L254 540 L230 540 L230 0 Z M74 22 L74 307 L92 307 C136 307 156 281 156 222 L156 107 C156 48 136 22 92 22 L74 22 Z " />
<glyph glyph-name="uni044C" unicode="&#x44c;" horiz-adv-x="214" d="M50 0 L96 0 C154 0 184 37 184 107 L184 222 C184 292 154 329 96 329 L74 329 L74 540 L50 540 L50 0 Z M74 22 L74 307 L96 307 C140 307 160 281 160 222 L160 107 C160 48 140 22 96 22 L74 22 Z " />
<glyph glyph-name="uni044D" unicode="&#x44d;" horiz-adv-x="222" d="M35 93 C35 30 60 -5 106 -5 C152 -5 177 29 177 93 L177 447 C177 510 152 545 106 545 C60 545 35 509 35 447 L35 395 L59 395 L59 447 C59 498 74 523 106 523 C138 523 153 499 153 447 L153 289 L54 289 L54 267 L153 267 L153 93 C153 42 138 17 106 17 C74 17 59 41 59 93 L59 154 L35 154 L35 93 Z " />
<glyph glyph-name="uni044E" unicode="&#x44e;" horiz-adv-x="316" d="M50 0 L74 0 L74 261 L131 261 L131 89 C131 27 154 -5 201 -5 C247 -5 271 28 271 89 L271 451 C271 510 247 545 201 545 C156 545 131 512 131 451 L131 283 L74 283 L74 540 L50 540 L50 0 Z M247 89 C247 39 233 17 201 17 C169 17 155 39 155 89 L155 451 C155 502 169 523 201 523 C233 523 247 501 247 451 L247 89 Z " />
<glyph glyph-name="uni044F" unicode="&#x44f;" horiz-adv-x="215" d="M20 0 L44 0 L103 241 C115 239 120 239 141 239 L141 0 L165 0 L165 540 L123 540 C65 540 35 503 35 433 L35 346 C35 295 51 262 81 248 L20 0 Z M123 261 C79 261 59 287 59 346 L59 433 C59 492 79 518 123 518 L141 518 L141 261 L123 261 Z " />
<glyph glyph-name="uni0451" unicode="&#x451;" horiz-adv-x="231" d="M45 93 C45 27 69 -5 116 -5 C165 -5 191 29 191 93 L191 164 L167 164 L167 93 C167 40 152 17 118 17 C85 17 69 41 69 93 L69 264 L191 264 L191 447 C191 512 166 545 118 545 C71 545 45 511 45 447 L45 93 Z M69 286 L69 447 C69 500 84 523 118 523 C151 523 167 499 167 447 L167 286 L69 286 Z M75 605 C91 605 100 615 100 630 C100 646 91 655 75 655 C60 655 50 647 50 630 C50 613 60 605 75 605 L75 605 Z M161 605 C177 605 186 615 186 630 C186 646 177 655 161 655 C146 655 136 647 136 630 C136 613 146 605 161 605 L161 605 Z " />
<glyph glyph-name="uni0452" unicode="&#x452;" horiz-adv-x="243" d="M94 -155 C102 -158 111 -160 123 -160 C173 -160 198 -126 198 -64 L198 361 C198 414 176 443 135 443 C105 443 86 428 74 403 L74 550 L154 550 L154 572 L74 572 L74 700 L50 700 L50 572 L10 572 L10 550 L50 550 L50 0 L74 0 L74 357 C84 400 102 421 131 421 C160 421 174 402 174 361 L174 -64 C174 -115 159 -136 124 -136 C112 -136 104 -134 94 -131 L94 -155 Z " />
<glyph glyph-name="uni0453" unicode="&#x453;" horiz-adv-x="169" d="M50 0 L74 0 L74 518 L164 518 L164 540 L50 540 L50 0 Z M99 572 L116 572 L184 674 L139 674 L99 572 Z " />
<glyph glyph-name="uni0454" unicode="&#x454;" horiz-adv-x="222" d="M45 93 C45 29 70 -5 116 -5 C162 -5 187 30 187 93 L187 154 L163 154 L163 93 C163 41 148 17 116 17 C84 17 69 42 69 93 L69 267 L172 267 L172 289 L69 289 L69 447 C69 499 84 523 116 523 C148 523 163 498 163 447 L163 395 L187 395 L187 447 C187 509 162 545 116 545 C70 545 45 510 45 447 L45 93 Z " />
<glyph glyph-name="uni0455" unicode="&#x455;" horiz-adv-x="205" d="M35 93 C35 29 58 -5 101 -5 C146 -5 170 29 170 93 C170 184 168 190 110 286 C64 363 62 368 62 447 C62 499 75 523 104 523 C133 523 146 499 146 447 L146 370 L170 370 L170 447 C170 512 148 545 105 545 C61 545 38 510 38 447 C38 362 40 356 94 266 C143 184 146 179 146 93 C146 40 133 17 103 17 C73 17 59 41 59 93 L59 174 L35 174 L35 93 Z " />
<glyph glyph-name="uni0456" unicode="&#x456;" horiz-adv-x="134" d="M55 0 L79 0 L79 540 L55 540 L55 0 Z M40 630 C40 612 51 603 67 603 C84 603 94 614 94 630 C94 647 84 657 67 657 C51 657 40 648 40 630 L40 630 Z " />
<glyph glyph-name="uni0457" unicode="&#x457;" horiz-adv-x="120" d="M48 0 L72 0 L72 540 L48 540 L48 0 Z M25 605 C41 605 50 615 50 630 C50 646 41 655 25 655 C10 655 0 647 0 630 C0 613 10 605 25 605 L25 605 Z M95 605 C111 605 120 615 120 630 C120 646 111 655 95 655 C80 655 70 647 70 630 C70 613 80 605 95 605 L95 605 Z " />
<glyph glyph-name="uni0458" unicode="&#x458;" horiz-adv-x="134" d="M-25 -155 C-17 -158 -8 -160 4 -160 C54 -160 79 -126 79 -64 L79 540 L55 540 L55 -64 C55 -115 40 -136 5 -136 C-7 -136 -15 -134 -25 -131 L-25 -155 Z M40 630 C40 612 51 603 67 603 C84 603 94 614 94 630 C94 647 84 657 67 657 C51 657 40 648 40 630 L40 630 Z " />
<glyph glyph-name="uni0459" unicode="&#x459;" horiz-adv-x="325" d="M10 -4 L13 -4 C79 -4 93 29 93 450 L93 518 L166 518 L166 0 L207 0 C265 0 295 37 295 107 L295 196 C295 266 265 303 207 303 L190 303 L190 540 L69 540 L69 467 C69 52 56 20 13 20 L10 20 L10 -4 Z M190 22 L190 281 L207 281 C251 281 271 255 271 196 L271 107 C271 48 251 22 207 22 L190 22 Z " />
<glyph glyph-name="uni045A" unicode="&#x45a;" horiz-adv-x="330" d="M50 0 L74 0 L74 281 L171 281 L171 0 L212 0 C270 0 300 37 300 107 L300 196 C300 266 270 303 212 303 L195 303 L195 540 L171 540 L171 303 L74 303 L74 540 L50 540 L50 0 Z M195 22 L195 281 L212 281 C256 281 276 255 276 196 L276 107 C276 48 256 22 212 22 L195 22 Z " />
<glyph glyph-name="uni045B" unicode="&#x45b;" horiz-adv-x="243" d="M50 0 L74 0 L74 357 C84 400 102 421 131 421 C160 421 174 402 174 361 L174 0 L198 0 L198 361 C198 414 176 443 135 443 C105 443 86 428 74 403 L74 550 L154 550 L154 572 L74 572 L74 700 L50 700 L50 572 L10 572 L10 550 L50 550 L50 0 Z " />
<glyph glyph-name="uni045C" unicode="&#x45c;" horiz-adv-x="223" d="M50 0 L74 0 L74 261 L109 261 L184 0 L208 0 L130 272 L206 540 L182 540 L109 283 L74 283 L74 540 L50 540 L50 0 Z M117 572 L134 572 L202 674 L157 674 L117 572 Z " />
<glyph glyph-name="uni045E" unicode="&#x45e;" horiz-adv-x="210" d="M10 -155 C15 -158 25 -160 36 -160 C79 -160 101 -133 110 -65 L195 540 L172 540 L123 190 C119 162 112 105 107 62 L106 62 C101 105 94 160 90 191 L42 540 L18 540 L94 -10 L86 -65 C78 -120 65 -138 36 -138 C26 -138 19 -136 10 -133 L10 -155 Z M44 655 C44 610 65 587 106 587 C147 587 168 610 168 655 L168 658 L142 658 L142 655 C142 623 130 608 106 608 C82 608 70 623 70 655 L70 658 L44 658 L44 655 Z " />
<glyph glyph-name="uni045F" unicode="&#x45f;" horiz-adv-x="246" d="M110 -87 L134 -87 L134 0 L196 0 L196 540 L172 540 L172 22 L74 22 L74 540 L50 540 L50 0 L110 0 L110 -87 Z " />
<glyph glyph-name="uni0490" unicode="&#x490;" horiz-adv-x="188" d="M55 0 L80 0 L80 677 L183 677 L183 764 L158 764 L158 700 L55 700 L55 0 Z " />
<glyph glyph-name="uni0491" unicode="&#x491;" horiz-adv-x="169" d="M50 0 L74 0 L74 518 L164 518 L164 607 L140 607 L140 540 L50 540 L50 0 Z " />
<glyph glyph-name="Wgrave" unicode="&#x1e80;" horiz-adv-x="410" d="M96 0 L127 0 L193 540 C197 575 201 622 203 649 L206 649 C207 623 210 575 214 540 L267 0 L298 0 L385 700 L361 700 L299 189 C294 147 288 89 285 53 L283 53 L221 700 L190 700 L113 53 L111 53 C106 125 103 160 100 190 L50 700 L25 700 L96 0 Z M199 732 L216 732 L176 834 L131 834 L199 732 Z " />
<glyph glyph-name="wgrave" unicode="&#x1e81;" horiz-adv-x="332" d="M78 0 L108 0 L156 394 C160 427 164 470 166 501 L168 501 C170 471 176 396 178 375 L221 0 L250 0 L317 540 L295 540 L252 190 C246 143 241 95 236 47 L235 47 C231 92 224 156 220 191 L181 540 L154 540 L112 190 C107 150 100 91 95 47 L93 47 C89 92 83 156 79 191 L39 540 L15 540 L78 0 Z M160 572 L177 572 L137 674 L92 674 L160 572 Z " />
<glyph glyph-name="Wacute" unicode="&#x1e82;" horiz-adv-x="410" d="M96 0 L127 0 L193 540 C197 575 201 622 203 649 L206 649 C207 623 210 575 214 540 L267 0 L298 0 L385 700 L361 700 L299 189 C294 147 288 89 285 53 L283 53 L221 700 L190 700 L113 53 L111 53 C106 125 103 160 100 190 L50 700 L25 700 L96 0 Z M197 732 L214 732 L282 834 L237 834 L197 732 Z " />
<glyph glyph-name="wacute" unicode="&#x1e83;" horiz-adv-x="332" d="M78 0 L108 0 L156 394 C160 427 164 470 166 501 L168 501 C170 471 176 396 178 375 L221 0 L250 0 L317 540 L295 540 L252 190 C246 143 241 95 236 47 L235 47 C231 92 224 156 220 191 L181 540 L154 540 L112 190 C107 150 100 91 95 47 L93 47 C89 92 83 156 79 191 L39 540 L15 540 L78 0 Z M158 572 L175 572 L243 674 L198 674 L158 572 Z " />
<glyph glyph-name="Wdieresis" unicode="&#x1e84;" horiz-adv-x="410" d="M96 0 L127 0 L193 540 C197 575 201 622 203 649 L206 649 C207 623 210 575 214 540 L267 0 L298 0 L385 700 L361 700 L299 189 C294 147 288 89 285 53 L283 53 L221 700 L190 700 L113 53 L111 53 C106 125 103 160 100 190 L50 700 L25 700 L96 0 Z M162 765 C178 765 187 775 187 790 C187 806 178 815 162 815 C147 815 137 807 137 790 C137 773 147 765 162 765 L162 765 Z M248 765 C264 765 273 775 273 790 C273 806 264 815 248 815 C233 815 223 807 223 790 C223 773 233 765 248 765 L248 765 Z " />
<glyph glyph-name="wdieresis" unicode="&#x1e85;" horiz-adv-x="332" d="M78 0 L108 0 L156 394 C160 427 164 470 166 501 L168 501 C170 471 176 396 178 375 L221 0 L250 0 L317 540 L295 540 L252 190 C246 143 241 95 236 47 L235 47 C231 92 224 156 220 191 L181 540 L154 540 L112 190 C107 150 100 91 95 47 L93 47 C89 92 83 156 79 191 L39 540 L15 540 L78 0 Z M123 605 C139 605 148 615 148 630 C148 646 139 655 123 655 C108 655 98 647 98 630 C98 613 108 605 123 605 L123 605 Z M209 605 C225 605 234 615 234 630 C234 646 225 655 209 655 C194 655 184 647 184 630 C184 613 194 605 209 605 L209 605 Z " />
<glyph glyph-name="uni1E9E" unicode="&#x1e9e;" horiz-adv-x="246" d="M50 0 L75 0 L75 589 C75 649 97 677 145 677 L185 677 L116 402 L116 379 L128 379 C168 379 186 354 186 296 L186 102 C186 46 168 22 129 22 C121 22 114 23 101 25 L101 0 C106 -2 117 -3 127 -3 C183 -3 211 33 211 102 L211 295 C211 360 187 397 140 402 L209 677 L209 700 L145 700 C82 700 50 663 50 589 L50 0 Z " />
<glyph glyph-name="Ygrave" unicode="&#x1ef2;" horiz-adv-x="230" d="M101 0 L126 0 L126 288 L215 701 L191 701 L116 346 L113 346 L41 700 L15 700 L101 288 L101 0 Z M109 732 L126 732 L86 834 L41 834 L109 732 Z " />
<glyph glyph-name="ygrave" unicode="&#x1ef3;" horiz-adv-x="210" d="M10 -155 C15 -158 25 -160 36 -160 C79 -160 101 -133 110 -65 L195 540 L172 540 L123 190 C119 162 112 105 107 62 L106 62 C101 105 94 160 90 191 L42 540 L18 540 L94 -10 L86 -65 C78 -120 65 -138 36 -138 C26 -138 19 -136 10 -133 L10 -155 Z M100 572 L117 572 L77 674 L32 674 L100 572 Z " />
<glyph glyph-name="endash" unicode="&#x2013;" horiz-adv-x="280" d="M20 274 L260 274 L260 297 L20 297 L20 274 Z " />
<glyph glyph-name="emdash" unicode="&#x2014;" horiz-adv-x="455" d="M20 274 L435 274 L435 297 L20 297 L20 274 Z " />
<glyph glyph-name="quoteleft" unicode="&#x2018;" horiz-adv-x="91" d="M55 567 L55 571 C55 622 55 625 66 700 L51 700 C25 623 25 622 25 567 L55 567 Z " />
<glyph glyph-name="quoteright" unicode="&#x2019;" horiz-adv-x="91" d="M40 567 C66 644 66 645 66 700 L36 700 L36 696 C36 645 36 642 25 567 L40 567 Z " />
<glyph glyph-name="quotesinglbase" unicode="&#x201a;" horiz-adv-x="91" d="M40 -82 C66 -5 66 -4 66 51 L36 51 L36 47 C36 -4 36 -7 25 -82 L40 -82 Z " />
<glyph glyph-name="quotedblleft" unicode="&#x201c;" horiz-adv-x="156" d="M120 567 L120 571 C120 622 120 625 131 700 L116 700 C90 623 90 622 90 567 L120 567 Z M55 567 L55 571 C55 622 55 625 66 700 L51 700 C25 623 25 622 25 567 L55 567 Z " />
<glyph glyph-name="quotedblright" unicode="&#x201d;" horiz-adv-x="156" d="M40 567 C66 644 66 645 66 700 L36 700 L36 696 C36 645 36 642 25 567 L40 567 Z M105 567 C131 644 131 645 131 700 L101 700 L101 696 C101 645 101 642 90 567 L105 567 Z " />
<glyph glyph-name="quotedblbase" unicode="&#x201e;" horiz-adv-x="156" d="M40 -82 C66 -5 66 -4 66 51 L36 51 L36 47 C36 -4 36 -7 25 -82 L40 -82 Z M105 -82 C131 -5 131 -4 131 51 L101 51 L101 47 C101 -4 101 -7 90 -82 L105 -82 Z " />
<glyph glyph-name="dagger" unicode="&#x2020;" horiz-adv-x="185" d="M80 0 L105 0 L105 517 L165 517 L165 540 L105 540 L105 700 L80 700 L80 540 L20 540 L20 517 L80 517 L80 0 Z " />
<glyph glyph-name="daggerdbl" unicode="&#x2021;" horiz-adv-x="185" d="M80 0 L105 0 L105 163 L165 163 L165 186 L105 186 L105 517 L165 517 L165 540 L105 540 L105 700 L80 700 L80 540 L20 540 L20 517 L80 517 L80 186 L20 186 L20 163 L80 163 L80 0 Z " />
<glyph glyph-name="bullet" unicode="&#x2022;" horiz-adv-x="276" d="M138 253 C159 253 176 270 176 291 C176 312 159 329 138 329 C117 329 100 312 100 291 C100 270 117 253 138 253 L138 253 Z " />
<glyph glyph-name="ellipsis" unicode="&#x2026;" horiz-adv-x="424" d="M69 -3 C87 -3 98 8 98 26 C98 45 87 55 69 55 C51 55 40 44 40 26 C40 8 51 -3 69 -3 L69 -3 Z M212 -3 C230 -3 241 8 241 26 C241 45 230 55 212 55 C194 55 183 44 183 26 C183 8 194 -3 212 -3 L212 -3 Z M355 -3 C373 -3 384 8 384 26 C384 45 373 55 355 55 C337 55 326 44 326 26 C326 8 337 -3 355 -3 L355 -3 Z " />
<glyph glyph-name="perthousand" unicode="&#x2030;" horiz-adv-x="605" d="M45 416 C45 356 68 325 110 325 C152 325 175 356 175 416 L175 612 C175 674 152 705 110 705 C68 705 45 674 45 612 L45 416 Z M151 416 C151 369 139 347 110 347 C81 347 69 369 69 416 L69 612 C69 661 81 683 110 683 C139 683 151 660 151 612 L151 416 Z M120 0 L143 0 L310 700 L287 700 L120 0 Z M430 86 C430 26 453 -5 495 -5 C537 -5 560 26 560 86 L560 282 C560 344 537 375 495 375 C453 375 430 344 430 282 L430 86 Z M536 86 C536 39 524 17 495 17 C466 17 454 39 454 86 L454 282 C454 331 466 353 495 353 C524 353 536 330 536 282 L536 86 Z M255 86 C255 26 278 -5 320 -5 C362 -5 385 26 385 86 L385 282 C385 344 362 375 320 375 C278 375 255 344 255 282 L255 86 Z M361 86 C361 39 349 17 320 17 C291 17 279 39 279 86 L279 282 C279 331 291 353 320 353 C349 353 361 330 361 282 L361 86 Z " />
<glyph glyph-name="guilsinglleft" unicode="&#x2039;" horiz-adv-x="209" d="M135 108 L164 108 L74 263 L164 418 L135 418 L45 263 L135 108 Z " />
<glyph glyph-name="guilsinglright" unicode="&#x203a;" horiz-adv-x="209" d="M45 108 L74 108 L164 263 L74 418 L45 418 L135 263 L45 108 Z " />
<glyph glyph-name="fraction" unicode="&#x2044;" horiz-adv-x="50" d="M-70 0 L-47 0 L120 700 L97 700 L-70 0 Z " />
<glyph glyph-name="uni2070" unicode="&#x2070;" horiz-adv-x="200" d="M141 566 C141 519 129 497 100 497 C71 497 59 519 59 566 L59 762 C59 811 71 833 100 833 C129 833 141 810 141 762 L141 566 Z M35 566 C35 506 58 475 100 475 C142 475 165 506 165 566 L165 762 C165 824 142 855 100 855 C58 855 35 824 35 762 L35 566 Z " />
<glyph glyph-name="uni2074" unicode="&#x2074;" horiz-adv-x="189" d="M15 560 L115 560 L115 480 L139 480 L139 560 L169 560 L169 583 L139 583 L139 850 L108 850 L15 583 L15 560 Z M40 583 L116 813 L119 813 L115 583 L40 583 Z " />
<glyph glyph-name="uni2075" unicode="&#x2075;" horiz-adv-x="178" d="M25 566 C25 506 47 475 89 475 C131 475 153 507 153 568 L153 649 C153 699 136 726 104 726 C86 726 73 718 56 698 L56 826 L153 826 L153 849 L32 849 L32 668 L57 668 C72 692 84 702 99 702 C119 702 129 685 129 649 L129 567 C129 519 117 497 89 497 C62 497 49 519 49 566 L49 587 L25 587 L25 566 Z " />
<glyph glyph-name="uni2076" unicode="&#x2076;" horiz-adv-x="193" d="M35 565 C35 506 57 475 99 475 C141 475 163 505 163 565 L163 627 C163 681 145 710 109 710 C88 710 73 701 59 680 L59 765 C59 812 71 833 99 833 C127 833 139 812 139 765 L139 746 L163 746 L163 765 C163 824 141 855 99 855 C57 855 35 821 35 765 L35 565 Z M139 565 C139 519 126 497 99 497 C72 497 59 519 59 565 L59 646 C72 675 86 688 105 688 C128 688 139 669 139 627 L139 565 Z " />
<glyph glyph-name="uni2077" unicode="&#x2077;" horiz-adv-x="152" d="M25 480 L48 480 L142 827 L142 850 L10 850 L10 827 L118 827 L25 480 Z " />
<glyph glyph-name="uni2078" unicode="&#x2078;" horiz-adv-x="196" d="M30 567 C30 506 52 475 98 475 C143 475 166 507 166 567 L166 585 C166 629 152 661 129 667 C149 675 163 709 163 747 L163 763 C163 822 141 855 98 855 C54 855 33 822 33 763 L33 747 C33 709 47 676 67 667 C44 659 30 628 30 585 L30 567 Z M54 585 C54 634 67 655 98 655 C129 655 142 634 142 585 L142 567 C142 518 128 497 98 497 C67 497 54 517 54 567 L54 585 Z M57 763 C57 810 69 833 98 833 C127 833 139 810 139 763 L139 747 C139 700 126 677 98 677 C70 677 57 700 57 747 L57 763 Z " />
<glyph glyph-name="uni2079" unicode="&#x2079;" horiz-adv-x="193" d="M30 565 C30 506 52 475 94 475 C136 475 158 509 158 565 L158 765 C158 824 136 855 94 855 C52 855 30 825 30 765 L30 703 C30 649 48 620 84 620 C105 620 120 629 134 650 L134 565 C134 518 122 497 94 497 C66 497 54 518 54 565 L54 584 L30 584 L30 565 Z M134 684 C121 655 107 642 88 642 C65 642 54 661 54 703 L54 765 C54 811 67 833 94 833 C121 833 134 811 134 765 L134 684 Z " />
<glyph glyph-name="uni2080" unicode="&#x2080;" horiz-adv-x="200" d="M141 -74 C141 -121 129 -143 100 -143 C71 -143 59 -121 59 -74 L59 122 C59 171 71 193 100 193 C129 193 141 170 141 122 L141 -74 Z M35 -74 C35 -134 58 -165 100 -165 C142 -165 165 -134 165 -74 L165 122 C165 184 142 215 100 215 C58 215 35 184 35 122 L35 -74 Z " />
<glyph glyph-name="uni2081" unicode="&#x2081;" horiz-adv-x="126" d="M57 -160 L81 -160 L81 210 L66 210 L15 180 L15 157 L57 179 L57 -160 Z " />
<glyph glyph-name="uni2082" unicode="&#x2082;" horiz-adv-x="185" d="M20 -160 L160 -160 L160 -79 L136 -79 L136 -137 L46 -137 C146 65 155 85 155 124 C155 183 133 215 89 215 C45 215 23 182 23 115 L23 91 L47 91 L47 115 C47 169 60 193 89 193 C118 193 131 171 131 123 C131 88 124 71 20 -137 L20 -160 Z " />
<glyph glyph-name="uni2083" unicode="&#x2083;" horiz-adv-x="173" d="M20 -74 C20 -134 42 -165 84 -165 C126 -165 148 -133 148 -74 L148 -39 C148 22 122 53 72 53 L153 187 L153 210 L23 210 L23 187 L127 187 L46 53 L46 29 L73 29 C108 29 124 8 124 -39 L124 -74 C124 -122 112 -143 84 -143 C56 -143 44 -122 44 -74 L44 -53 L20 -53 L20 -74 Z " />
<glyph glyph-name="uni2084" unicode="&#x2084;" horiz-adv-x="189" d="M15 -80 L115 -80 L115 -160 L139 -160 L139 -80 L169 -80 L169 -57 L139 -57 L139 210 L108 210 L15 -57 L15 -80 Z M40 -57 L116 173 L119 173 L115 -57 L40 -57 Z " />
<glyph glyph-name="uni2085" unicode="&#x2085;" horiz-adv-x="178" d="M25 -74 C25 -134 47 -165 89 -165 C131 -165 153 -133 153 -72 L153 9 C153 59 136 86 104 86 C86 86 73 78 56 58 L56 186 L153 186 L153 209 L32 209 L32 28 L57 28 C72 52 84 62 99 62 C119 62 129 45 129 9 L129 -73 C129 -121 117 -143 89 -143 C62 -143 49 -121 49 -74 L49 -53 L25 -53 L25 -74 Z " />
<glyph glyph-name="uni2086" unicode="&#x2086;" horiz-adv-x="193" d="M35 -75 C35 -134 57 -165 99 -165 C141 -165 163 -135 163 -75 L163 -13 C163 41 145 70 109 70 C88 70 73 61 59 40 L59 125 C59 172 71 193 99 193 C127 193 139 172 139 125 L139 106 L163 106 L163 125 C163 184 141 215 99 215 C57 215 35 181 35 125 L35 -75 Z M139 -75 C139 -121 126 -143 99 -143 C72 -143 59 -121 59 -75 L59 6 C72 35 86 48 105 48 C128 48 139 29 139 -13 L139 -75 Z " />
<glyph glyph-name="uni2087" unicode="&#x2087;" horiz-adv-x="152" d="M25 -160 L48 -160 L142 187 L142 210 L10 210 L10 187 L118 187 L25 -160 Z " />
<glyph glyph-name="uni2088" unicode="&#x2088;" horiz-adv-x="196" d="M30 -73 C30 -134 52 -165 98 -165 C143 -165 166 -133 166 -73 L166 -55 C166 -11 152 21 129 27 C149 35 163 69 163 107 L163 123 C163 182 141 215 98 215 C54 215 33 182 33 123 L33 107 C33 69 47 36 67 27 C44 19 30 -12 30 -55 L30 -73 Z M54 -55 C54 -6 67 15 98 15 C129 15 142 -6 142 -55 L142 -73 C142 -122 128 -143 98 -143 C67 -143 54 -123 54 -73 L54 -55 Z M57 123 C57 170 69 193 98 193 C127 193 139 170 139 123 L139 107 C139 60 126 37 98 37 C70 37 57 60 57 107 L57 123 Z " />
<glyph glyph-name="uni2089" unicode="&#x2089;" horiz-adv-x="193" d="M30 -75 C30 -134 52 -165 94 -165 C136 -165 158 -131 158 -75 L158 125 C158 184 136 215 94 215 C52 215 30 185 30 125 L30 63 C30 9 48 -20 84 -20 C105 -20 120 -11 134 10 L134 -75 C134 -122 122 -143 94 -143 C66 -143 54 -122 54 -75 L54 -56 L30 -56 L30 -75 Z M134 44 C121 15 107 2 88 2 C65 2 54 21 54 63 L54 125 C54 171 67 193 94 193 C121 193 134 171 134 125 L134 44 Z " />
<glyph glyph-name="Euro" unicode="&#x20ac;" horiz-adv-x="235" d="M50 105 C50 33 75 -5 125 -5 C174 -5 200 34 200 105 L200 210 L175 210 L175 105 C175 44 160 18 125 18 C90 18 75 45 75 105 L75 308 L155 308 L155 331 L75 331 L75 384 L155 384 L155 407 L75 407 L75 594 C75 654 90 682 125 682 C160 682 175 654 175 594 L175 510 L200 510 L200 594 C200 666 174 705 125 705 C76 705 50 667 50 594 L50 407 L20 407 L20 384 L50 384 L50 331 L20 331 L20 308 L50 308 L50 105 Z " />
<glyph glyph-name="uni20B4" unicode="&#x20b4;" horiz-adv-x="212" d="M152 97 C152 43 138 18 107 18 C75 18 60 46 60 105 C60 196 63 212 104 308 L177 308 L177 331 L35 331 L35 308 L77 308 C39 217 35 195 35 105 C35 34 61 -5 108 -5 C153 -5 177 30 177 97 L177 165 L152 165 L152 97 Z M35 384 L177 384 L177 407 L137 407 C170 490 173 506 173 595 C173 667 149 705 103 705 C58 705 35 671 35 604 L35 545 L60 545 L60 604 C60 658 73 682 104 682 C135 682 148 656 148 595 C148 505 146 492 111 407 L35 407 L35 384 Z " />
<glyph glyph-name="uni20BD" unicode="&#x20bd;" horiz-adv-x="241" d="M55 0 L80 0 L80 221 L180 221 L180 244 L80 244 L80 297 L101 297 C166 297 201 340 201 418 L201 579 C201 657 166 700 101 700 L55 700 L55 320 L25 320 L25 297 L55 297 L55 244 L25 244 L25 221 L55 221 L55 0 Z M80 320 L80 677 L101 677 C153 677 176 647 176 579 L176 418 C176 350 153 320 101 320 L80 320 Z " />
<glyph glyph-name="uni2116" unicode="&#x2116;" horiz-adv-x="435" d="M55 0 L78 0 L78 488 C78 539 75 630 74 652 L77 652 L201 0 L235 0 L235 700 L212 700 L212 212 C212 161 214 77 216 47 L213 47 L89 700 L55 700 L55 0 Z M285 297 L405 297 L405 320 L285 320 L285 297 Z M285 436 C285 380 305 350 345 350 C385 350 405 380 405 436 L405 618 C405 675 385 705 345 705 C305 705 285 675 285 618 L285 436 Z M381 436 C381 392 370 372 345 372 C320 372 309 392 309 436 L309 618 C309 664 320 683 345 683 C370 683 381 664 381 618 L381 436 Z " />
<glyph glyph-name="trademark" unicode="&#x2122;" horiz-adv-x="332" d="M128 364 L150 364 L164 660 L166 660 L200 440 L226 440 L261 660 L263 660 L280 364 L302 364 L281 700 L251 700 L215 476 L213 476 L180 700 L147 700 L128 364 Z M57 364 L80 364 L80 679 L122 679 L122 700 L15 700 L15 679 L57 679 L57 364 Z " />
<glyph glyph-name="arrowleft" unicode="&#x2190;" horiz-adv-x="700" d="M120 350 L295 202 L295 225 L160 340 L580 340 L580 360 L160 360 L295 475 L295 498 L120 350 Z " />
<glyph glyph-name="arrowup" unicode="&#x2191;" horiz-adv-x="700" d="M352 130 L500 305 L477 305 L362 170 L362 590 L342 590 L342 170 L227 305 L204 305 L352 130 Z " />
<glyph glyph-name="arrowright" unicode="&#x2192;" horiz-adv-x="700" d="M120 340 L540 340 L405 225 L405 202 L580 350 L405 498 L405 475 L540 360 L120 360 L120 340 Z " />
<glyph glyph-name="arrowdown" unicode="&#x2193;" horiz-adv-x="700" d="M342 130 L362 130 L362 550 L477 415 L500 415 L352 590 L204 415 L227 415 L342 550 L342 130 Z " />
<glyph glyph-name="uni2196" unicode="&#x2196;" horiz-adv-x="700" d="M190 170 L420 170 L420 188 L221 188 L530 496 L517 510 L208 201 L208 400 L190 400 L190 170 Z " />
<glyph glyph-name="uni2197" unicode="&#x2197;" horiz-adv-x="700" d="M290 170 L520 170 L520 400 L502 400 L502 201 L193 510 L180 496 L489 188 L290 188 L290 170 Z " />
<glyph glyph-name="uni2198" unicode="&#x2198;" horiz-adv-x="700" d="M183 170 L492 479 L492 280 L510 280 L510 510 L280 510 L280 492 L479 492 L170 184 L183 170 Z " />
<glyph glyph-name="uni2199" unicode="&#x2199;" horiz-adv-x="700" d="M190 280 L208 280 L208 479 L517 170 L530 184 L221 492 L420 492 L420 510 L190 510 L190 280 Z " />
<glyph glyph-name="minus" unicode="&#x2212;" horiz-adv-x="280" d="M20 315 L260 315 L260 338 L20 338 L20 315 Z " />
<glyph glyph-name="approxequal" unicode="&#x2248;" horiz-adv-x="280" d="M20 306 C46 319 67 321 82 321 C101 321 118 318 139 313 C158 308 178 304 201 304 C223 304 241 308 260 320 L260 343 C240 334 223 328 200 328 C183 328 166 331 147 336 C127 341 105 345 82 345 C66 345 46 343 20 328 L20 306 Z M20 227 C46 240 67 242 82 242 C101 242 118 239 139 234 C158 229 178 225 201 225 C223 225 241 229 260 241 L260 264 C240 255 223 249 200 249 C183 249 166 252 147 257 C127 262 105 266 82 266 C66 266 46 264 20 249 L20 227 Z " />
<glyph glyph-name="notequal" unicode="&#x2260;" horiz-adv-x="280" d="M50 212 L75 212 L116 269 L260 269 L260 292 L132 292 L173 349 L260 349 L260 372 L189 372 L230 429 L205 429 L164 372 L20 372 L20 349 L148 349 L107 292 L20 292 L20 269 L91 269 L50 212 Z " />
<glyph glyph-name="lessequal" unicode="&#x2264;" horiz-adv-x="280" d="M25 339 L255 241 L255 269 L60 351 L255 435 L255 462 L25 363 L25 339 Z M20 182 L260 182 L260 205 L20 205 L20 182 Z " />
<glyph glyph-name="greaterequal" unicode="&#x2265;" horiz-adv-x="280" d="M25 241 L255 339 L255 363 L25 462 L25 435 L220 351 L25 269 L25 241 Z M20 182 L260 182 L260 205 L20 205 L20 182 Z " />
<glyph glyph-name="uniF6D1" unicode="&#xf6d1;" horiz-adv-x="144" d="M10 815 C10 770 31 747 72 747 C113 747 134 770 134 815 L134 818 L108 818 L108 815 C108 783 96 768 72 768 C48 768 36 783 36 815 L36 818 L10 818 L10 815 Z " />
<glyph glyph-name="uniF6D4" unicode="&#xf6d4;" horiz-adv-x="144" d="M10 655 C10 610 31 587 72 587 C113 587 134 610 134 655 L134 658 L108 658 L108 655 C108 623 96 608 72 608 C48 608 36 623 36 655 L36 658 L10 658 L10 655 Z " />
<glyph glyph-name="ff" unicode="&#xfb00;" horiz-adv-x="282" d="M55 0 L79 0 L79 518 L188 518 L188 0 L212 0 L212 518 L281 518 L281 540 L212 540 L212 604 C212 656 226 678 260 678 C271 678 281 676 292 672 L292 695 C281 699 272 700 263 700 C213 700 188 666 188 604 L188 540 L79 540 L79 604 C79 656 93 678 127 678 C138 678 148 676 159 672 L159 695 C148 699 139 700 130 700 C80 700 55 666 55 604 L55 540 L15 533 L15 518 L55 518 L55 0 Z " />
<glyph glyph-name="fi" unicode="&#xfb01;" horiz-adv-x="262" d="M55 0 L79 0 L79 518 L188 518 L188 0 L212 0 L212 540 L79 540 L79 596 C79 653 101 678 153 678 C168 678 183 676 194 672 L194 695 C183 699 171 700 159 700 C90 700 55 665 55 596 L55 540 L15 533 L15 518 L55 518 L55 0 Z " />
<glyph glyph-name="fl" unicode="&#xfb02;" horiz-adv-x="262" d="M55 0 L79 0 L79 518 L148 518 L148 540 L79 540 L79 604 C79 657 98 678 143 678 L188 678 L188 0 L212 0 L212 700 L143 700 C84 700 55 669 55 604 L55 540 L15 533 L15 518 L55 518 L55 0 Z " />
<glyph glyph-name="ffi" unicode="&#xfb03;" horiz-adv-x="395" d="M55 0 L79 0 L79 518 L188 518 L188 0 L212 0 L212 518 L321 518 L321 0 L345 0 L345 540 L212 540 L212 596 C212 653 234 678 286 678 C301 678 316 676 327 672 L327 695 C316 699 304 700 292 700 C223 700 188 665 188 596 L188 540 L79 540 L79 604 C79 656 93 678 127 678 C138 678 148 676 159 672 L159 695 C148 699 139 700 130 700 C80 700 55 666 55 604 L55 540 L15 533 L15 518 L55 518 L55 0 Z " />
<glyph glyph-name="ffl" unicode="&#xfb04;" horiz-adv-x="395" d="M55 0 L79 0 L79 518 L188 518 L188 0 L212 0 L212 518 L281 518 L281 540 L212 540 L212 604 C212 657 231 678 276 678 L321 678 L321 0 L345 0 L345 700 L276 700 C217 700 188 669 188 604 L188 540 L79 540 L79 604 C79 656 93 678 127 678 C138 678 148 676 159 672 L159 695 C148 699 139 700 130 700 C80 700 55 666 55 604 L55 540 L15 533 L15 518 L55 518 L55 0 Z " />
</font>
</svg>
